<svg id="Capa_2" data-name="Capa 2" xmlns="http://www.w3.org/2000/svg" viewBox="0 0 114.47 61.14"><defs><style>.cls-1{fill:#fff;}.cls-2{fill:#b9a16e;}.cls-3{fill:#723a06;}</style></defs><title>cerdo</title><path class="cls-1" d="M1273.13,533.09c2.09-.54,2.45-1.1,2.45-1.1a37.15,37.15,0,0,1-4.83-2.06s1.22-1.37,1.07-1.76-0.48-1.25-1.85-.66-4.4-.55-4.4-0.55a52.81,52.81,0,0,0-25.54-17.2c-16.45-4.85-43.3-4.77-53.63-2.94-8.58,1.52-14.88,5.07-17.48,11.51l-1.35-.14s-2.46-.58-3.51-0.08-1.87,2-1.57,2.8,0.89,2.21.62,2.54a1.81,1.81,0,0,1-2,.6,5.5,5.5,0,0,0,2.49.87,1.5,1.5,0,0,0,1.47-1.7c-0.05-.65-0.91-1.6-0.54-2.18s0.63-.58,1.94.1c0.17,0.09.87,0.36,1.49,0.61q-0.08.44-.14,0.89c-1.23,9.22.75,14,3.65,17.68s2.48,5.58,1.75,6.89a4.8,4.8,0,0,0-.22,4.85,17.17,17.17,0,0,1,1.15,7.35c-0.1,2.22.72,3,.87,3.79s0.48,2,.48,2l0.64-.12a1.24,1.24,0,0,1,.5-1c0.4-.08.7,0.6,0.73,1.07a3.3,3.3,0,0,0,.4,1.09s3.48,0.06,3.79,0l0.14-.21a3.29,3.29,0,0,0,.78,0,0.85,0.85,0,0,0-.36-1.05c-0.52-.37-3.31-2.8-3.4-3.51a52.7,52.7,0,0,1,.16-7,5.88,5.88,0,0,1,.88-2.23,16.69,16.69,0,0,0,1.76-1.55,30.81,30.81,0,0,1,3.86,6.45c1.49,3.52,1.68,4.48,2.11,5.13a6.23,6.23,0,0,1,.66,1.49l0.85-.06,0.16-1.67s1.09,1.44,1.49,2.09a1.44,1.44,0,0,0,1.47.47c0.48,0,2.38-.09,2.38-0.09l-0.19-.45,0.28-.24a9.93,9.93,0,0,0-2.05-3.2c-1.18-1-3.44-4.6-3.63-6.31a30.2,30.2,0,0,0-.73-3.69s13,1,18.87.6,18.24-2,18.24-2a10.41,10.41,0,0,0,.51,2.53c0.56,2.11,0,3.42-.6,5.44a19.59,19.59,0,0,0-.56,7l1.21-.46s0.85,2.56,2.64,2.84a8.85,8.85,0,0,0,3,0,29.07,29.07,0,0,1-1.63-2.74c-0.32-.75-0.4-4.53.64-6.24a49.93,49.93,0,0,0,2.62-6.28,18.46,18.46,0,0,1,1.67,3.85,3,3,0,0,0,1.19,1.91,26.64,26.64,0,0,1,.68,3.18,5.38,5.38,0,0,0,1.43,3.14l0.64-.64a4,4,0,0,1,2.09,1.34c1,1.15,3.37,1,4.25.81l0.88-.15s-2.07-3.88-3.45-5.16-2.55-4.47-2.58-7.78,0-3.84,0-3.84l2.89-.6s1.37,3.07,4,3.66,5-.3,8.64.66,6.17,0.2,9.65-1c1.88-.66,3.43-0.48,4.74-0.77s3.81-.72,4.05-0.8a9.18,9.18,0,0,0,1.61-2.77c0.12-.63.3-2.12-0.66-2.26s-3.49-1.85-5.06-2.92-3.34-3.6-3.19-4.71,0.54-3.46.54-3.46A21.52,21.52,0,0,0,1273.13,533.09Z" transform="translate(-1161.1 -505.68)"/><path class="cls-2" d="M1168.34,531.13l0.53,1.64,2,0.84a4.12,4.12,0,0,0-.65-1.42A9.32,9.32,0,0,0,1168.34,531.13Z" transform="translate(-1161.1 -505.68)"/><path class="cls-2" d="M1206,528.23a3.26,3.26,0,0,0,.88.38,1.92,1.92,0,0,0,.36-0.64l-0.87-.11Z" transform="translate(-1161.1 -505.68)"/><path class="cls-2" d="M1206.76,532.81a3.67,3.67,0,0,0-.3.82,1.07,1.07,0,0,0,.53,0,3.65,3.65,0,0,0,.3-0.82A1.07,1.07,0,0,0,1206.76,532.81Z" transform="translate(-1161.1 -505.68)"/><path class="cls-2" d="M1216.41,516.78a3.48,3.48,0,0,0,1.24-.2,2,2,0,0,0,.42-0.93l-1-.41Z" transform="translate(-1161.1 -505.68)"/><path class="cls-2" d="M1211.44,549.63l0.51,1.23,1.14-.12a2,2,0,0,0-.42-0.91A3.47,3.47,0,0,0,1211.44,549.63Z" transform="translate(-1161.1 -505.68)"/><path class="cls-2" d="M1213.94,517.58a3.68,3.68,0,0,0,.82.3c0-.18,0-0.37,0-0.59l-0.83-.24A1.07,1.07,0,0,0,1213.94,517.58Z" transform="translate(-1161.1 -505.68)"/><path class="cls-2" d="M1211,531.63c-0.24.06-.28,0.86-0.57,1.88a6.86,6.86,0,0,0,2.2-.37,2.68,2.68,0,0,0,.22-1.4A5.6,5.6,0,0,0,1211,531.63Z" transform="translate(-1161.1 -505.68)"/><path class="cls-2" d="M1213.92,527.23v0.59a3.65,3.65,0,0,0,.82-0.3,1.07,1.07,0,0,0,0-.53Z" transform="translate(-1161.1 -505.68)"/><path class="cls-2" d="M1215,524.52a3.64,3.64,0,0,0-.3.82,1.07,1.07,0,0,0,.53,0,3.65,3.65,0,0,0,.3-0.82A1.07,1.07,0,0,0,1215,524.52Z" transform="translate(-1161.1 -505.68)"/><path class="cls-2" d="M1213.43,507.84c0.62,1.5.73,2.07,0.9,2.09a9.62,9.62,0,0,0,1.83-.1,2,2,0,0,0-.27-1A17,17,0,0,0,1213.43,507.84Z" transform="translate(-1161.1 -505.68)"/><path class="cls-2" d="M1253.71,533.62a2,2,0,0,0,.24,1,5.92,5.92,0,0,0,1.42.65l-0.25-1.21Z" transform="translate(-1161.1 -505.68)"/><path class="cls-2" d="M1245.72,541.92a3.66,3.66,0,0,0-.3.82H1246l0.24-.83A1.07,1.07,0,0,0,1245.72,541.92Z" transform="translate(-1161.1 -505.68)"/><path class="cls-2" d="M1254.54,544.4V545l0.83,0.24a1.07,1.07,0,0,0,0-.53A3.66,3.66,0,0,0,1254.54,544.4Z" transform="translate(-1161.1 -505.68)"/><path class="cls-2" d="M1246,550.91a4.19,4.19,0,0,0,.75.26h0l-0.74-.3v0Z" transform="translate(-1161.1 -505.68)"/><path class="cls-2" d="M1238.26,517.89a3.64,3.64,0,0,0-.3.82,1.07,1.07,0,0,0,.53,0,3.67,3.67,0,0,0,.3-0.82A1.07,1.07,0,0,0,1238.26,517.89Z" transform="translate(-1161.1 -505.68)"/><path class="cls-2" d="M1184.09,537.18v0.59a3.66,3.66,0,0,0,.82-0.3,1.07,1.07,0,0,0,0-.53Z" transform="translate(-1161.1 -505.68)"/><path class="cls-2" d="M1188.23,507.93a3.66,3.66,0,0,0,.3.82,1.07,1.07,0,0,0,.53,0l-0.24-.83h-0.59Z" transform="translate(-1161.1 -505.68)"/><path class="cls-2" d="M1182.84,516.63a2.76,2.76,0,0,0-.2,1.37,5.44,5.44,0,0,0,1.7,1.12,14.81,14.81,0,0,0-.73-1.71A4.87,4.87,0,0,0,1182.84,516.63Z" transform="translate(-1161.1 -505.68)"/><path class="cls-2" d="M1184.09,546.88a1.07,1.07,0,0,0,0,.53,3.65,3.65,0,0,0,.82.3,1.07,1.07,0,0,0,0-.53A3.67,3.67,0,0,0,1184.09,546.88Z" transform="translate(-1161.1 -505.68)"/><path class="cls-2" d="M1181.74,514.56l0.19,1.49,1.3,0.2a1.93,1.93,0,0,0-.15-1A5.73,5.73,0,0,0,1181.74,514.56Z" transform="translate(-1161.1 -505.68)"/><path class="cls-2" d="M1222.55,507.9l-0.15-.15a1.91,1.91,0,0,0-.17-0.13,0.55,0.55,0,0,0-.16-0.13,0.25,0.25,0,0,1-.12-0.13,0.42,0.42,0,0,1-.09-0.16c0-.1.09-0.15,0-0.19a0.44,0.44,0,0,0-.24,0,0.29,0.29,0,0,0-.19,0s-0.09.08-.16,0.11a1.4,1.4,0,0,0-.21.05l-0.18.11-0.16.1,1.89,0.94,0.19-.35h-0.07A0.34,0.34,0,0,1,1222.55,507.9Z" transform="translate(-1161.1 -505.68)"/><path class="cls-2" d="M1198.23,544.4a2.65,2.65,0,0,0,.22,1,8.89,8.89,0,0,0,1.32-1,1.71,1.71,0,0,0-.21-0.83A8.48,8.48,0,0,0,1198.23,544.4Z" transform="translate(-1161.1 -505.68)"/><path class="cls-2" d="M1195.69,518.94c0,0.22,0,.41,0,0.59a3.66,3.66,0,0,0,.82-0.3,1.07,1.07,0,0,0,0-.53Z" transform="translate(-1161.1 -505.68)"/><path class="cls-2" d="M1198.47,512.91a3.67,3.67,0,0,0-.3.82h0.59l0.24-.83A1.07,1.07,0,0,0,1198.47,512.91Z" transform="translate(-1161.1 -505.68)"/><path class="cls-2" d="M1171.65,523.68a1.07,1.07,0,0,0,.53,0,3.67,3.67,0,0,0,.3-0.82h-0.59Z" transform="translate(-1161.1 -505.68)"/><path class="cls-2" d="M1171.65,514.56a5.92,5.92,0,0,0,.65,1.42,2,2,0,0,0,1,.24l-0.45-1.41Z" transform="translate(-1161.1 -505.68)"/><path class="cls-2" d="M1262.83,537.77v0.59l0.83,0.24a1.07,1.07,0,0,0,0-.53A3.67,3.67,0,0,0,1262.83,537.77Z" transform="translate(-1161.1 -505.68)"/><path class="cls-2" d="M1185.74,553.51v0.59l0.83,0.24a1.07,1.07,0,0,0,0-.53A3.66,3.66,0,0,0,1185.74,553.51Z" transform="translate(-1161.1 -505.68)"/><path class="cls-2" d="M1186.87,539.44a3.65,3.65,0,0,0-.3.82,1.07,1.07,0,0,0,.53,0,3.66,3.66,0,0,0,.3-0.82A1.07,1.07,0,0,0,1186.87,539.44Z" transform="translate(-1161.1 -505.68)"/><path class="cls-2" d="M1186.63,524.51a2.64,2.64,0,0,0,.22,1,8.85,8.85,0,0,0,1.32-1,1.71,1.71,0,0,0-.21-0.83A8.5,8.5,0,0,0,1186.63,524.51Z" transform="translate(-1161.1 -505.68)"/><path class="cls-2" d="M1224.7,507.93l0.24,0.83h0.59a3.65,3.65,0,0,0-.3-0.82A1.07,1.07,0,0,0,1224.7,507.93Z" transform="translate(-1161.1 -505.68)"/><path class="cls-2" d="M1223,508.75a1.91,1.91,0,0,0-.79,0c-0.27.6-.79,1.57-0.56,1.82a10.83,10.83,0,0,0,2.45,1.57l0.56-1.56C1223.46,510.6,1222.67,510.2,1223,508.75Z" transform="translate(-1161.1 -505.68)"/><path class="cls-2" d="M1204.81,528.51l0.87,0.09v-0.74a5.38,5.38,0,0,0-.87.13A1.69,1.69,0,0,0,1204.81,528.51Z" transform="translate(-1161.1 -505.68)"/><path class="cls-2" d="M1218.07,507l0.87,0.09v-0.74a5.37,5.37,0,0,0-.87.13A1.69,1.69,0,0,0,1218.07,507Z" transform="translate(-1161.1 -505.68)"/><path class="cls-2" d="M1219.55,548a6.85,6.85,0,0,0-.86,2.06h0.66l1.37-.17a3.31,3.31,0,0,0,.16-1.75A1.7,1.7,0,0,0,1219.55,548Z" transform="translate(-1161.1 -505.68)"/><path class="cls-2" d="M1227.18,512.13a8.93,8.93,0,0,0-1,1.32,2.64,2.64,0,0,0,1,.22,8.49,8.49,0,0,0,.83-1.34A1.71,1.71,0,0,0,1227.18,512.13Z" transform="translate(-1161.1 -505.68)"/><path class="cls-2" d="M1219.31,506.68L1220,507a0.85,0.85,0,0,0,.17-0.07c0.06,0,.1-0.1.17-0.15l0.18-.13c0.06,0,.14-0.06.2-0.1l0.2-.11,0,0-1.58-.14C1219.34,506.43,1219.33,506.56,1219.31,506.68Z" transform="translate(-1161.1 -505.68)"/><path class="cls-2" d="M1235.47,512.13a8.93,8.93,0,0,0-1,1.32,2.64,2.64,0,0,0,1,.22,8.48,8.48,0,0,0,.83-1.34A1.71,1.71,0,0,0,1235.47,512.13Z" transform="translate(-1161.1 -505.68)"/><path class="cls-2" d="M1247.91,544.4c0,0.18,0,.37,0,0.59l0.83,0.24a1.07,1.07,0,0,0,0-.53A3.66,3.66,0,0,0,1247.91,544.4Z" transform="translate(-1161.1 -505.68)"/><path class="cls-2" d="M1234.2,549.13v0.51l0.83-.12a0.2,0.2,0,0,0,0-.09A3.67,3.67,0,0,0,1234.2,549.13Z" transform="translate(-1161.1 -505.68)"/><path class="cls-2" d="M1249.55,517.47a2,2,0,0,0,.24,1,5.93,5.93,0,0,0,1.42.65l-0.25-1.21Z" transform="translate(-1161.1 -505.68)"/><path class="cls-2" d="M1241.56,525.77a3.66,3.66,0,0,0-.3.82h0.59l0.24-.83A1.07,1.07,0,0,0,1241.56,525.77Z" transform="translate(-1161.1 -505.68)"/><path class="cls-2" d="M1250.38,528.25v0.59l0.83,0.24a1.07,1.07,0,0,0,0-.53A3.66,3.66,0,0,0,1250.38,528.25Z" transform="translate(-1161.1 -505.68)"/><path class="cls-2" d="M1226.74,528.67l0.64,1.54,1-.41a2,2,0,0,0-.42-0.93A3.48,3.48,0,0,0,1226.74,528.67Z" transform="translate(-1161.1 -505.68)"/><path class="cls-2" d="M1242.7,546.94a4.33,4.33,0,0,0-1.81.52,3.48,3.48,0,0,0,.15.84h2.28A3.3,3.3,0,0,0,1242.7,546.94Z" transform="translate(-1161.1 -505.68)"/><path class="cls-2" d="M1238.61,540l-0.41,1,1.54,0.63a3.47,3.47,0,0,0-.2-1.24A2,2,0,0,0,1238.61,540Z" transform="translate(-1161.1 -505.68)"/><path class="cls-2" d="M1227,525.1a3.67,3.67,0,0,0-.3.82h0.59l0.24-.83A1.07,1.07,0,0,0,1227,525.1Z" transform="translate(-1161.1 -505.68)"/><path class="cls-2" d="M1235.86,540l0.83-.24v-0.59a3.67,3.67,0,0,0-.82.3A1.07,1.07,0,0,0,1235.86,540Z" transform="translate(-1161.1 -505.68)"/><path class="cls-2" d="M1258.67,521.62v0.59l0.83,0.24a1.07,1.07,0,0,0,0-.53A3.67,3.67,0,0,0,1258.67,521.62Z" transform="translate(-1161.1 -505.68)"/><path class="cls-2" d="M1243.75,528.25c0,0.18,0,.37,0,0.59l0.83,0.24a1.07,1.07,0,0,0,0-.53A3.66,3.66,0,0,0,1243.75,528.25Z" transform="translate(-1161.1 -505.68)"/><path class="cls-2" d="M1224.25,529.24l0.24,0.83h0.59a3.66,3.66,0,0,0-.3-0.82A1.07,1.07,0,0,0,1224.25,529.24Z" transform="translate(-1161.1 -505.68)"/><path class="cls-2" d="M1223.43,538.35v0.59l0.83,0.24a1.07,1.07,0,0,0,0-.53A3.66,3.66,0,0,0,1223.43,538.35Z" transform="translate(-1161.1 -505.68)"/><path class="cls-3" d="M1189.41,532.94a0.32,0.32,0,0,1,0,.29,6.81,6.81,0,0,1-2,2.27,4.27,4.27,0,0,1-2.46.79h-0.2a4.84,4.84,0,0,1-3.7-1.1c-2-1.21-3.19-3.59-3.63-7.46v-0.07a7.21,7.21,0,0,1-.09-1.47v0a5.81,5.81,0,0,1,.26-2,14.76,14.76,0,0,1,.77-2.09,6.85,6.85,0,0,1,.46-0.88c0.09-.18.24-0.4,0.51-0.88l0.15-.26v0a3.44,3.44,0,0,1,.73-0.88,3.37,3.37,0,0,0,.4-0.4,2.68,2.68,0,0,1,.64-0.55h0l0.24-.18a4.76,4.76,0,0,1,2.68-1,6.77,6.77,0,0,1,4.09,1.41,2.93,2.93,0,0,1,.84,1.25,2.76,2.76,0,0,1,0,1.89c0,0.09-.07.18-0.11,0.26a1.23,1.23,0,0,1-1.17,1,0.51,0.51,0,0,1-.42-0.2,0.92,0.92,0,0,1,.13-0.9,1.64,1.64,0,0,0,.37-1.54,2.48,2.48,0,0,0-1.58-1.52,4.28,4.28,0,0,0-1.65-.35,1.71,1.71,0,0,0-.31,0,2.65,2.65,0,0,0-.55.07,4.87,4.87,0,0,0-3.06,2.07c-0.07.11-.15,0.22-1.21,2.22a8.6,8.6,0,0,0-.73,2.2h0c0,0.4-.07,1.3-0.07,2a9.53,9.53,0,0,0,1.14,4.69,8.48,8.48,0,0,0,1.63,2.2,0.91,0.91,0,0,1,.15.2,3.15,3.15,0,0,0,2.29.9,10.34,10.34,0,0,0,1.45-.13h0.09a11.49,11.49,0,0,0,1.36-.57h0l0,0,0.44-.4,0.2-.22a4.63,4.63,0,0,0,.81-1,0.41,0.41,0,0,1,.37-0.2,0.2,0.2,0,0,1,.13.07h0A1,1,0,0,1,1189.41,532.94Z" transform="translate(-1161.1 -505.68)"/><path class="cls-3" d="M1204.3,535.53c0.13,0.48.2,0.35,0,.53a1.16,1.16,0,0,1-.7.18h-0.26l-0.22,0c-0.68,0-1.72-.09-2.55-0.15h0c-0.46,0-.95-0.07-1.85-0.07a18,18,0,0,0-2.22.15,13.26,13.26,0,0,0-2.2.4c-0.84.29-1.3,0.31-2,.57h-0.07a0.85,0.85,0,0,1-.53-0.35,0.44,0.44,0,0,1,.07-0.57,1.84,1.84,0,0,1,.44-0.26,8.69,8.69,0,0,1,.9-0.51,3.43,3.43,0,0,0,.51-0.29,4.27,4.27,0,0,0,.9-2.93c0-.64.11-1.3,0.11-1.91a3.67,3.67,0,0,1,0-.7c0-.15,0-1.67,0-1.74V527.7a4.83,4.83,0,0,0,0-.92c0-.09,0-0.46,0-0.81s0-.86,0-1a1.66,1.66,0,0,1,0-.33c0-.09,0-0.18,0-0.26,0-.26,0-0.51,0-0.77s0.13-2,.09-2.27v-0.4c0-.7.13-2.11-0.84-2.4a3.06,3.06,0,0,0-.33,0,1.89,1.89,0,0,1-.84-0.11,0.68,0.68,0,0,1-.26-0.84,0.76,0.76,0,0,1,.66-0.44h0.2c0.44,0,.75-0.09.84-0.11s0.53,0,1.21-.07h0.4c0.29,0,.44,0,1.06,0h0.81c0.44,0,.46,0,1,0a8.65,8.65,0,0,0,1.19,0l0.2,0a0.24,0.24,0,0,0,.13,0c0.09,0,1.12-.09,1.61-0.09h0.2c0.77,0.18.84,0.42,0.84,0.7s0,0.24-.07.29a1.64,1.64,0,0,0-.09.26,0.91,0.91,0,0,1-.13.37,0.49,0.49,0,0,0-.11.11,0.34,0.34,0,0,1,0,.09,0.34,0.34,0,0,1-.26.13,0.59,0.59,0,0,1-.35-0.18,1.35,1.35,0,0,0-.33-0.26,2.36,2.36,0,0,0-.92-0.11h-0.48c-0.84,0-.29,0-1.23,0-0.42,0-.33,0-1.08,0a1.38,1.38,0,0,0-.31,0,2.19,2.19,0,0,0-1.23.42,1.63,1.63,0,0,0-.18.48v0.13a12.16,12.16,0,0,0,0,1.25v1c0,0.75,0,1.87,0,2.29a1.1,1.1,0,0,0,1,1.23,0.13,0.13,0,0,1,.11,0,8.74,8.74,0,0,0,1.67-.31,1.78,1.78,0,0,1,.42-0.07,0.3,0.3,0,0,1,.26.11,2.22,2.22,0,0,1,0,1.14v0a0.52,0.52,0,0,0,0,.09,0.57,0.57,0,0,1-.29.42,0.27,0.27,0,0,1-.13,0,1.33,1.33,0,0,1-.4-0.11,6.11,6.11,0,0,0-1.08,0h-0.09a2.5,2.5,0,0,0-1.52,1.89,1.1,1.1,0,0,0,0,.37c0,0.15,0,.29-0.09,2v0s0,1.72,0,2.73v0.2c0.2,1,1.14,1.12,2,1.14h0.33c0.7,0,1.43.07,2.27,0.07l0.77,0c0.24,0,.48,0,0.64,0h0.11a2.18,2.18,0,0,0,1.36-.4,1.22,1.22,0,0,1,.64-0.22h0.07a0.15,0.15,0,0,1,.15,0A5.61,5.61,0,0,1,1204.3,535.53Z" transform="translate(-1161.1 -505.68)"/><path class="cls-3" d="M1217.29,535.53a1.93,1.93,0,0,1-.92-0.09,0.47,0.47,0,0,1-.13-0.53,2,2,0,0,0-.24-1.12s-0.79-1.76-1.1-2.38c0-.11-0.62-1.45-0.88-2l-0.07-.15h0c-0.11-.24-0.4-0.62-0.55-0.92a4.79,4.79,0,0,0-.24-0.53v0h0a1.25,1.25,0,0,0-1.08-.59,1.77,1.77,0,0,0-1.39.53,1.51,1.51,0,0,0-.48,1.17c0,0.31,0,.68,0,1a6.17,6.17,0,0,0,0,.7c0,0.26,0,1.41,0,2,0,0.31,0,.46,0,0.53v0.42a9.7,9.7,0,0,1,0,1.12,1.78,1.78,0,0,0,0,.29c0,0.09.2,0.44,0,.55a1.25,1.25,0,0,1-.68.09,1.82,1.82,0,0,1-1.06-.18,0.58,0.58,0,0,1,.07-0.44,12.78,12.78,0,0,0,.26-1.32,17.92,17.92,0,0,0,.18-3.7,22.09,22.09,0,0,0,.07-2.86,3,3,0,0,1,0-.44,2.09,2.09,0,0,0,0-.37c0-.29,0-0.57,0-0.86s0-.57,0-0.84c0-.57,0-1.12,0-1.65v-0.84c0-.59,0-3.34-1.89-3.94-0.29-.09-0.7-0.26-1.21-0.42h0a1.77,1.77,0,0,1-1.08-.73,0.84,0.84,0,0,1,.22-0.64,0.41,0.41,0,0,1,.42-0.2h0.13a7.5,7.5,0,0,1,.81.31,12.21,12.21,0,0,0,2,.44l0.18,0,0.79,0c0.11,0,1.56,0,2,0s0.77,0,1.1,0a3.34,3.34,0,0,1,.42,0s0.62,0,.84.09h0a4.38,4.38,0,0,1,3.76,2.55,1.74,1.74,0,0,1,.22.7,4.37,4.37,0,0,1-.51,2.64l0,0a4.39,4.39,0,0,1-.77,1.19l-0.13.13c-0.57.57-1.54,0.9-1.89,1.76a2,2,0,0,0-.09,1v0a6.2,6.2,0,0,0,.35,1l0.59,1.25a15.18,15.18,0,0,0,.84,1.87v0c0.24,0.33.33,0.62,1.12,2,0.07,0.15.22,0.46,0.42,0.84l0.18,0.29v0l0.24,0.46a1.7,1.7,0,0,1,.2.29C1218.53,535.64,1217.6,535.53,1217.29,535.53Zm-0.77-13.91a3,3,0,0,0-.77-2.49v0h0a2.62,2.62,0,0,0-1.83-.7,6.1,6.1,0,0,1-.64,0c-0.22,0-.46,0-0.7,0a1,1,0,0,0-.24,0,3,3,0,0,0-1.21.18,1.87,1.87,0,0,0-.79,1v0a4.64,4.64,0,0,0-.09,1.1,26.86,26.86,0,0,1,0,3.19,1.45,1.45,0,0,0,0,.95l0,0a0.86,0.86,0,0,0,.86.66,2.33,2.33,0,0,0,1-.18,6.09,6.09,0,0,0,1.28-.57l0.18-.11h0C1215,523.85,1216.31,522.84,1216.53,521.63Z" transform="translate(-1161.1 -505.68)"/><path class="cls-3" d="M1235.6,528.45c0,0.79-.18,1.58-0.22,2.42a7.31,7.31,0,0,1-.48,1.72,8,8,0,0,1-2.71,2.86h0a5.07,5.07,0,0,1-3,.84H1229l-0.29,0c-0.29.09-2.88-.15-3.72-0.15a5.33,5.33,0,0,0-3,.68l-0.07,0v0a8.46,8.46,0,0,0-1,.68,0.76,0.76,0,0,1-.35.18,0.8,0.8,0,0,0-.22-0.09,1,1,0,0,1-.48-0.59v0a1.12,1.12,0,0,1,.37-0.77l0.26-.18a2.87,2.87,0,0,0,.42-0.31,4.14,4.14,0,0,1,.73-0.48,3.57,3.57,0,0,0,1.21-.92,3.47,3.47,0,0,0,.88-2.13l0-.18V532a23.58,23.58,0,0,0,.22-4.11c0-.37,0-1.21,0-1.74v-0.4a10.31,10.31,0,0,0,.09-1.76v-1.08c0-1.39,0-1.89,0-2a0.44,0.44,0,0,0,0-.18v-0.13a1.74,1.74,0,0,0-2-2h-0.15a0.62,0.62,0,0,0-.2,0,0.66,0.66,0,0,1-.57-0.42v0a2.42,2.42,0,0,1,.15-1,1.89,1.89,0,0,1,.79-0.22,0,0,0,0,0,0,0c0.18,0,.88,0,1.45,0,0.37,0,.7,0,0.75,0,2.11,0,5.21,0,7.46,1.89l0.22,0.15,0.29,0.26a11.52,11.52,0,0,1,1.23,1.32,10.05,10.05,0,0,1,.95,2.07,8.7,8.7,0,0,1,.59,2.2v0l0,0.11A13.77,13.77,0,0,1,1235.6,528.45Zm-2.55-6.12a3.12,3.12,0,0,0-.31-0.51,0.11,0.11,0,0,1,0-.07,1.33,1.33,0,0,0-.15-0.22,5.27,5.27,0,0,0-1.56-1.65h0l-0.51-.33-0.18-.09a8.83,8.83,0,0,0-.95-0.44l-0.11,0h0a4.07,4.07,0,0,0-1.87-.42,1.55,1.55,0,0,0-1.19.44c-0.53.53-.51,1.36-0.51,4.62V524a9.28,9.28,0,0,1-.07,1.47v0.29l-0.09,3.39c0,0.64,0,1.25,0,1.65,0,0.24,0,.4,0,0.44v0c0,0.2,0,.33,0,1.94l0,0,0,0a0.74,0.74,0,0,1,0,.24v0.07a1.09,1.09,0,0,0,.37.68,2.59,2.59,0,0,0,.88.46h0l0.86,0.2,0.77,0.13h0c1.08-.09,1.43-0.11,1.54-0.13H1230a8.79,8.79,0,0,0,2.71-1.69h0l0,0a3.42,3.42,0,0,0,.59-0.88l0,0v0a0.29,0.29,0,0,1,0-.09C1234.76,529.55,1234.08,525.15,1233,522.33Z" transform="translate(-1161.1 -505.68)"/><path class="cls-3" d="M1238.25,524.49a6.53,6.53,0,0,0,.46-1.69,2.7,2.7,0,0,1,.11-0.55,5.81,5.81,0,0,1,.18-0.64v0c0-.09.07-0.2,0.11-0.29a7.69,7.69,0,0,0,.46-0.79,8.06,8.06,0,0,1,.53-0.88,1.84,1.84,0,0,0,.46-0.35l0.07-.09a4.51,4.51,0,0,1,.33-0.31l0.79-.64,0,0,0.2-.15a1.36,1.36,0,0,1,.42-0.31,3.89,3.89,0,0,0,.53-0.24,5.12,5.12,0,0,1,.7-0.33,4.34,4.34,0,0,1,1.47-.2,4.59,4.59,0,0,1,1.06.24,2.21,2.21,0,0,1,.53.31c0.13,0.07.24,0.15,0.37,0.22a2.45,2.45,0,0,1,.81.68,4,4,0,0,0,.29.31l0.22,0.22a0.86,0.86,0,0,0,.18.22c0.09,0.11.15,0.22,0.24,0.31l0.13,0.13a0.77,0.77,0,0,1,.26.33,0.5,0.5,0,0,0,.18.2,1,1,0,0,1,.31.44c0.11,0.26.2,0.51,0.31,0.75a1.66,1.66,0,0,0,.13.31s0,0.07,0,.09a1.06,1.06,0,0,1,.07.15c0,0.11.07,0.22,0.09,0.33,0.11,0.35.22,0.71,0.31,1.06l0.13,0.51a4.26,4.26,0,0,1,.26,1.17,12,12,0,0,1-.48,5.08s0,0.07,0,.09c-0.11.35-.24,0.73-0.37,1.08-0.11.18-.24,0.33-0.37,0.51s-0.29.33-.42,0.51a8.69,8.69,0,0,0-.57.7,1.74,1.74,0,0,0-.31.31c-0.09.09-.33,0.33-0.42,0.44a4.68,4.68,0,0,1-1.17,1.21,2.49,2.49,0,0,1-.48.24,4.4,4.4,0,0,1-.53.11l-0.24,0-0.13,0a1.46,1.46,0,0,1-.31,0,4.87,4.87,0,0,0-.55.09,5,5,0,0,1-1,.07h-0.11a3.89,3.89,0,0,1-2.27-1.3c-0.07-.07-0.77-0.75-1-1a2.6,2.6,0,0,1-.81-1.12,4.68,4.68,0,0,0-.37-1,3.78,3.78,0,0,1-.46-1.17c-0.07-.37-0.15-1.54-0.2-2,0-.11,0-0.18,0-0.22,0-.37-0.15-1.12-0.2-1.47a0.31,0.31,0,0,0,0-.15A11.52,11.52,0,0,1,1238.25,524.49Zm1.28,1.87c0,0.29,0,.55,0,0.84a13.89,13.89,0,0,0,.48,3.13,1.62,1.62,0,0,0,.22.31c0,0.07.09,0.13,0.18,0.29a0.48,0.48,0,0,0,.15.2,27.77,27.77,0,0,0,1.74,2.22,2.06,2.06,0,0,0,.68.44,0.79,0.79,0,0,1,.2.11,0.71,0.71,0,0,0,.4.15,1.38,1.38,0,0,0,.29,0,2.53,2.53,0,0,1,.35-0.07,1.48,1.48,0,0,0,.29,0,1.18,1.18,0,0,0,.26-0.07h0l0.18-.07,0.26-.07a3.07,3.07,0,0,0,1.43-.62c0.09-.13.18-0.24,0.26-0.35l0.33-.4c0.11-.13.22-0.26,0.33-0.42a0.91,0.91,0,0,0,.33-0.31,0.23,0.23,0,0,0,.09-0.07,5.22,5.22,0,0,0,1-1.76,0.94,0.94,0,0,1,.22-0.59,1.05,1.05,0,0,0,.09-0.15,5.69,5.69,0,0,0,.35-1.72,17.22,17.22,0,0,0-.31-3.85,0.1,0.1,0,0,0,0-.07,9,9,0,0,0-.66-1.74,18.56,18.56,0,0,0-2-2.51,3.33,3.33,0,0,0-.79-0.53l-0.11-.07a1.54,1.54,0,0,0-.77-0.26,1.93,1.93,0,0,0-.77.11l-0.07,0a0.55,0.55,0,0,1-.31.09h0a0.08,0.08,0,0,0-.07,0,1.29,1.29,0,0,0-.51.29c-0.24.18-.53,0.42-0.81,0.66a10,10,0,0,0-1.67,1.67,0.88,0.88,0,0,1,0,.11,1.65,1.65,0,0,0-.31.66s0,0.07,0,.09v0l0,0a19.24,19.24,0,0,0-.88,3A5.5,5.5,0,0,0,1239.53,526.36Z" transform="translate(-1161.1 -505.68)"/></svg>