<?xml version="1.0" encoding="utf-8"?>
<!-- Generator: Adobe Illustrator 19.2.1, SVG Export Plug-In . SVG Version: 6.00 Build 0)  -->
<svg version="1.1" id="Capa_2" xmlns="http://www.w3.org/2000/svg" xmlns:xlink="http://www.w3.org/1999/xlink" x="0px" y="0px"
	 viewBox="0 0 298 160" style="enable-background:new 0 0 298 160;" xml:space="preserve">
<style type="text/css">
	.st0{fill:#FFFFFF;}
</style>
<title>Objeto inteligente vectorial</title>
<image style="overflow:visible;" width="1209" height="613" xlink:href="DC2F55ADE4085E81.jpg"  transform="matrix(0.24 0 0 0.24 3.92 2.3278)">
</image>
<g>
	<g>
		<path class="st0" d="M52.6,93.7l-1.1-2c-1.2-2.2-2.5-4.5-2.5-7s2-5.2,4.5-5c1.4,0.2,2.7,0.9,3.5,2c0.9,0.8,1.2,2,1,3.1
			c-0.6,1.7-0.2,3.7-0.2,5.5s-0.4,3.9-2,4.9c-0.5,0.3-1,0.4-1.5,0.3C53.6,95.2,52.9,94.5,52.6,93.7 M54.1,85.3
			c0.4,0.6,1.4,0,1.4-0.7c-0.1-0.7-0.6-1.3-1.2-1.7L54.1,85.3L54.1,85.3z"/>
		<path class="st0" d="M58.7,62.5c-1.6-0.2-3.3-0.6-4-2c-0.4-1-0.4-2-0.2-3l5.8-37.2c0.1-0.8,0.3-1.6,0.7-2.3
			c1.2-1.7,3.5-2.1,5.2-0.9c0.1,0.1,0.2,0.1,0.3,0.2c1.5,1.5,1.8,3.9,0.6,5.8c-0.6,1.1-0.9,2.4-0.9,3.6l-3.4,34.2
			C62.5,62.4,60.3,62.7,58.7,62.5 M63.9,18.5c-0.4-0.6-1.2,0.3-1.3,1.1c-2,12.9-3.7,25.8-5.4,38.7c0.9,0.3,1.4-0.9,1.5-1.8
			L63.9,18.5z"/>
		<path class="st0" d="M140.5,16.9c2.4,0,5.7,1,5.4,3.4c-0.2,1.9-2.6,2.6-4.5,2.8l-9.6,1.3c-1.9,0.2-2.6,2.6-2.9,4.5
			c-0.3,1.3-0.3,2.6,0,3.8c0.3,1.3,1.5,2.2,2.8,2.2c1.6-0.3,3.2-0.3,4.8,0s2.9,1.5,3.4,3.1c0.4,1.6-0.8,3.4-2.4,3.4l-9-0.2
			c-0.6-0.2-1.2,0.2-1.4,0.8c0,0.2-0.1,0.3,0,0.5l-0.6,8.8c-0.2,0.7,0.1,1.5,0.8,1.7c0.2,0.1,0.5,0.1,0.7,0l16.2,0.7
			c1.5,0.1,2.6-1.3,3.5-2.6c5.7-8.4,10.5-17.4,14.3-26.9c1.8-4.4,3.4-9,6.6-12.6c1.2-1.3,3.3-2.4,4.5-1.1c0.4,0.5,0.6,1,0.7,1.6
			l7.7,31.2c0.7,2.1,0.9,4.3,0.8,6.5c-0.2,2.2-1.5,4.2-3.5,5.2c-0.8,0.4-1.8,0.4-2.7,0c-1.1-0.7-1.4-2.1-1.5-3.3l-1.1-8.2l-8.1-0.1
			c-2.1,0-4.8,0.4-5.2,2.4c-0.9,3.7-1.9,7.7-4.7,10.4s-7.9,3.2-10.2,0.1c1.1,1.3,1,3.2-0.2,4.3c-1,0.9-2.3,1-3.5,0.4
			c-2.6-1.4-5.8-1.2-8.8-0.8s-6.1,1-9,0.1s-5.5-3.7-4.9-6.7c2.1-10.5,3.3-21.3,3.6-32c0.2-2,1.6-3.7,3.5-4.4
			c1.9-0.6,3.9-0.8,5.9-0.6L140.5,16.9 M172.2,36.9c0.2-0.2,0.2-0.5,0.1-0.8l-1.8-9.9c0-0.5-0.3-0.9-0.7-1.2
			c-1.6,4.1-3.5,8.1-5.7,12c2.5,0.7,5.1,0.7,7.6,0.2C171.9,37.1,172.1,37,172.2,36.9 M126.7,21.6l-1.1-0.2l-3,31.8
			c-0.1,0.8-0.1,1.7,0.2,2.5c0.8-1.5,1.3-3.1,1.3-4.8C125.2,41.2,126,31.4,126.7,21.6 M162.8,31.4c0.6-1.2,1.1-2.7,0.3-3.8
			c-4.2,8.7-8.8,17.2-13.8,25.5c0.4,0.7,1.4,0,1.9-0.7C155.4,45.6,159.3,38.6,162.8,31.4 M165.4,22.4c-0.5,1-0.7,2.5,0.3,2.8
			l4.1-9.9c-0.3-0.4-0.9,0.1-1.1,0.6L165.4,22.4 M141.6,56.7c-0.2-0.3-0.6-0.4-0.9-0.3c-0.1,0.1-0.2,0.2-0.3,0.3
			C140.8,56.9,141.2,56.9,141.6,56.7L141.6,56.7L141.6,56.7z"/>
		<path class="st0" d="M184.4,52.4c-0.7-1.4-0.7-3.1,0.1-4.5c0.9-1.3,3-1.7,4-0.5c1.9,2.3,4.7,3.5,7.6,3.3c1.8-3.6,0.4-8.1-2-11.4
			s-5.6-5.8-8-9.1s-3.8-7.8-2-11.4c1-1.7,2.4-3.1,4.1-4.1c4.8-2.7,10.7-2.9,15.6-0.5c1.6,0.8,3.1,2.8,1.9,4.1s-3.2-0.3-4.8-1.1
			c-2-1-4.4-0.5-5.8,1.3c-1.2,1.8-0.2,4.8,1.9,5.1c3.6,0.7,5.8,4.1,7.4,7.4c3.2,6.8,4.8,15.3,0.6,21.5c-1.9,2.7-4.6,4.7-7.8,5.5
			C192.3,59.4,186.3,57.2,184.4,52.4 M200.1,50.5c0.9-4.6,1.6-9.8-0.9-13.7c-1.2-1.6-2.6-3.1-4.3-4.3c-3-2.5-5.9-5.3-8.6-8.2
			c-0.2,0.4-0.1,0.8,0.1,1.2c2.1,4.8,7.1,7.7,10.1,12c2.6,3.7,3.5,8.4,2.5,12.8L200.1,50.5 M194.9,30.3c0.9,1.2,2,2.2,3.3,3
			C197.9,31.7,196.5,30.5,194.9,30.3z"/>
		<path class="st0" d="M141.7,87.7c-3.3-0.4-6.7-0.2-9.9,0.4c-0.6,0.1-1.1,0.3-1.5,0.7c-0.3,0.5-0.5,1-0.4,1.5l-0.3,4.8
			c-0.1,0.8,0,1.7,0.2,2.5c0.9,2,3.7,2,5.9,1.9s5.2,0.7,5.1,3s-3.3,3-5.6,2.7s-5.5-0.1-6,2.2c-0.5,2.1-1,4.3-0.5,6.5s2.5,4,4.6,3.8
			c4.6-0.6,9.9-1,13.5,1.9c0.7-9.7,0.7-19.4-0.1-29.1c-0.2-1-0.1-2.1,0.2-3.1c0.6-1,1.4-1.8,2.4-2.4c2.8-2,5.9-4,9.2-3.7
			c1.3,0.2,2.5,0.6,3.6,1.2c6.3,3.5,8.5,11.5,5,17.8c-1.1,1.9-2.6,3.6-4.5,4.7c2.9,2.6,6.4,4.4,10.2,5.1c-1.8-5.3-1.3-11.1-0.4-16.6
			c0.5-3.3,1.2-6.8,3.4-9.2c3.2-3.6,8.8-4.1,13.6-3.2c1.1,0.1,2.1,0.5,2.9,1.3c0.7,0.8,0.7,2.3-0.3,2.8c-0.6,0.2-1.1,0.2-1.7,0.1
			c-2.4,0-4.7,1.3-6,3.3s-1.9,4.4-2,6.8c-0.4,7.1,2.3,14.1,7.5,19c1.5-1.3,2-3.3,2.5-5.3l5.6-24.2c0.6-2.7,1.5-5.7,4-6.9
			s5.4-0.1,7.2,1.9s2.6,4.6,3.4,7.1c2.7,9.1,4.7,18.4,6.2,27.8c0.1,0.3,0.1,0.6,0,0.9c-0.2,0.4-0.6,0.6-1.1,0.7
			c-1.7,0.6-3.6,0.7-5.3,0.1c-1.7-0.7-2.9-2.8-2-4.4c0.8-1.9-0.1-4.1-2-4.9c-0.3-0.1-0.7-0.2-1-0.3c-2.2,0.1-3.9,1.9-3.9,4.1
			c0,0.2,0,0.5,0.1,0.7c1.1,3.9-1.2,8-5.1,9c-2,0.6-4.2,0.2-6-0.9c-1.1-0.7-2.4-1.8-3.6-1.2c-2.3,1.3-5.3,0.9-7.7-0.4
			c-2.3-1.4-4.3-3.2-6-5.3c0.8,1.5-0.8,3.4-2.4,3.7s-3.4-0.6-4.9-1.5c-4.2-2.2-8.2-4.8-11.9-7.8l1.8,11.1c0.4,1-0.1,2-1.1,2.4
			c-0.2,0.1-0.4,0.1-0.6,0.1c-1.9,0.6-4,1.3-6,0.8c-0.8-0.3-1.6-0.5-2.5-0.6c-0.7,0-1.4,0.2-2,0.4c-2.4,0.6-4.9,0.8-7.4,0.8
			l-17.5,0.4c-0.9,0.1-1.7-0.1-2.5-0.5c-1-0.8-1-2.3-0.9-3.5c1-10.6,2.3-21.1,3.9-31.6c0-0.4,0.2-0.9,0.4-1.3
			c0.4-0.6,1.1-1.1,1.8-1.3c6.1-2.5,12.8-3,19.2-1.3c1.6,0.4,3.6,1.8,2.9,3.3C144.9,87.9,143.1,87.9,141.7,87.7 M158.8,100.9
			c2.1-2.2,3.5-5,4.1-8c0.4-1.9,0.3-4.1-1-5.5c-0.9-0.8-2-1.4-3.2-1.7c-0.5-0.2-1.1-0.3-1.7-0.2c-0.9,0.3-1.5,1.2-1.5,2.2
			c0,0.9,0.2,1.9,0.4,2.8c0.4,2.9-0.6,5.9-0.1,8.9c0.2,1.1,0.9,2.4,2,2.2C158.1,101.5,158.5,101.2,158.8,100.9 M183.7,114.5
			c-1.4-0.6-2.7-1.4-3.8-2.4c-3.4-3.2-3.3-8.4-3-13c0.1-2.3,0.4-4.6,0.9-6.8c0.7-2.9,2.1-5.7,4-8c-2,0.7-3.5,2.2-4.4,4.1
			c-0.8,1.9-1.4,3.9-1.6,5.9c-1,5.8-1.8,12.2,1.6,16.9c1.3,1.6,2.8,3,4.6,4.1c1.6,1,3.6,1.9,5.2,1L183.7,114.5 M121.8,120.6l0.4-3.5
			l0.7-6.7c0.4-3.3,0.7-6.6,0.9-10c0.2-3.5,0.3-7.1,0.3-10.6c-0.4-0.4-1,0.3-1.1,0.9l-0.7,5.7c-0.2,1.6-0.4,3.3-0.6,4.9
			c-0.7,5.5-1.1,11.1-1.2,16.6C120.5,119,120.7,120.4,121.8,120.6 M195,111c-0.1,0.4-0.1,0.8,0,1.2c0.1,0.4,0.6,0.6,1,0.5l0,0
			l7.2-31.2c-0.1-0.3-0.5-0.4-0.8-0.3c0,0-0.1,0-0.1,0.1c-0.3,0.2-0.4,0.6-0.5,0.9C199.4,91.7,197.1,101.3,195,111 M149.4,88.3
			c0,1,0,2.1,0,3.1l0.7,27.5c0,0.4,0.6,0.5,0.9,0.2c0.3-0.3,0.4-0.7,0.4-1.1c0.2-4.7,0.1-9.5-0.2-14.2l-0.7-14
			C150.4,89.2,150.1,88.2,149.4,88.3 M206,100.9c0.5,1,2.1,0.6,3.1,0l-1.3-10.6c0.1-0.2,0-0.5-0.3-0.6c-0.2-0.1-0.5,0-0.6,0.3
			c0,0.1,0,0.2,0,0.3l-1,9.3C205.8,100,205.9,100.4,206,100.9 M204.6,105.3c1.4,0.4,2.9,0.5,4.3,0.2c0.3-0.1,0.7-0.4,0.5-0.7
			l-3.3-0.4C205.4,104.3,204.4,104.6,204.6,105.3 M204.1,85.9c1.1-1,1.8-2.5,1.7-4.1c0-0.3-0.4-0.8-0.6-0.5
			C204.4,82.7,204,84.3,204.1,85.9 M164.6,95c-1,1.1-1.6,2.5-1.8,4c0,0.3,0.3,0.4,0.6,0.4C164.3,98.2,164.7,96.6,164.6,95
			 M211.3,95.7c0.1-0.9-0.2-1.7-0.9-2.3c-0.5,1.4-0.3,2.9,0.5,4.1C211.4,96.9,211.5,96.3,211.3,95.7 M198,114.3
			c-0.5-0.1-1,0.1-1.1,0.6v0.1c0,0.5,0.1,1,0.4,1.5c0.7-0.4,0.9-1.3,0.6-2 M194.8,114.8c-0.4,0.7-0.4,1.7,0.2,2.3
			c0.7-0.7,0.7-1.8,0.1-2.5 M204.9,89.6c-0.4-0.2-0.9,0.6-0.5,0.8c0.3,0,0.5-0.2,0.5-0.5C204.9,89.9,204.9,89.8,204.9,89.6
			L204.9,89.6z"/>
		<path class="st0" d="M266.4,121.5c-4.2,1.8-9.2,0.1-12.5-3.1c-3.3-3.2-5.1-7.5-6.5-11.9c-1.5,3.7-3.2,7.6-6.4,10
			c-2.9,2.1-6.6,2.6-10.1,2.9c-2.2,0.4-4.5,0.2-6.7-0.4c-2.1-0.7-4.1-2.6-4.2-4.8l-1.7-31.4c-0.2-1.4,0-2.8,0.4-4.1
			c0.5-1.1,1.4-2.1,2.4-2.8c4.2-3,10.2-2.8,14.8-0.4s8,6.6,10.6,11.1c0.7-8.2,7.8-14.3,16-13.6c2.2,0.2,4.2,0.8,6.1,1.9
			c4.7,2.7,7.6,7.7,8.7,13s0.7,10.7-0.1,16c-0.6,4.4-1.6,9-4.6,12.3C270.9,118.4,269,120.5,266.4,121.5 M263.7,114.2
			c1.7,0.3,3.4-0.5,4.3-2.1c2.6-3.7,2.7-8.4,2.6-12.9c-0.1-5.3-0.4-10.8-2.8-15.6c-0.8-1.6-2-3.2-3.7-3.3s-3.1,1.1-4.1,2.4
			c-2.2,3.1-3.9,6.5-4.9,10.2c-1.6,5-2.6,10.6-0.2,15.2C256.6,111.5,259.9,113.8,263.7,114.2 M241.4,105.2c0.6-0.8,1-1.6,1.4-2.5
			c0.3-1.4,0.2-2.9-0.1-4.3c-0.6-3.6-1.7-7.2-3.2-10.6s-4.1-6.2-7.4-8c-0.5-0.3-1.2-0.5-1.8-0.5c-0.7,0-1.2,0.6-1.2,1.2l1.5,31.6
			c0,0.6,0.4,1.4,0.9,1.2c0.6-1.6,2.7-1.8,4.2-2.5C238.2,109.9,239.9,107.5,241.4,105.2 M223.1,91.3c-0.1-1.7-0.4-3.8-1.9-4.6
			l1.9,23.2c0,1.3,0.3,2.5,0.8,3.7s1.6,2,2.9,2.2c0.4,0,0.5-0.6,0.3-0.9c-0.3-0.3-0.6-0.5-1-0.7c-1.3-0.8-1.5-2.5-1.6-4L223.1,91.3
			 M257.1,77.1c-2.3-0.2-4,2.1-5.1,4.1c-1.4,2.5-2.6,5.1-3.5,7.8c-0.6,1.9-1.1,4-0.1,5.8c0.8-0.4,0.9-1.4,1-2.3
			c0.7-5.2,3.8-9.8,7.1-13.9C257,78.3,257.2,77.7,257.1,77.1 M272.7,100.3c0.5-3.5,0.4-7.2-0.3-10.7c-0.1-0.6-0.5-1.3-1.1-1.3
			C271.4,92.4,271.9,96.4,272.7,100.3 M271.7,110.2c0.4-0.5,0.5-1.2,0.1-1.7c-0.9,1-1.5,2.1-1.9,3.4
			C270.8,111.9,271.6,111.2,271.7,110.2 M220.8,80.4c0,0.3,0.3,0.6,0.6,0.6c0.1,0,0.1,0,0.2,0c0.4-0.2,0.7-0.4,0.9-0.8
			c-0.4-0.4-1.1-0.4-1.5,0.1C220.9,80.4,220.9,80.4,220.8,80.4 M242.5,91.9c-0.3,0.6,0,1.3,0.6,1.5c0.3-0.5,0.2-1.1-0.3-1.4
			C242.8,92,242.7,91.9,242.5,91.9 M256.9,114.2c0,0.4,0.5,0.6,1,0.6C257.9,114.3,257.3,113.9,256.9,114.2L256.9,114.2L256.9,114.2z
			"/>
		<path class="st0" d="M28.8,126c-2.4,0.2-4.8,0-7.1-0.8c-1.1-0.4-2.4-1.2-2.4-2.4L19.7,89c-0.1-0.8,0.1-1.6,0.4-2.4
			c0.7-1.3,2.4-1.6,3.8-1.9c4.3-0.7,9.1-1.3,12.7,1.2c1.4,1,2.6,2.3,3.6,3.7c2.8,3.6,5.2,7.6,6.2,12.1c2.4,10.8-4.3,21.5-15.1,23.9
			C30.5,125.8,29.6,125.9,28.8,126 M29.1,120.3c0.3,0.2,0.7,0.3,1,0.2c3.3-0.5,6.1-3.1,7.7-6.1s2.2-6.4,2.8-9.7
			c0.2-1.1,0.4-2.3,0.4-3.4c0-5.5-4.5-10.3-9.7-12.3c-1.1-0.4-2.5-0.6-3.2,0.3c-0.3,0.5-0.4,1.2-0.4,1.8c0,9.5,0.4,19,1.1,28.5
			C28.9,119.8,29,120.1,29.1,120.3 M23.5,121c0.5-0.9,0.6-1.9,0.4-2.8c-0.1-1.3-0.2-2.6-0.2-3.9l-0.8-21.7c0.1-0.9-0.2-1.9-0.7-2.7
			c-0.5,1.9-0.7,3.8-0.6,5.8c-0.1,8.4,0.1,16.9,0.5,25.3L23.5,121 M42.4,112.5c0.5-0.3,0.6-0.9,0.3-1.4c-0.1-0.2-0.4-0.4-0.6-0.4
			c-0.4,0.5-0.6,1.1-0.4,1.7L42.4,112.5L42.4,112.5L42.4,112.5z"/>
		<path class="st0" d="M46.4,57.5c-0.6,1.6-1.3,3.2-2.7,4.1c-1.6,1.1-3.6,0.9-5.5,0.8l-12.4-1c-1.8-0.2-4.1-0.6-4.7-2.3
			c-0.2-0.9-0.2-1.8,0-2.7l6.5-33.5c0.2-1.7,0.8-3.4,1.6-4.9c1.7-2.5,4.8-3.7,7.8-3c1.1,0.2,2,1,2.3,2.1c0,0.7-0.2,1.4-0.6,1.9
			c-1.1,2.6-1.8,5.4-2.1,8.2l-3.7,23.9c-0.2,1.2,0.1,3,1.3,2.8c3.4-0.4,6.8-0.6,10.2-0.5c0.6,0,1.1,0.1,1.6,0.4
			C47.2,54.6,46.8,56.3,46.4,57.5 M30.1,20.4l-5.2,30.1c-0.3,1.6-0.5,3.3-0.6,5c-0.1,1.1,0.2,2.2,0.8,3.1s1.9,1.3,2.9,0.8
			c-2.3-4-1.5-8.9-0.7-13.4l5.4-29.2C31,16.8,30.3,18.8,30.1,20.4 M34.8,22.3c-1.1,2.8-1.7,5.7-2,8.7c-0.2,0.8-0.1,1.7,0.2,2.4
			C34.6,30,35.2,26.1,34.8,22.3 M34.7,18.5c-0.6,0.5-0.6,1.4-0.1,2c0.2,0.2,0.4,0.3,0.6,0.4c0.5-0.9,0.4-2-0.3-2.7 M32.7,56.6
			c0.3,0.3,0.8,0.3,1,0c0.1-0.1,0.1-0.1,0.1-0.2c-0.3-0.3-0.9-0.3-1.2,0.1C32.7,56.5,32.7,56.6,32.7,56.6 M32.5,36.3
			c0.3-0.1,0.5-0.4,0.5-0.7c0-0.1-0.1-0.2-0.2-0.3c-0.3,0-0.5,0.2-0.7,0.4C32,35.9,32.3,36.3,32.5,36.3L32.5,36.3z"/>
		<path class="st0" d="M83,20.5c1.3-1.7,4-1.5,5.7-0.3s2.7,3.2,3.6,5.2l9.2,20.1l1.3-28c0-0.6,0.1-1.2,0.5-1.7
			c0.4-0.3,0.9-0.5,1.4-0.5c1.6-0.4,3.3-0.5,5-0.1s2.9,1.8,3.1,3.5c-0.1,12.7-1.7,25.3-3.3,37.9c-0.3,2.2-0.7,4.7-2.2,6.3
			c-1.5,1.6-4.8,1.9-5.8-0.2L88.8,38.8c-0.9,7.5-2.2,14.8-4,22.1c-0.3,1.2-1.4,2.8-2.4,2.1c-0.9-0.6-2,0-3,0.1
			c-1.9,0.1-3.6-1.6-4.1-3.5c-0.3-1.9-0.2-3.9,0.3-5.8L82,23.1C82.1,22.1,82.5,21.2,83,20.5 M79.1,54.7c-0.2,1.9-0.3,4,0.9,5.4
			c2-11.2,3.9-22.5,5.7-33.8c0.2-1.4,0.4-3-0.6-4L84.5,25C82.1,34.7,80.3,44.7,79.1,54.7 M105.2,18c-1,10.3-1.5,20.7-1.7,31.1
			c0,0.5,0,1,0.2,1.4s0.7,0.7,1.2,0.5c0-11,0.6-21.9,1.7-32.8L105.2,18 M94,43.6c0.1-1-0.1-1.9-0.6-2.8L90.1,34
			c-0.1-0.2-0.2-0.4-0.4-0.5c-0.3-0.1-0.7,0.1-0.8,0.5v0.1c0,0.4,0.1,0.7,0.3,1l4,7.6C93.4,43.1,93.7,43.4,94,43.6 M90.7,29
			c0.8,1.5,1.8,3,2.9,4.4c-0.4-2.4-1.4-4.6-2.9-6.5C89.9,27.3,90.2,28.3,90.7,29L90.7,29z"/>
		<path class="st0" d="M75.1,114.7c1.2-8.8,1.3-17.8,0.3-26.7c-0.2-1.8,1.9-3.2,3.7-3s3.3,1.4,4.7,2.6l9.4,7.9
			c1.9,1.6,4.8-0.3,6.3-2.2c1.5-1.8,2.8-3.7,3.9-5.7c0.7-1.5,1.6-2.8,2.7-4s2.9-1.6,4.4-1.1c2,0.9,2.4,3.6,2.5,5.8l1,30.3
			c0.1,0.8,0,1.7-0.4,2.4s-1.3,0.9-1.9,0.5c-0.1,0-0.1-0.1-0.2-0.1c-1.1-1.3-3.1-0.7-4.7-0.3s-4-0.4-3.7-2
			c1.4-7.8,2.1-15.8,1.9-23.8l-5.8,7.2c-1,1.5-2.4,2.7-4.1,3.6c-1.7,0.7-4,0.2-4.7-1.4c-1.1-2.5-3-4.7-5.2-6.3
			c-0.3,5.7,0.3,11.5,1.6,17.1c0.4,1.7-0.9,3.3-2.4,4c-1.6,0.6-3.3,0.7-5,0.5c-1.2-0.1-2.6-0.2-3.5-1.1
			C74.8,117.8,75,116.2,75.1,114.7 M78.3,87.3c-0.2,1.1-0.3,2.3-0.2,3.4L78,113c0,1.4,0.1,3,1,4c1.1-1.6,1.1-3.7,1-5.7l-0.7-21.4
			C79.3,88.9,79.1,87.7,78.3,87.3 M108,114.9l0.6-10.4c0.1-1.3,0.1-2.6,0.2-3.9c0-2.6-0.1-5.1-0.2-7.7c-0.3-0.2-0.6-0.2-0.8,0.1l0,0
			c-0.2,0.3-0.3,0.6-0.2,1c-0.5,7.5-0.7,15-0.8,22.6c0.4,0.2,0.9,0,1.2-0.4C107.9,115.9,108,115.4,108,114.9 M89.9,98.7
			c-1.4-1.7-3.1-3-5-4c1.2,2.3,3,4.1,5.3,5.3C90.4,99.5,90.2,98.9,89.9,98.7 M82.9,93c0.3,0.9,1.3,1.4,2.2,1.2L84,92.8
			c-0.2-0.3-0.5-0.5-0.8-0.5C82.9,92.3,82.6,92.8,82.9,93 M91.8,97.4c-0.2,0.4,0,0.9,0.4,1.1c0.2,0.1,0.4,0.1,0.6,0
			C92.9,98,92.4,97.5,91.8,97.4L91.8,97.4L91.8,97.4z"/>
	</g>
</g>
</svg>
