<?xml version="1.0" encoding="utf-8"?>
<!-- Generator: Adobe Illustrator 19.2.1, SVG Export Plug-In . SVG Version: 6.00 Build 0)  -->
<svg version="1.1" id="Capa_1" xmlns="http://www.w3.org/2000/svg" xmlns:xlink="http://www.w3.org/1999/xlink" x="0px" y="0px"
	 viewBox="0 0 213.2 94.1" style="enable-background:new 0 0 213.2 94.1;" xml:space="preserve">
<style type="text/css">
	.st0{fill:#FFFFFF;}
	.st1{fill:#221E1F;}
	.st2{fill:#111516;}
	.st3{fill:url(#SVGID_1_);}
</style>
<g>
	
		<image style="overflow:visible;opacity:0.25;" width="220" height="103" xlink:href="751EA426403F05A0.png"  transform="matrix(1 0 0 1 -3.7632 0.4211)">
	</image>
	<g>
		<path class="st0" d="M201,75.1c0,0-33.2-6.7-97.6-6.7s-91.9,6.7-91.9,6.7V3.4H201V75.1z"/>
	</g>
</g>
<g>
	<g>
		<path class="st1" d="M124.4,19h12.9c7.1,0,9.9,4.7,9.9,9.5c0,4.8-2.8,9.5-9.9,9.5h-6.6v10.7h-6.3V19z M130.7,33h4.9
			c2.9,0,5.5-0.7,5.5-4.5c0-3.8-2.6-4.5-5.5-4.5h-4.9V33z"/>
		<path class="st1" d="M148.9,27.2h5.4v4h0.1c1-2.7,3.8-4.6,6.6-4.6c0.4,0,0.9,0.1,1.2,0.2v5.5c-0.5-0.1-1.4-0.2-2-0.2
			c-4.2,0-5.6,3.1-5.6,6.9v9.7h-5.7V27.2z"/>
		<path class="st1" d="M172.4,26.6c6.5,0,10.7,4.5,10.7,11.4c0,6.8-4.2,11.3-10.7,11.3c-6.5,0-10.7-4.5-10.7-11.3
			C161.7,31.1,165.9,26.6,172.4,26.6z M172.4,44.9c3.9,0,5-3.5,5-6.9c0-3.5-1.2-6.9-5-6.9c-3.8,0-5,3.5-5,6.9
			C167.4,41.4,168.5,44.9,172.4,44.9z"/>
	</g>
	<path class="st1" d="M46.9,40.6l-5.1-22.1h-8.6v28.2h5.5v-19c0-0.5,0-1.3,0-2.3c0-1,0-1.7,0-2.3l5.3,23.6h5.7L55,23
		c0,0.5,0,1.3,0,2.3c0,1,0,1.8,0,2.3v19h5.5V18.5H52L46.9,40.6z"/>
	<path class="st2" d="M78.7,43.7c-0.4,0.7-0.8,1.3-1.2,1.7c-0.4,0.4-1,0.7-1.6,0.9h7.9c0.5-0.9,0.8-1.7,0.9-2.5H78.7z"/>
	<path class="st1" d="M70.1,45.5c-1.5-1-2.3-2.7-2.4-5.1h16.4c0-2.1,0-3.7-0.2-4.8c-0.3-1.9-0.9-3.6-1.8-5c-1-1.6-2.3-2.8-3.9-3.6
		c-1.6-0.8-3.3-1.1-5.3-1.1c-3.3,0-6,1.1-8,3.4c-2.1,2.2-3.1,5.5-3.1,9.6c0,3,0.5,5.4,1.6,7.3h8.2C71.1,46.1,70.6,45.8,70.1,45.5
		 M69.5,32.5c0.8-0.9,2-1.4,3.5-1.4c1.4,0,2.6,0.4,3.5,1.3c0.9,0.9,1.5,2.1,1.6,3.8H67.9C68.1,34.7,68.7,33.4,69.5,32.5"/>
	<path class="st1" d="M106.4,33.5c0-2.9-1-4.9-2.9-6c-1.9-1.1-4.1-1.6-6.6-1.6c-3.8,0-6.5,1.1-8,3.2c-1,1.4-1.5,3.1-1.7,5.2h5.7
		c0.1-0.9,0.4-1.7,0.8-2.2c0.6-0.7,1.6-1.1,3-1.1c1.3,0,2.2,0.2,2.9,0.6c0.6,0.4,1,1.1,1,2.1c0,0.8-0.4,1.4-1.3,1.8
		c-0.5,0.2-1.3,0.4-2.3,0.6l-2,0.3c-2.3,0.3-4,0.8-5.2,1.6c-2.1,1.3-3.2,3.5-3.2,6.5c0,0.7,0.1,1.3,0.2,1.9h6.6c0,0,0,0,0,0
		c-0.6-0.5-0.9-1.3-0.9-2.3c0-1.2,0.5-2.1,1.4-2.7c0.5-0.3,1.4-0.6,2.7-0.9l1.3-0.3c0.7-0.1,1.2-0.3,1.6-0.4
		c0.4-0.2,0.8-0.4,1.1-0.6v2.4c0,2.1-0.6,3.6-1.7,4.4c-0.3,0.2-0.5,0.4-0.8,0.5h8.3c0-0.6,0-1.1,0-1.6V33.5z"/>
	<path class="st1" d="M115.3,20.2h-5.4V26H107v3.9h2.9v12.8c0,1.3,0.3,2.3,0.9,2.9c0.9,1,2.7,1.4,5.3,1.3l2.6-0.1v-4.1
		c-0.2,0-0.4,0-0.5,0c-0.2,0-0.4,0-0.5,0c-1.1,0-1.8-0.1-2-0.3c-0.2-0.2-0.3-0.7-0.3-1.6v-11h3.4V26h-3.4V20.2z"/>
	<linearGradient id="SVGID_1_" gradientUnits="userSpaceOnUse" x1="25.6932" y1="52.2844" x2="193.17" y2="52.2844">
		<stop  offset="9.803920e-03" style="stop-color:#FFFFFF"/>
		<stop  offset="5.108036e-02" style="stop-color:#FEE9D1"/>
		<stop  offset="0.1106" style="stop-color:#FCCD95"/>
		<stop  offset="0.1614" style="stop-color:#FAB869"/>
		<stop  offset="0.2007" style="stop-color:#F9AB4E"/>
		<stop  offset="0.2238" style="stop-color:#F9A644"/>
		<stop  offset="1" style="stop-color:#F9A644"/>
	</linearGradient>
	<rect x="33.2" y="46.6" class="st3" width="149.6" height="11.4"/>
	<g>
		<path class="st0" d="M97.4,49v5.9h-0.5v-0.7c-0.2,0.3-0.5,0.5-0.8,0.6C95.8,55,95.5,55,95.1,55c-0.6,0-1.1-0.2-1.5-0.7
			c-0.4-0.4-0.6-1-0.6-1.6c0-0.6,0.2-1.1,0.6-1.6c0.4-0.4,1-0.7,1.6-0.7c0.4,0,0.7,0.1,1,0.2c0.3,0.1,0.5,0.4,0.7,0.7V49H97.4z
			 M95.2,51.1c-0.3,0-0.6,0.1-0.8,0.2c-0.3,0.2-0.5,0.4-0.6,0.6c-0.2,0.3-0.2,0.6-0.2,0.9c0,0.3,0.1,0.6,0.2,0.9
			c0.2,0.3,0.4,0.5,0.6,0.6c0.3,0.2,0.5,0.2,0.8,0.2c0.3,0,0.6-0.1,0.9-0.2c0.3-0.2,0.5-0.4,0.6-0.6c0.1-0.3,0.2-0.6,0.2-0.9
			c0-0.5-0.2-0.9-0.5-1.2C96.1,51.2,95.7,51.1,95.2,51.1z"/>
		<path class="st0" d="M102.2,53.5l0.5,0.2c-0.2,0.3-0.3,0.5-0.5,0.7c-0.2,0.2-0.4,0.3-0.7,0.4c-0.2,0.1-0.5,0.1-0.8,0.1
			c-0.7,0-1.2-0.2-1.6-0.7c-0.4-0.5-0.6-1-0.6-1.5c0-0.5,0.2-1,0.5-1.4c0.4-0.5,1-0.8,1.7-0.8c0.7,0,1.3,0.3,1.7,0.8
			c0.3,0.4,0.5,0.9,0.5,1.5H99c0,0.5,0.2,0.9,0.5,1.2c0.3,0.3,0.7,0.5,1.1,0.5c0.2,0,0.4,0,0.6-0.1c0.2-0.1,0.4-0.2,0.5-0.3
			C101.9,54,102.1,53.8,102.2,53.5z M102.2,52.3c-0.1-0.3-0.2-0.5-0.3-0.7c-0.1-0.2-0.3-0.3-0.6-0.4c-0.2-0.1-0.5-0.2-0.7-0.2
			c-0.4,0-0.8,0.1-1.1,0.4c-0.2,0.2-0.4,0.5-0.5,0.9H102.2z"/>
		<path class="st0" d="M103.8,49h0.5v5.9h-0.5V49z"/>
		<path class="st0" d="M109.1,53.5l0.5,0.2c-0.2,0.3-0.3,0.5-0.5,0.7c-0.2,0.2-0.4,0.3-0.7,0.4c-0.2,0.1-0.5,0.1-0.8,0.1
			c-0.7,0-1.2-0.2-1.6-0.7c-0.4-0.5-0.6-1-0.6-1.5c0-0.5,0.2-1,0.5-1.4c0.4-0.5,1-0.8,1.7-0.8c0.7,0,1.3,0.3,1.7,0.8
			c0.3,0.4,0.5,0.9,0.5,1.5h-3.8c0,0.5,0.2,0.9,0.5,1.2c0.3,0.3,0.7,0.5,1.1,0.5c0.2,0,0.4,0,0.6-0.1c0.2-0.1,0.4-0.2,0.5-0.3
			C108.7,54,108.9,53.8,109.1,53.5z M109.1,52.3c-0.1-0.3-0.2-0.5-0.3-0.7c-0.1-0.2-0.3-0.3-0.6-0.4c-0.2-0.1-0.5-0.2-0.7-0.2
			c-0.4,0-0.8,0.1-1.1,0.4c-0.2,0.2-0.4,0.5-0.5,0.9H109.1z"/>
		<path class="st0" d="M110.9,48.9c0.1,0,0.2,0,0.3,0.1c0.1,0.1,0.1,0.2,0.1,0.3c0,0.1,0,0.2-0.1,0.3s-0.2,0.1-0.3,0.1
			c-0.1,0-0.2,0-0.3-0.1c-0.1-0.1-0.1-0.2-0.1-0.3c0-0.1,0-0.2,0.1-0.3C110.6,48.9,110.7,48.9,110.9,48.9z M110.6,50.6h0.5v4.3h-0.5
			V50.6z"/>
		<path class="st0" d="M112.8,49.1h0.5v1.6h0.9v0.5h-0.9v3.8h-0.5v-3.8H112v-0.5h0.7V49.1z"/>
		<path class="st0" d="M119.3,50.6v4.3h-0.5v-0.7c-0.2,0.3-0.5,0.5-0.8,0.6c-0.3,0.1-0.6,0.2-0.9,0.2c-0.6,0-1.1-0.2-1.5-0.7
			c-0.4-0.4-0.6-1-0.6-1.6c0-0.6,0.2-1.1,0.6-1.6c0.4-0.4,0.9-0.7,1.6-0.7c0.4,0,0.7,0.1,1,0.2c0.3,0.1,0.5,0.4,0.7,0.7v-0.8H119.3z
			 M117.1,51.1c-0.3,0-0.6,0.1-0.8,0.2c-0.3,0.2-0.5,0.4-0.6,0.6c-0.2,0.3-0.2,0.6-0.2,0.9c0,0.3,0.1,0.6,0.2,0.9
			c0.2,0.3,0.4,0.5,0.6,0.6c0.3,0.2,0.5,0.2,0.8,0.2c0.3,0,0.6-0.1,0.9-0.2c0.3-0.2,0.5-0.4,0.6-0.6c0.1-0.3,0.2-0.6,0.2-0.9
			c0-0.5-0.2-0.9-0.5-1.2C117.9,51.2,117.5,51.1,117.1,51.1z"/>
		<path class="st0" d="M120.5,50.6h0.5v0.7c0.2-0.3,0.4-0.5,0.6-0.6c0.3-0.2,0.6-0.3,0.9-0.3c0.2,0,0.4,0,0.6,0.1
			c0.2,0.1,0.3,0.2,0.5,0.3c0.1,0.1,0.2,0.3,0.3,0.6c0.2-0.3,0.4-0.6,0.7-0.8c0.3-0.2,0.6-0.3,0.9-0.3c0.3,0,0.6,0.1,0.8,0.2
			c0.2,0.1,0.4,0.4,0.5,0.6c0.1,0.3,0.2,0.7,0.2,1.2v2.3h-0.6v-2.3c0-0.5,0-0.8-0.1-0.9c-0.1-0.2-0.2-0.3-0.3-0.4
			c-0.2-0.1-0.3-0.2-0.6-0.2c-0.3,0-0.5,0.1-0.7,0.2c-0.2,0.2-0.4,0.4-0.5,0.6c-0.1,0.3-0.2,0.7-0.2,1.3v1.7h-0.5v-2.2
			c0-0.5,0-0.9-0.1-1c-0.1-0.2-0.2-0.3-0.3-0.4c-0.2-0.1-0.3-0.2-0.6-0.2c-0.3,0-0.5,0.1-0.7,0.2c-0.2,0.2-0.4,0.4-0.5,0.6
			c-0.1,0.3-0.2,0.7-0.2,1.2v1.8h-0.5V50.6z"/>
		<path class="st0" d="M130.1,50.5c0.7,0,1.2,0.2,1.6,0.7c0.4,0.4,0.6,0.9,0.6,1.5c0,0.6-0.2,1.1-0.6,1.6c-0.4,0.4-0.9,0.7-1.6,0.7
			c-0.7,0-1.2-0.2-1.6-0.7c-0.4-0.4-0.6-1-0.6-1.6c0-0.6,0.2-1.1,0.6-1.5C128.9,50.8,129.4,50.5,130.1,50.5z M130.1,51.1
			c-0.5,0-0.8,0.2-1.2,0.5c-0.3,0.3-0.5,0.7-0.5,1.2c0,0.3,0.1,0.6,0.2,0.9c0.1,0.3,0.4,0.5,0.6,0.6c0.3,0.1,0.5,0.2,0.8,0.2
			c0.3,0,0.6-0.1,0.8-0.2c0.3-0.1,0.5-0.4,0.6-0.6c0.1-0.3,0.2-0.6,0.2-0.9c0-0.5-0.2-0.9-0.5-1.2C130.9,51.2,130.5,51.1,130.1,51.1
			z"/>
		<path class="st0" d="M135.4,51.1l-0.4,0.4c-0.3-0.3-0.6-0.4-0.9-0.4c-0.2,0-0.3,0.1-0.5,0.2c-0.1,0.1-0.2,0.3-0.2,0.4
			c0,0.1,0.1,0.3,0.2,0.4c0.1,0.1,0.3,0.3,0.7,0.5c0.4,0.2,0.7,0.4,0.8,0.6c0.1,0.2,0.2,0.4,0.2,0.7c0,0.4-0.1,0.6-0.4,0.9
			c-0.2,0.2-0.6,0.4-0.9,0.4c-0.2,0-0.5-0.1-0.7-0.2c-0.2-0.1-0.4-0.3-0.6-0.4l0.3-0.4c0.3,0.3,0.6,0.5,0.9,0.5
			c0.2,0,0.4-0.1,0.6-0.2c0.2-0.1,0.2-0.3,0.2-0.5c0-0.2-0.1-0.3-0.2-0.4c-0.1-0.1-0.3-0.3-0.7-0.5c-0.4-0.2-0.6-0.4-0.8-0.6
			c-0.1-0.2-0.2-0.4-0.2-0.7c0-0.3,0.1-0.6,0.3-0.8c0.2-0.2,0.5-0.3,0.8-0.3C134.7,50.5,135,50.7,135.4,51.1z"/>
		<path class="st0" d="M140.8,51.1l-0.4,0.4c-0.3-0.3-0.6-0.4-0.9-0.4c-0.2,0-0.3,0.1-0.5,0.2c-0.1,0.1-0.2,0.3-0.2,0.4
			c0,0.1,0.1,0.3,0.2,0.4c0.1,0.1,0.3,0.3,0.7,0.5c0.4,0.2,0.7,0.4,0.8,0.6c0.1,0.2,0.2,0.4,0.2,0.7c0,0.4-0.1,0.6-0.4,0.9
			c-0.2,0.2-0.6,0.4-0.9,0.4c-0.2,0-0.5-0.1-0.7-0.2c-0.2-0.1-0.4-0.3-0.6-0.4l0.3-0.4c0.3,0.3,0.6,0.5,0.9,0.5
			c0.2,0,0.4-0.1,0.6-0.2c0.2-0.1,0.2-0.3,0.2-0.5c0-0.2-0.1-0.3-0.2-0.4c-0.1-0.1-0.3-0.3-0.7-0.5c-0.4-0.2-0.6-0.4-0.8-0.6
			c-0.1-0.2-0.2-0.4-0.2-0.7c0-0.3,0.1-0.6,0.3-0.8c0.2-0.2,0.5-0.3,0.8-0.3C140,50.5,140.4,50.7,140.8,51.1z"/>
		<path class="st0" d="M141.7,50.6h0.5v2c0,0.5,0,0.8,0.1,1c0.1,0.3,0.2,0.5,0.5,0.6c0.2,0.2,0.5,0.2,0.8,0.2c0.3,0,0.6-0.1,0.8-0.2
			c0.2-0.1,0.4-0.3,0.4-0.6c0.1-0.2,0.1-0.5,0.1-1v-2h0.6v2.1c0,0.6-0.1,1-0.2,1.3c-0.1,0.3-0.3,0.5-0.6,0.7c-0.3,0.2-0.6,0.3-1,0.3
			c-0.4,0-0.8-0.1-1-0.3c-0.3-0.2-0.5-0.4-0.6-0.7c-0.1-0.3-0.2-0.8-0.2-1.4V50.6z"/>
		<path class="st0" d="M148.9,50.6h0.5v0.8c0.2-0.3,0.5-0.5,0.7-0.7c0.3-0.1,0.6-0.2,0.9-0.2c0.6,0,1.1,0.2,1.6,0.7
			c0.4,0.4,0.6,1,0.6,1.6c0,0.6-0.2,1.2-0.6,1.6c-0.4,0.4-0.9,0.7-1.5,0.7c-0.3,0-0.7-0.1-0.9-0.2c-0.3-0.1-0.5-0.4-0.8-0.6v2.3
			h-0.5V50.6z M151.1,51.1c-0.5,0-0.9,0.2-1.2,0.5c-0.3,0.3-0.5,0.7-0.5,1.2c0,0.3,0.1,0.6,0.2,0.9c0.1,0.3,0.4,0.5,0.6,0.6
			c0.3,0.2,0.6,0.2,0.9,0.2c0.3,0,0.6-0.1,0.8-0.2c0.3-0.2,0.5-0.4,0.6-0.6c0.2-0.3,0.2-0.6,0.2-0.9c0-0.3-0.1-0.6-0.2-0.9
			c-0.2-0.3-0.4-0.5-0.6-0.6C151.7,51.1,151.4,51.1,151.1,51.1z"/>
		<path class="st0" d="M158.6,50.6v4.3h-0.5v-0.7c-0.2,0.3-0.5,0.5-0.8,0.6c-0.3,0.1-0.6,0.2-0.9,0.2c-0.6,0-1.1-0.2-1.5-0.7
			c-0.4-0.4-0.6-1-0.6-1.6c0-0.6,0.2-1.1,0.6-1.6c0.4-0.4,1-0.7,1.6-0.7c0.4,0,0.7,0.1,1,0.2c0.3,0.1,0.5,0.4,0.7,0.7v-0.8H158.6z
			 M156.4,51.1c-0.3,0-0.6,0.1-0.8,0.2c-0.3,0.2-0.5,0.4-0.6,0.6c-0.2,0.3-0.2,0.6-0.2,0.9c0,0.3,0.1,0.6,0.2,0.9
			c0.2,0.3,0.4,0.5,0.6,0.6c0.3,0.2,0.5,0.2,0.8,0.2c0.3,0,0.6-0.1,0.9-0.2c0.3-0.2,0.5-0.4,0.6-0.6c0.1-0.3,0.2-0.6,0.2-0.9
			c0-0.5-0.2-0.9-0.5-1.2C157.3,51.2,156.9,51.1,156.4,51.1z"/>
		<path class="st0" d="M159.8,49h0.5v5.9h-0.5V49z"/>
		<path class="st0" d="M165.7,50.6v4.3h-0.5v-0.7c-0.2,0.3-0.5,0.5-0.8,0.6c-0.3,0.1-0.6,0.2-0.9,0.2c-0.6,0-1.1-0.2-1.5-0.7
			c-0.4-0.4-0.6-1-0.6-1.6c0-0.6,0.2-1.1,0.6-1.6c0.4-0.4,1-0.7,1.6-0.7c0.4,0,0.7,0.1,1,0.2c0.3,0.1,0.5,0.4,0.7,0.7v-0.8H165.7z
			 M163.5,51.1c-0.3,0-0.6,0.1-0.8,0.2c-0.3,0.2-0.5,0.4-0.6,0.6c-0.2,0.3-0.2,0.6-0.2,0.9c0,0.3,0.1,0.6,0.2,0.9
			c0.2,0.3,0.4,0.5,0.6,0.6c0.3,0.2,0.5,0.2,0.8,0.2c0.3,0,0.6-0.1,0.9-0.2c0.3-0.2,0.5-0.4,0.6-0.6c0.1-0.3,0.2-0.6,0.2-0.9
			c0-0.5-0.2-0.9-0.5-1.2C164.4,51.2,164,51.1,163.5,51.1z"/>
		<path class="st0" d="M171.2,49v5.9h-0.5v-0.7c-0.2,0.3-0.5,0.5-0.8,0.6c-0.3,0.1-0.6,0.2-0.9,0.2c-0.6,0-1.1-0.2-1.5-0.7
			c-0.4-0.4-0.6-1-0.6-1.6c0-0.6,0.2-1.1,0.6-1.6c0.4-0.4,1-0.7,1.6-0.7c0.4,0,0.7,0.1,1,0.2c0.3,0.1,0.5,0.4,0.7,0.7V49H171.2z
			 M169,51.1c-0.3,0-0.6,0.1-0.8,0.2c-0.3,0.2-0.5,0.4-0.6,0.6c-0.2,0.3-0.2,0.6-0.2,0.9c0,0.3,0.1,0.6,0.2,0.9
			c0.2,0.3,0.4,0.5,0.6,0.6c0.3,0.2,0.5,0.2,0.8,0.2c0.3,0,0.6-0.1,0.9-0.2c0.3-0.2,0.5-0.4,0.6-0.6c0.1-0.3,0.2-0.6,0.2-0.9
			c0-0.5-0.2-0.9-0.5-1.2C169.9,51.2,169.5,51.1,169,51.1z"/>
		<path class="st0" d="M176.7,50.6v4.3h-0.5v-0.7c-0.2,0.3-0.5,0.5-0.8,0.6c-0.3,0.1-0.6,0.2-0.9,0.2c-0.6,0-1.1-0.2-1.5-0.7
			c-0.4-0.4-0.6-1-0.6-1.6c0-0.6,0.2-1.1,0.6-1.6c0.4-0.4,1-0.7,1.6-0.7c0.4,0,0.7,0.1,1,0.2c0.3,0.1,0.5,0.4,0.7,0.7v-0.8H176.7z
			 M174.5,51.1c-0.3,0-0.6,0.1-0.8,0.2c-0.3,0.2-0.5,0.4-0.6,0.6c-0.2,0.3-0.2,0.6-0.2,0.9c0,0.3,0.1,0.6,0.2,0.9
			c0.2,0.3,0.4,0.5,0.6,0.6c0.3,0.2,0.5,0.2,0.8,0.2c0.3,0,0.6-0.1,0.9-0.2c0.3-0.2,0.5-0.4,0.6-0.6c0.1-0.3,0.2-0.6,0.2-0.9
			c0-0.5-0.2-0.9-0.5-1.2C175.4,51.2,175,51.1,174.5,51.1z"/>
		<path class="st0" d="M177.7,50.6h0.6v0.6c0.2-0.2,0.3-0.4,0.5-0.6c0.2-0.1,0.4-0.2,0.6-0.2c0.2,0,0.3,0,0.5,0.1l-0.3,0.5
			c-0.1-0.1-0.2-0.1-0.3-0.1c-0.2,0-0.4,0.1-0.5,0.2c-0.2,0.1-0.3,0.4-0.4,0.7c-0.1,0.2-0.1,0.7-0.1,1.5v1.4h-0.6V50.6z"/>
	</g>
</g>
</svg>
