<svg id="Capa_1" data-name="Capa 1" xmlns="http://www.w3.org/2000/svg" xmlns:xlink="http://www.w3.org/1999/xlink" viewBox="0 0 148.83 70.72"><defs><style>.cls-1{mask:url(#mask);}.cls-2{mix-blend-mode:multiply;fill:url(#Fade_to_Black_1);}.cls-3{fill:url(#radial-gradient);}.cls-4{fill:#dc9e53;}.cls-5{fill:url(#radial-gradient-2);}.cls-6{fill:url(#Degradado_sin_nombre_21);}.cls-7{fill:url(#linear-gradient);}.cls-8{mask:url(#mask-2);}.cls-9{fill:url(#Fade_to_Black);}.cls-10{fill:#555b63;}.cls-11{fill:#262323;}.cls-12{filter:url(#luminosity-noclip-2);}.cls-13{filter:url(#luminosity-noclip);}</style><filter id="luminosity-noclip" x="8252.84" y="-8256.42" width="-32766" height="32766" filterUnits="userSpaceOnUse" color-interpolation-filters="sRGB"><feFlood flood-color="#fff" result="bg"/><feBlend in="SourceGraphic" in2="bg"/></filter><mask id="mask" x="8252.84" y="-8256.42" width="-32766" height="32766" maskUnits="userSpaceOnUse"><g class="cls-13"/></mask><linearGradient id="Fade_to_Black_1" x1="15.23" y1="23.67" x2="15.23" y2="23.67" gradientUnits="userSpaceOnUse"><stop offset="0" stop-color="#fff"/><stop offset="0.06" stop-color="#dadada"/><stop offset="0.16" stop-color="#a7a7a7"/><stop offset="0.26" stop-color="#7b7b7b"/><stop offset="0.37" stop-color="#555"/><stop offset="0.48" stop-color="#363636"/><stop offset="0.59" stop-color="#1e1e1e"/><stop offset="0.71" stop-color="#0d0d0d"/><stop offset="0.84" stop-color="#030303"/><stop offset="1"/></linearGradient><radialGradient id="radial-gradient" cx="47.33" cy="37.47" r="41.62" gradientUnits="userSpaceOnUse"><stop offset="0" stop-color="#255163"/><stop offset="1" stop-color="#010302"/></radialGradient><radialGradient id="radial-gradient-2" cx="50.99" cy="22.52" r="12.32" gradientUnits="userSpaceOnUse"><stop offset="0.55" stop-color="#4fa9c2"/><stop offset="1" stop-color="#2d79b5"/></radialGradient><radialGradient id="Degradado_sin_nombre_21" cx="32.33" cy="30.04" r="49.17" gradientUnits="userSpaceOnUse"><stop offset="0.01" stop-color="#010302"/><stop offset="0.34" stop-color="#343236"/></radialGradient><linearGradient id="linear-gradient" x1="22.67" y1="44.52" x2="66" y2="44.52" gradientUnits="userSpaceOnUse"><stop offset="0" stop-color="#c02d2d"/><stop offset="0.49" stop-color="#9a2428"/><stop offset="1" stop-color="#7f2022"/></linearGradient><filter id="luminosity-noclip-2" x="15.23" y="23.67" width="0" height="0" filterUnits="userSpaceOnUse" color-interpolation-filters="sRGB"><feFlood flood-color="#fff" result="bg"/><feBlend in="SourceGraphic" in2="bg"/></filter><mask id="mask-2" x="-2.95" y="13.3" width="0" height="0"><g class="cls-12"><g transform="translate(-18.18 -10.36)"><g class="cls-1"><path class="cls-2" d="M15.23,23.67"/></g></g></g></mask><linearGradient id="Fade_to_Black" x1="15.23" y1="23.67" x2="15.23" y2="23.67" gradientUnits="userSpaceOnUse"><stop offset="0" stop-color="#221d1f"/><stop offset="0.09" stop-color="#221d1f"/><stop offset="1" stop-color="#221d1f"/></linearGradient></defs><title>logoMP</title><path class="cls-3" d="M65.76,33.14s0.52-8.85-6.15-14.21c-0.84-.67-2.1,2.55-2.1,2.55l-2.25,8.87a6.47,6.47,0,0,1,2,.11c2.68,2.17,2.6,6.56,1.75,9.48-1.24,4.25-5.78,15-24.43,14.36,13.73,1.53,21.27-.34,29.91-14.07A48.48,48.48,0,0,1,65.76,33.14Z" transform="translate(-18.18 -10.36)"/><path class="cls-4" d="M21.7,21.12c-5.34,7.84-5.16,20.2,4.45,26.71,11.77,8,23.69-1.07,23.69-1.07S24,43.74,23.3,27c0.17-4.49,3.18-14.08,15.21-15.68C39,11,39.5,10.75,40,10.47,32,11.21,24.93,15.76,21.7,21.12Z" transform="translate(-18.18 -10.36)"/><path class="cls-5" d="M61.58,20.72C55.33,12.39,47.3,9.78,40,10.47c-0.46.28-.94,0.57-1.45,0.85a26.4,26.4,0,0,1,2.69-.22S50,11.39,53,15.6c2.56,3.59,3,8.45,0,14.6,5.52,5.88,7.12,4.27,7.12,4.27S66.56,28.2,61.58,20.72Z" transform="translate(-18.18 -10.36)"/><path class="cls-6" d="M44.77,11.28a25.26,25.26,0,0,0-6.2,0c-0.44.24-.89,0.49-1.38,0.73,0.49-.24.94-0.49,1.38-0.73C31.9,12.13,26.12,16,23.73,23.73c-0.89,4.2-1.43,13.59,14.34,20-2.53-1-4.92-5.17-5.79-7.5-4-10.8,5.38-19.93,15.5-18.35,2.45,0.38,5.72,1.64,7.48,3.48C54.63,18.39,54,12.39,44.77,11.28Z" transform="translate(-18.18 -10.36)"/><path class="cls-7" d="M22.67,48S28.6,60.89,48.44,57.5c0,0,20.3-5.51,17.25-26.53C64.5,41.82,58.57,51.7,45.85,53.73,31.29,56.06,24.87,51.23,22.67,48Z" transform="translate(-18.18 -10.36)"/><g class="cls-8"><path class="cls-9" d="M15.23,23.67" transform="translate(-18.18 -10.36)"/></g><path class="cls-10" d="M126.37,57.9H116.1V33.43L104,47.6h-1L90.85,33.43V57.9H80.94V15.66h7.85l14.83,15.85,14.89-15.85h7.85V57.9Z" transform="translate(-18.18 -10.36)"/><path class="cls-10" d="M167,28.95a13.44,13.44,0,0,1-.81,4.59,12.22,12.22,0,0,1-2.61,4.18,13,13,0,0,1-4.86,3.14,19.64,19.64,0,0,1-7.21,1.2H145V57.9H134.13V15.66h17.39a19.44,19.44,0,0,1,7.21,1.22A13.05,13.05,0,0,1,163.59,20a12.27,12.27,0,0,1,2.61,4.24A13.91,13.91,0,0,1,167,28.95ZM154,29q0-3-1.78-4.13c-1.19-.74-1.47-1.11-4.54-1.11H145V33.95h2.74a7.67,7.67,0,0,0,3-.4,4,4,0,0,0,2.47-1.46A5.26,5.26,0,0,0,154,29Z" transform="translate(-18.18 -10.36)"/><path class="cls-11" d="M24.37,71.93h0.92v6.85h-1V73.45L22.19,76.1H22l-2.13-2.65v5.33h-1V71.93h0.93l2.28,2.81Z" transform="translate(-18.18 -10.36)"/><path class="cls-11" d="M33.5,76.61H30.33a1.47,1.47,0,0,0,.43,1,1.43,1.43,0,0,0,1,.38,2.68,2.68,0,0,0,1.63-.55v0.87a3,3,0,0,1-.82.39,3.43,3.43,0,0,1-.95.12,2.13,2.13,0,0,1-1.21-.31,2.26,2.26,0,0,1-.74-0.83,2.54,2.54,0,0,1-.28-1.21A2.4,2.4,0,0,1,30,74.83a2,2,0,0,1,1.52-.64,1.79,1.79,0,0,1,1.43.63,2.51,2.51,0,0,1,.53,1.68v0.11Zm-3.15-.53h2.27a1.25,1.25,0,0,0-.32-0.82A1,1,0,0,0,31.53,75a1.1,1.1,0,0,0-.79.29A1.43,1.43,0,0,0,30.34,76.07Z" transform="translate(-18.18 -10.36)"/><path class="cls-11" d="M40.31,76.07V78q0,0.23.16,0.23A1.08,1.08,0,0,0,41,78v0.54a2.9,2.9,0,0,1-.49.27,1.05,1.05,0,0,1-.38.07,0.6,0.6,0,0,1-.68-0.45,1.94,1.94,0,0,1-1.21.44,1.07,1.07,0,0,1-1.1-1.09A1.1,1.1,0,0,1,37.42,77a2.08,2.08,0,0,1,.87-0.53l1.14-.39V75.83A0.72,0.72,0,0,0,38.62,75a2,2,0,0,0-1.42.76v-1a1.85,1.85,0,0,1,1.5-.61,1.73,1.73,0,0,1,1.17.38,1.21,1.21,0,0,1,.26.33,1.17,1.17,0,0,1,.15.41A6.07,6.07,0,0,1,40.31,76.07Zm-0.88,1.82V76.55l-0.6.23a2,2,0,0,0-.64.37,0.66,0.66,0,0,0,0,.91,0.63,0.63,0,0,0,.46.18A1.12,1.12,0,0,0,39.43,77.89Z" transform="translate(-18.18 -10.36)"/><path class="cls-11" d="M44.14,75l1.68-1.65v0.93h1.43v0.8H45.82v2.21a0.63,0.63,0,0,0,.64.77,2,2,0,0,0,1-.32v0.83a2.26,2.26,0,0,1-1.12.29,1.49,1.49,0,0,1-1-.36,1,1,0,0,1-.21-0.24A1.27,1.27,0,0,1,45,77.91a3.93,3.93,0,0,1-.06-0.83v-2H44.14V75Z" transform="translate(-18.18 -10.36)"/><path class="cls-11" d="M61.28,78.78l-0.8-.94a4.25,4.25,0,0,1-.35.3h0a3.2,3.2,0,0,1-.86.5,2.59,2.59,0,0,1-1,.21,1.7,1.7,0,0,1-1.21-.46,1.49,1.49,0,0,1-.5-1.13,1.6,1.6,0,0,1,.24-0.87,3,3,0,0,1,.79-0.79l0,0a4.89,4.89,0,0,1,.56-0.37,2.4,2.4,0,0,1-.78-1.59,1.47,1.47,0,0,1,.48-1.14,1.76,1.76,0,0,1,1.24-.44,1.78,1.78,0,0,1,1.23.43,1.39,1.39,0,0,1,.48,1.09,2.29,2.29,0,0,1-1.2,1.75l-0.07.05,1,1.1a4.64,4.64,0,0,0,.74-1.1h1a6.22,6.22,0,0,1-1.12,1.8l1.39,1.61H61.28Zm-1.62-1.42,0.22-.2-1.11-1.28-0.43.3a1.38,1.38,0,0,0-.77,1,0.62,0.62,0,0,0,.25.5,0.92,0.92,0,0,0,.6.21A1.53,1.53,0,0,0,59,77.77,2.3,2.3,0,0,0,59.66,77.36ZM59,74.72l0.37-.27a1,1,0,0,0,.52-0.86,0.65,0.65,0,0,0-.22-0.5,0.86,0.86,0,0,0-1.09,0,0.6,0.6,0,0,0-.21.47,1.28,1.28,0,0,0,.16.59A2.19,2.19,0,0,0,59,74.72Z" transform="translate(-18.18 -10.36)"/><path class="cls-11" d="M72.1,78.78V71.92h2.17a2.24,2.24,0,0,1,1.56.53,1.83,1.83,0,0,1,.58,1.42,1.9,1.9,0,0,1-.3,1.06,1.71,1.71,0,0,1-.82.67,4.17,4.17,0,0,1-1.49.21H73.08v3h-1Zm2-6h-1v2.14h1.07a1.36,1.36,0,0,0,.92-0.28,1,1,0,0,0,.32-0.81A1.06,1.06,0,0,0,74.1,72.79Z" transform="translate(-18.18 -10.36)"/><path class="cls-11" d="M83,76.07V78q0,0.23.16,0.23a1.08,1.08,0,0,0,.5-0.24v0.54a2.9,2.9,0,0,1-.49.27,1.05,1.05,0,0,1-.38.07,0.6,0.6,0,0,1-.68-0.45,1.94,1.94,0,0,1-1.21.44,1.07,1.07,0,0,1-1.1-1.09A1.1,1.1,0,0,1,80.11,77,2.08,2.08,0,0,1,81,76.46l1.14-.39V75.83A0.72,0.72,0,0,0,81.31,75a2,2,0,0,0-1.42.76v-1a1.85,1.85,0,0,1,1.5-.61,1.73,1.73,0,0,1,1.17.38,1.21,1.21,0,0,1,.26.33,1.17,1.17,0,0,1,.15.41A6.07,6.07,0,0,1,83,76.07Zm-0.88,1.82V76.55l-0.6.23a2,2,0,0,0-.64.37,0.66,0.66,0,0,0,0,.91,0.63,0.63,0,0,0,.46.18A1.12,1.12,0,0,0,82.12,77.89Z" transform="translate(-18.18 -10.36)"/><path class="cls-11" d="M90.85,77.73v0.88a3.75,3.75,0,0,1-1.31.25,2.17,2.17,0,0,1-2.32-2.31,2.41,2.41,0,0,1,.61-1.72,2.11,2.11,0,0,1,1.61-.65,2.68,2.68,0,0,1,.63.07,4.06,4.06,0,0,1,.68.25v1A2.37,2.37,0,0,0,89.49,75a1.28,1.28,0,0,0-1,.42,1.54,1.54,0,0,0-.39,1.08,1.46,1.46,0,0,0,.42,1.1,1.55,1.55,0,0,0,1.13.41A3,3,0,0,0,90.85,77.73Z" transform="translate(-18.18 -10.36)"/><path class="cls-11" d="M94.87,71.93h0.89v6.85H94.87V71.93Zm2.94,2.34h1.06l-1.92,2.21,2.32,2.3h-1.2l-2.26-2.3Z" transform="translate(-18.18 -10.36)"/><path class="cls-11" d="M103.16,72.37a0.52,0.52,0,0,1,.38.15,0.5,0.5,0,0,1,.16.37,0.54,0.54,0,0,1-.53.53,0.5,0.5,0,0,1-.36-0.16,0.51,0.51,0,0,1-.16-0.37,0.51,0.51,0,0,1,.16-0.37A0.5,0.5,0,0,1,103.16,72.37Zm-0.44,1.9h0.89v4.51h-0.89V74.27Z" transform="translate(-18.18 -10.36)"/><path class="cls-11" d="M108.81,74.27v0.57a1.79,1.79,0,0,1,1.36-.66,1.49,1.49,0,0,1,.78.22,1.42,1.42,0,0,1,.55.6,2.86,2.86,0,0,1,.19,1.2v2.58H110.8V76.21a1.75,1.75,0,0,0-.21-1,0.81,0.81,0,0,0-.71-0.3,1.29,1.29,0,0,0-1.07.63v3.22h-0.91V74.27h0.91Z" transform="translate(-18.18 -10.36)"/><path class="cls-11" d="M115.72,75.83a1.38,1.38,0,0,1,.53-1.14,2.25,2.25,0,0,1,1.44-.42h1.86V75h-0.91a1.88,1.88,0,0,1,.37.49,1.18,1.18,0,0,1,.1.5,1.36,1.36,0,0,1-.2.69,1.42,1.42,0,0,1-.52.52,3.15,3.15,0,0,1-1,.29q-0.51.07-.51,0.35a0.3,0.3,0,0,0,.19.26,3,3,0,0,0,.68.21,7.44,7.44,0,0,1,1.07.28,1.4,1.4,0,0,1,.43.29,1.1,1.1,0,0,1,.32.81,1.18,1.18,0,0,1-.57,1,2.71,2.71,0,0,1-1.53.38,2.74,2.74,0,0,1-1.54-.39,1.19,1.19,0,0,1-.58-1,1.21,1.21,0,0,1,1.13-1.18,0.78,0.78,0,0,1-.45-0.57,0.52,0.52,0,0,1,.19-0.39,1.19,1.19,0,0,1,.52-0.26A1.48,1.48,0,0,1,115.72,75.83ZM117.18,79a1.31,1.31,0,0,0-.74.19,0.57,0.57,0,0,0-.29.49q0,0.7,1.26.7a2,2,0,0,0,.92-0.17,0.54,0.54,0,0,0,.33-0.49,0.59,0.59,0,0,0-.41-0.51A2.46,2.46,0,0,0,117.18,79ZM117.39,75a0.86,0.86,0,0,0-.62.24,0.79,0.79,0,0,0-.25.59,0.74,0.74,0,0,0,.25.58,0.9,0.9,0,0,0,.63.23,0.89,0.89,0,0,0,.63-0.23,0.76,0.76,0,0,0,.25-0.58,0.77,0.77,0,0,0-.26-0.59A0.9,0.9,0,0,0,117.39,75Z" transform="translate(-18.18 -10.36)"/><path class="cls-11" d="M132.87,75.41h2.3v2.9a6.27,6.27,0,0,1-2.51.55,3.73,3.73,0,0,1-2.72-1,3.29,3.29,0,0,1-1-2.45A3.41,3.41,0,0,1,130,72.86a3.65,3.65,0,0,1,2.64-1,4.7,4.7,0,0,1,1.1.12,9.06,9.06,0,0,1,1.31.46v1a4.82,4.82,0,0,0-2.43-.71,2.58,2.58,0,0,0-1.89.76,2.71,2.71,0,0,0,0,3.79,2.74,2.74,0,0,0,2,.74,4.62,4.62,0,0,0,1.41-.27l0.09,0V76.28h-1.32V75.41Z" transform="translate(-18.18 -10.36)"/><path class="cls-11" d="M140.45,74.27v1l0-.08a1.74,1.74,0,0,1,1.29-1,1.6,1.6,0,0,1,1.05.51l-0.47.78a1.32,1.32,0,0,0-.86-0.44,0.92,0.92,0,0,0-.75.41,1.55,1.55,0,0,0-.32,1v2.36h-0.9V74.27h0.9Z" transform="translate(-18.18 -10.36)"/><path class="cls-11" d="M148.4,74.26a2.35,2.35,0,0,1,1.71.66,2.23,2.23,0,0,1,.68,1.67,2.12,2.12,0,0,1-.69,1.62,2.45,2.45,0,0,1-1.74.64,2.35,2.35,0,0,1-1.7-.65,2.31,2.31,0,0,1,0-3.29A2.4,2.4,0,0,1,148.4,74.26Zm0,0.8a1.41,1.41,0,0,0-1.05.42,1.47,1.47,0,0,0-.41,1.07,1.41,1.41,0,0,0,.42,1.06,1.49,1.49,0,0,0,1.08.41,1.47,1.47,0,0,0,1.08-.41,1.43,1.43,0,0,0,.42-1.06,1.42,1.42,0,0,0-.44-1.06A1.52,1.52,0,0,0,148.35,75.07Z" transform="translate(-18.18 -10.36)"/><path class="cls-11" d="M157.67,78.78V78.2a2.08,2.08,0,0,1-.65.48,1.69,1.69,0,0,1-.73.17,1.52,1.52,0,0,1-.79-0.21,1.38,1.38,0,0,1-.54-0.58,2.89,2.89,0,0,1-.18-1.21V74.27h0.89v2.57a1.77,1.77,0,0,0,.2,1,0.82,0.82,0,0,0,.71.28,1.3,1.3,0,0,0,1.08-.62V74.27h0.89v4.51h-0.89Z" transform="translate(-18.18 -10.36)"/><path class="cls-11" d="M162.77,81.08V74.27h1.56a2.71,2.71,0,0,1,1.87.6,2.13,2.13,0,0,1,.67,1.67,2.3,2.3,0,0,1-.63,1.67,2.13,2.13,0,0,1-1.6.65,2.82,2.82,0,0,1-1-.19v2.41h-0.91Zm1.54-6h-0.63v2.78a1.87,1.87,0,0,0,.86.21,1.33,1.33,0,0,0,1-.44,1.6,1.6,0,0,0,.4-1.12,1.58,1.58,0,0,0-.19-0.78,1.14,1.14,0,0,0-.51-0.49A2.3,2.3,0,0,0,164.31,75.1Z" transform="translate(-18.18 -10.36)"/></svg>