<?xml version="1.0" encoding="utf-8"?>
<!-- Generator: Adobe Illustrator 19.2.1, SVG Export Plug-In . SVG Version: 6.00 Build 0)  -->
<svg version="1.1" id="Capa_2" xmlns="http://www.w3.org/2000/svg" xmlns:xlink="http://www.w3.org/1999/xlink" x="0px" y="0px"
	 viewBox="0 0 40.7 76.7" style="enable-background:new 0 0 40.7 76.7;" xml:space="preserve">
<style type="text/css">
	.st0{fill:#9D3D2B;}
	.st1{fill:#FFFFFF;}
	.st2{fill:#B9A16E;}
	.st3{enable-background:new    ;}
</style>
<title>pollo</title>
<path class="st0" d="M18.4,35.2c-0.1,0,0,0.1,0.1,0.1C18.5,35.2,18.5,35.1,18.4,35.2z"/>
<path class="st1" d="M40.1,6.5c0,0,0.1-0.1,0.1-0.2c0.1-0.1,0.1-0.1,0.2-0.2c0-0.1,0.1-0.1,0.1-0.2c0.1-0.2,0.1-0.3,0.1-0.5
	c0-0.1,0.1-0.2,0.1-0.2c0-0.1,0-0.2,0-0.2c0-0.1-0.1-0.1-0.1-0.2l-0.1-0.2c0-0.1,0-0.2,0-0.3S40.5,4,40.4,3.9s0-0.2,0-0.3
	c-0.1-0.2,0.1-0.2-0.1-0.2s-0.2,0.1-0.3,0s0-0.1,0-0.2s0-0.1,0-0.2s0-0.1,0-0.2s0-0.1-0.1-0.2S40,2.6,39.9,2.6s-0.1,0-0.2,0
	l-0.2,0.1c-0.1,0-0.1,0.1-0.2,0.1C39.2,2.9,39.1,2.9,39,3c-0.1,0,0-0.1,0.1-0.2s0-0.2,0-0.2s0-0.2,0.1-0.2s0-0.2,0-0.2
	s-0.1-0.2-0.1-0.2c0-0.1,0-0.2,0-0.2c0-0.1-0.1-0.2-0.1-0.2c-0.1,0-0.1,0.1-0.2,0.1c-0.1,0.1-0.1,0.1-0.2,0.2l-0.2,0.1
	c-0.1,0.1-0.1,0.1-0.2,0.2s-0.1,0-0.2,0.1C38.1,2,38.1,2,38,2.1c-0.1,0,0-0.1,0-0.2s0-0.1,0-0.2s0-0.1,0-0.2s0-0.2,0-0.2
	s0-0.2,0-0.2s0-0.2-0.1-0.2c0-0.1-0.1-0.1-0.1-0.2c0-0.1-0.1-0.1-0.1-0.2c-0.1,0.1-0.1,0.1-0.1,0.2c-0.1,0.1-0.1,0.1-0.2,0.2
	s0,0.1-0.1,0.2l-0.1,0.2c-0.1,0.1-0.1,0.1-0.1,0.2c0,0.1,0,0.2-0.1,0.2c-0.1,0.1,0-0.1-0.1-0.2l-0.1-0.2c0-0.1-0.1-0.1-0.1-0.2
	s0-0.2,0-0.2s-0.1-0.1-0.1-0.2l-0.1-0.2l-0.1-0.2c0-0.1-0.1-0.1-0.1-0.2c-0.1,0.1-0.1,0.2-0.1,0.2c0,0.1-0.1,0.1-0.1,0.2
	S36,0.5,36,0.6l-0.1,0.2c0,0.1,0,0.2-0.1,0.2s0,0.2-0.1,0.2s0-0.1-0.1-0.2S35.6,1,35.5,0.9s0-0.2-0.1-0.2s-0.1-0.1-0.1-0.2
	s0-0.2-0.1-0.2c0-0.1-0.1-0.1-0.1-0.2C35,0.1,35,0.1,35,0.2l-0.1,0.2l-0.1,0.2c0,0.1,0,0.2-0.1,0.2s0,0.2-0.1,0.2s-0.1,0-0.2-0.1
	s-0.1,0-0.2-0.1s-0.1-0.1-0.1-0.2s-0.2,0-0.2-0.1c-0.1-0.1-0.1-0.1-0.2-0.1c0,0,0,0.1-0.1,0.2s-0.1,0.1-0.1,0.2l-0.1,0.2
	c-0.1,0.1,0,0.2-0.1,0.2c-0.1,0-0.1,0-0.2-0.1c-0.1,0-0.1,0-0.1,0s0,0.2,0,0.3s0,0.2,0,0.3c0,0.1,0,0.2-0.1,0.2
	c-0.1,0.1-0.1,0.1-0.2,0.1c0,0.1-0.1,0.1-0.1,0.2c-0.1,0.1-0.1,0.1-0.1,0.2c0,0.1,0.1,0.1,0.1,0.2c0,0.1,0.1,0.1,0.2,0.1
	C33,2.9,33.1,3,33.1,3l0.2,0.1c0,0.1,0.1,0.1,0.2,0.1c0.1,0.1,0.1,0.1,0.2,0.1l0.2,0.1L34,3.6c0.1,0,0.1,0,0.2,0.1
	c0.1,0.1-0.1,0-0.2,0s-0.1,0.1-0.2,0.1s-0.2,0-0.2,0h-0.2c-0.1,0-0.1,0.1-0.2,0.1s-0.2,0-0.2,0S32.7,4,32.6,4l-0.2,0.1
	c-0.1,0-0.2,0-0.2,0.1L32,4.3c-0.1,0-0.1,0.1-0.2,0.2s-0.2,0.1-0.2,0.1l-0.2,0.2l-0.2,0.1c-0.1,0-0.1,0.1-0.1,0.2l-0.2,0.2
	c-0.1,0.1-0.1,0.1-0.2,0.2l-0.2,0.2c-0.1,0.1-0.1,0.1-0.2,0.2L30.3,6c0,0.1-0.1,0.1-0.1,0.2L30,6.4c0,0.1-0.1,0.2-0.1,0.2
	s-0.1,0.1-0.2,0.2S29.7,6.9,29.7,7l-0.1,0.2l-0.1,0.2l-0.1,0.2c0,0.1-0.1,0.1-0.1,0.2S29.1,7.9,29,8S29,8.2,28.9,8.2l-0.1,0.2
	c0,0.1-0.1,0.1-0.1,0.2s0,0.2-0.1,0.2S28.5,9,28.5,9.1s-0.1,0.1-0.1,0.2s0,0.2-0.1,0.2s-0.1,0.1-0.1,0.2S28.1,9.8,28,9.9l-0.1,0.2
	l-0.1,0.2l-0.1,0.2c0,0.1-0.1,0.1-0.1,0.2s-0.1,0.1-0.1,0.2s-0.1,0.1-0.2,0.2l-0.1,0.2c0,0.1-0.1,0.1-0.1,0.2s-0.1,0.1-0.1,0.2
	s-0.1,0.1-0.2,0.1L26.5,12c-0.1,0.1-0.1,0.1-0.2,0.2s-0.1,0.1-0.2,0.2S26,12.4,26,12.5l-0.2,0.1l-0.2,0.2c-0.1,0-0.2,0.1-0.2,0.1
	s-0.1,0.1-0.2,0.2L25,13.2l-0.2,0.1c-0.1,0-0.1,0.1-0.2,0.1l-0.2,0.1l-0.2,0.1l-0.2,0.1c-0.1,0-0.2,0-0.2,0s-0.1,0.1-0.2,0.1L23,14
	h-0.2h-0.2h-0.2H22h-0.2h-0.2h-0.2H21c-0.1,0-0.2,0-0.2,0s-0.2,0-0.2,0h-0.2h-0.2c-0.1,0-0.2,0-0.2,0s-0.2,0-0.2,0h-0.2h-0.2
	c-0.1,0-0.2,0-0.2,0s-0.2,0-0.2,0h-0.2c-0.1,0-0.2,0-0.2,0h-0.2h-0.2h-0.2c-0.1,0-0.2-0.1-0.2-0.1H17h-0.2h-0.2
	c-0.1,0-0.2-0.1-0.2-0.1H16h-0.2h-0.2c-0.1,0-0.2,0-0.2,0l-0.2,0h-0.2c-0.1,0-0.2-0.1-0.2-0.1h-0.2h-0.2c-0.1,0-0.2-0.1-0.2-0.1
	s-0.2,0-0.2,0l-0.2,0h-0.2l-0.2-0.1h-0.2c-0.1,0-0.2-0.1-0.2-0.1l-0.2-0.1L12,13c-0.1,0-0.2,0-0.2,0s-0.1-0.1-0.2-0.1
	s-0.2,0-0.2-0.1s-0.1-0.1-0.2-0.1l-0.2-0.2l-0.2-0.1l-0.2-0.1l-0.2-0.1l-0.2-0.2c-0.1,0-0.1-0.1-0.2-0.2s-0.1-0.1-0.2-0.1l-0.2-0.2
	c-0.1,0-0.1-0.1-0.2-0.2L9.3,11l-0.2-0.2l-0.2-0.1c-0.1-0.1-0.1-0.1-0.2-0.2l-0.2-0.2c-0.1,0-0.1-0.1-0.2-0.1l-0.2-0.2
	C8.2,10,8.1,9.9,8,9.9L7.9,9.7c-0.1,0-0.1-0.1-0.2-0.1L7.5,9.4L7.3,9.2L7.1,9.1L7,8.9c-0.1,0-0.1-0.1-0.2-0.2L6.6,8.6
	c-0.1,0-0.1-0.1-0.2-0.2L6.2,8.3L6,8.1C6,8.1,5.9,8.1,5.8,8L5.6,7.9c-0.1,0-0.2-0.1-0.2-0.1c-0.1,0-0.1-0.1-0.2-0.1
	C5.1,7.7,5,7.6,5,7.6L4.7,7.5c-0.1,0-0.2,0-0.2,0L4.3,7.4L4,7.4C4,7.4,3.9,7.3,3.8,7.3H3.6H3.3H3.1H2.9H2.1H1.9
	c-0.1,0-0.1,0.1-0.2,0.1L1.5,7.5c-0.1,0-0.1,0.1-0.2,0.1C1.1,7.7,1,7.8,1,7.9C1,8,0.9,8.1,0.9,8.1S0.8,8.3,0.8,8.3
	c0,0.1,0,0.1,0,0.2c0,0.1,0,0.1,0,0.2c0,0.1,0.1,0.1,0,0.2C0.7,9,0.6,9.1,0.5,9.1c-0.1,0-0.1,0.1-0.2,0.1C0.3,9.3,0.2,9.3,0.2,9.4
	c0,0.1-0.1,0.1-0.1,0.2c0,0.1,0,0.2-0.1,0.2c0,0.1,0,0.2,0,0.2c0,0.1,0,0.2,0,0.2c0,0.1,0.1,0.1,0.1,0.2s0,0.2,0,0.2
	s0.1,0.1,0.1,0.2s0,0.2,0,0.2c0,0.1,0.1,0.1,0.1,0.2c0,0.1,0,0.1,0,0.2c0,0.1,0,0.1,0,0.2c0,0.1,0,0.1,0.1,0.2c0,0.1,0,0.1,0.1,0.2
	c0,0.1,0.1,0.1,0.1,0.2c0,0.1,0.1,0.1,0.1,0.2l0.2,0.2L1,13l0.1,0.2c0.1,0.1,0.1,0.1,0.2,0.2s0.2,0.1,0.2,0.2
	c-0.1,0-0.2,0.1-0.2,0.1c-0.1,0-0.2,0.1-0.2,0.1C1,13.8,0.9,13.9,0.9,14c0,0.1,0,0.2,0,0.2c0,0.1,0,0.1,0,0.2c0,0.1,0,0.1,0,0.2
	c0,0.1,0,0.1,0,0.2C0.9,15,1,14.9,1,15c0,0.1-0.1,0.1-0.2,0.2c0,0.1-0.1,0.2-0.1,0.2c0,0.1,0,0.2-0.1,0.3c0,0.1,0.1,0.2,0.1,0.2
	c0,0.1,0,0.2,0.1,0.2c0,0.1,0.1,0.1,0.2,0.2l0.2,0.2c0.1,0,0.1,0.1,0.2,0.1l0.2,0.2l0.2,0.2c0.1,0,0.1,0.1,0.2,0.1l0.2,0.1
	c0.1,0,0.1,0.1,0.2,0.2l0.2,0.2c0.1,0,0.2,0.1,0.2,0.1s0.1,0.1,0.2,0.2S3,18.1,3,18.1l0.2,0.2c0.1,0.1,0.2,0.1,0.2,0.1
	c0.1,0.1,0.1,0.1,0.2,0.2c0,0.1,0.1,0.2,0.1,0.2c0,0.1,0,0.2,0,0.2s0.1,0.1,0.1,0.2s0.1,0.1,0.1,0.2l0.1,0.2c0,0.1,0,0.2,0,0.2
	S4,20.1,4,20.2s0,0.2,0.1,0.2l0.1,0.2c0,0.1,0.1,0.1,0.1,0.2s0.1,0.1,0.1,0.2l0.2,0.2l0.2,0.2L5,21.6C5,21.7,5,21.7,5,21.8
	c0,0.1,0,0.2,0,0.2C5,22.1,5,22.2,5,22.3s0,0.2,0,0.2l-0.1,0.2c0,0.1,0,0.2,0,0.2s-0.1,0.1-0.1,0.2s-0.1,0.2-0.1,0.2
	c0,0.1,0,0.2,0,0.2c0,0.1,0,0.1,0.1,0.2l0.1,0.2c0,0.1,0.1,0.1,0.2,0.2s0.1,0.1,0.1,0.2l0.1,0.2l0.1,0.2L5.6,25
	c0.1,0.1,0.1,0.1,0.1,0.2c0,0.1,0.1,0.1,0.1,0.2S6,25.5,6,25.6s0,0.2,0.1,0.2S6.2,26,6.2,26l0.1,0.2c0,0.1,0.1,0.1,0.1,0.2
	s0,0.2,0,0.2s0.1,0.1,0.1,0.2c0,0.1,0,0.2,0.1,0.2c0,0.1,0,0.1,0,0.2s0,0.2,0,0.2s0,0.2,0,0.2s0,0.2,0,0.2s0,0.2,0,0.2s0,0.2,0,0.2
	s0,0.2,0,0.2s0.1,0.2,0.1,0.2s0,0.2,0,0.2s0.1,0.1,0.1,0.2s0,0.2,0.1,0.2l0.1,0.2c0,0.1,0,0.2,0.1,0.2s0.1,0.1,0.2,0.2l0.1,0.2
	c0,0.1,0.1,0.1,0.1,0.2l0.2,0.2l0.2,0.2c0,0.1,0.1,0.1,0.1,0.2l0.2,0.2L8,31.9L8.2,32c0.1,0.1,0.1,0.1,0.1,0.2l0.2,0.2
	c0.1,0.1,0.2,0.1,0.2,0.1s0.1,0.1,0.1,0.2L9,32.9c0.1,0,0.1,0.1,0.2,0.1s0.1,0.1,0.2,0.2l0.2,0.1l0.2,0.2l0.2,0.2l0.2,0.2
	c0.1,0,0.1,0.1,0.2,0.1s0.1,0.1,0.2,0.2s0.2,0,0.2,0.1s0.1,0.1,0.2,0.2l0.2,0.1l0.2,0.1l0.2,0.1l0.2,0.1l0.2,0.1l0.1,0l0.2,0.1
	l0.2,0.1c0,0.1,0,0.1-0.1,0.2s0,0.1,0,0.2s0,0.2,0,0.2s0,0.2,0,0.2v0.2c0,0.1,0,0.2,0,0.2s0,0.2-0.1,0.2s0,0.2,0,0.2v0.2
	c0,0.1,0,0.2,0,0.2s0,0.2,0,0.2S12.2,38,12.2,38v0.2c0,0.1,0,0.2,0,0.2s-0.1,0.1-0.1,0.2V39c0,0.1,0,0.2,0,0.2s-0.1,0.2-0.1,0.2
	s0,0.2,0,0.2s0,0.2,0,0.2S12,40.1,12,40.2s0,0.2,0,0.2s0,0.2,0,0.2c0,0.1-0.1,0.2-0.1,0.2c0,0.1,0,0.1-0.1,0.2s-0.1,0.1-0.1,0.2
	s-0.1,0.1-0.1,0.2s-0.1,0.1-0.1,0.2s-0.1,0.1-0.2,0.2s-0.1,0.1-0.1,0.2c-0.1,0.1-0.1,0.1-0.2,0.1l-0.2,0.1l-0.2,0.1l-0.2,0.1
	l-0.2,0.1L10,42.6l-0.2,0l-0.2,0.1c-0.1,0-0.1,0.1-0.2,0.1s-0.2-0.1-0.2,0s0.1,0,0.2,0.1l0.2,0.1c0.1,0,0.1,0.1,0.2,0.1
	c0.1,0,0.1,0.1,0.2,0.1c0.1,0,0.2,0,0.2,0c0.1,0,0.1-0.1,0.2-0.1c0.1,0,0.2,0,0.2,0l0.2-0.1C11,43.1,11,43,11.1,43s0,0.1,0,0.2
	s0,0.2,0,0.2s0,0.2,0,0.2c0,0.1,0,0.2,0.1,0.2c0,0.1,0,0.2,0.1,0.2c0.1,0,0.2,0.1,0.2,0.1c0.1,0,0.2,0.1,0.2,0.1l0.2,0.2
	c0,0.1,0.1,0.2,0.2,0.2c0.1,0,0.2,0,0.3,0h0.3h0.3c0.1,0,0.2,0,0.3,0s0.2,0.1,0.3,0c0-0.1,0.1-0.1,0.1-0.2c0-0.1,0.2-0.1,0.1-0.2
	c-0.1-0.1-0.1-0.1-0.2-0.1c-0.1-0.1,0.1,0,0.2,0h0.5c0.1,0,0.2,0,0.2,0h0.2h0.2H15c0.1,0,0.2-0.1,0.2-0.1h0.2h0.2h0.4
	c0.1,0,0.2,0,0.2,0h0.2c0.1,0,0.2,0,0.2,0c0.1,0,0.1,0.1,0.2,0.1s0.2,0,0.2,0c0.1,0,0.2,0,0.2,0c0.1,0,0.2,0,0.2,0
	c0.1,0,0.2,0,0.2-0.1c0.1,0,0.1-0.1,0.2-0.1c0.1-0.1,0-0.1,0.2-0.1s0.1,0,0.2,0.1s0.1,0.1,0.2,0.1l0.2,0.1c0.1,0,0.1,0.1,0.2,0.1
	c0-0.1,0-0.1,0-0.2c0-0.1,0-0.2,0-0.2c0-0.1,0-0.2,0-0.2c0-0.1-0.1-0.1-0.2-0.2c-0.1,0-0.1-0.1-0.2-0.1l-0.2-0.1h-0.2H18
	c-0.1,0-0.2,0-0.2,0h-0.2h-0.2h-0.5h-0.2h-0.2h-0.2h-0.5l-0.2,0h-0.2l-0.2-0.1c-0.1,0-0.1-0.1-0.2-0.1h-0.2c-0.1,0-0.2,0-0.2,0
	s-0.2-0.1-0.2-0.1h-0.2l-0.2-0.1c-0.1,0-0.2-0.1-0.2-0.1c0-0.1,0-0.2,0-0.2c0-0.1,0.1-0.1,0.1-0.2s0-0.1,0-0.2s0-0.2,0-0.2
	s0-0.1,0-0.2s0-0.1,0-0.2s0-0.1,0-0.2s0-0.2,0-0.2s0-0.2,0-0.2s0.1-0.1,0.1-0.2s0-0.2,0-0.2s0-0.1,0.1-0.2s0-0.1,0.1-0.2
	s0-0.2,0-0.2s0.1-0.1,0.1-0.2s0-0.2,0-0.2s0-0.2,0-0.2s0.1-0.1,0.1-0.2s0-0.2,0-0.2s0-0.2,0-0.2s0.1-0.1,0.1-0.2l0.1-0.2
	c0-0.1,0-0.2,0-0.2l0.1-0.2c0-0.1,0.1-0.1,0.1-0.2c0-0.1,0-0.2,0.1-0.2l0,0H14h0.2h0.2h0.2c0.1,0,0.2,0,0.2,0c0.1,0,0.1,0,0.2-0.1
	c0.1,0,0.1,0,0.2,0c0.1,0,0.2,0,0.2,0c0.1,0,0.1-0.1,0.2-0.2s0.2,0,0.2-0.1l0.2-0.1l0.2-0.1l0.2-0.1c0.1,0,0.1-0.1,0.2-0.1l0.2-0.1
	c0.1,0,0.2,0,0.2-0.1l0.2-0.1l0.2-0.1l0.2-0.1c0.1,0,0.2,0,0.2-0.1c0.1,0,0.1-0.1,0.2-0.2l0,0c-0.1-0.1-0.2-0.1-0.1-0.1
	s0.1,0,0.1,0.1l0,0l0.1,0.2c0,0.1,0.1,0.1,0.1,0.2s0.1,0.1,0.1,0.2s0.1,0.1,0.2,0.2s0.1,0.1,0.1,0.2s0.1,0.1,0.2,0.1
	s0.1,0.1,0.2,0.1s0.1,0.1,0.2,0.2c0.1,0,0.1,0.1,0.2,0.1l0.2,0.1l0.3,0.1c0.1,0,0.1,0.1,0.2,0.1l0.1,0.2l0.1,0.2
	c0,0.1,0.1,0.1,0.2,0.2s0.1,0.1,0.1,0.2s0.1,0.1,0.2,0.2s0.1,0.1,0.1,0.2s0.1,0.1,0.1,0.2s0.1,0.1,0.2,0.2s0.1,0.1,0.1,0.2
	s0.1,0.1,0.1,0.2s0.1,0.1,0.2,0.2l0.1,0.2l0.1,0.2c0,0.1,0,0.2,0.1,0.2s0.1,0.1,0.2,0.2s0.1,0.1,0.1,0.2s0.1,0.1,0.2,0.2
	s0.1,0.1,0.1,0.2s0.1,0.1,0.2,0.2l0.1,0.2c0,0.1,0.1,0.2,0.1,0.2c0,0.1,0.1,0.1,0.2,0.2c0,0.1,0.1,0.2,0.1,0.2
	c0,0.1,0.1,0.2,0.1,0.2c0,0.1,0,0.2,0,0.2c0,0.1,0,0.2,0,0.2c0,0.1-0.1,0.1-0.2,0.2L23,43l-0.2,0.1c-0.1,0-0.2,0.1-0.2,0.1l-0.2,0.1
	c-0.1,0-0.1,0.1-0.2,0.2c-0.1,0-0.2,0.1-0.2,0.1c-0.1,0.1-0.1,0.1-0.2,0.2c-0.1,0.1-0.1,0.1-0.2,0.2c-0.1,0.1-0.2,0.2-0.1,0.2
	c0.2,0,0.4-0.1,0.5-0.2c0.1,0,0.2-0.1,0.3-0.1c0.1,0,0.1,0,0.2,0.1c0,0,0.1,0.1,0.2,0.1c0.1,0,0.1-0.1,0.2-0.1l0.2-0.1l0.2-0.1
	l0.2-0.1c0.1,0,0.2,0,0.2-0.1c0.1,0,0.1-0.1,0.2-0.1c0.1,0,0.1,0,0.2,0c0.1,0,0.2,0,0.3,0c0.1,0,0,0.1,0,0.2c0,0.1,0,0.1,0.1,0.2
	c0,0.1,0.1,0.1,0.1,0.1c0.1,0,0.1,0.1,0.2,0.1c0.1,0,0.1,0.1,0.2,0.1l0.2,0.2c0.1,0.1,0.1,0.1,0.2,0.1c0.1,0,0.2,0,0.3,0
	s0.2,0,0.3,0s0.2,0,0.3,0c0.1,0,0.1,0,0.2,0l0.2,0c0.1,0,0.2,0.1,0.2,0c0-0.1,0-0.1-0.1-0.2c0-0.1-0.1-0.1-0.1-0.2
	c0-0.1,0-0.1,0.3-0.1h0.5c0.1,0,0.2,0,0.2,0s0.2,0,0.2,0s0.2,0,0.2,0h0.7c0.1,0,0.2,0.1,0.2,0H29h0.3c0.1,0,0.2,0,0.3,0s0.2,0,0.3,0
	h0.3h0.3h0.2c0.1,0,0.2,0,0.2,0c0.1,0,0.2,0,0.2,0c0.1,0,0.1-0.1,0.2-0.1c0-0.1,0.1-0.2,0.2-0.2c0.1,0,0.1,0.1,0.2,0.1
	s0.1,0,0.2,0.1c0.1,0.1,0.1,0.1,0.1,0.2c0.1,0,0.1,0.1,0.1,0.2c0,0.1,0.1,0,0.1-0.1c0-0.1,0-0.2,0-0.3c0-0.1-0.1-0.2-0.2-0.2
	c-0.1,0-0.1-0.1-0.2-0.1c0-0.1-0.1-0.1-0.2-0.1c-0.1,0-0.1-0.1-0.2-0.1c-0.1,0-0.2,0-0.2,0c-0.1,0-0.2,0-0.2,0h-0.2
	c-0.1,0-0.2-0.1-0.2-0.1h-0.2H30h-0.2h-0.2h-0.2H29h-0.2c-0.2,0-0.1,0-0.2-0.1h-0.2c-0.1,0-0.1,0-0.2,0s-0.1,0-0.2-0.1h-0.2h-0.2
	h-0.2c-0.1,0-0.1,0-0.2,0s-0.1-0.1-0.2-0.1s-0.1,0-0.2,0c-0.1,0-0.2,0-0.2,0c-0.1,0-0.1-0.1-0.2-0.2c0-0.1-0.1-0.1-0.1-0.2l-0.1-0.2
	c0-0.1-0.1-0.1-0.2-0.2s-0.1-0.2-0.1-0.2s-0.1-0.1-0.2-0.2l-0.2-0.2c-0.1-0.1-0.1-0.1-0.2-0.2s-0.1-0.1-0.1-0.2l-0.2-0.2
	c0-0.1-0.1-0.1-0.1-0.2s-0.1-0.1-0.2-0.2s-0.1-0.1-0.2-0.2l-0.1-0.2c0-0.1,0-0.2-0.1-0.2s-0.1-0.1-0.1-0.2s-0.1-0.1-0.2-0.2
	l-0.1-0.2l-0.1-0.2c0-0.1-0.1-0.1-0.1-0.2S23.3,39,23.2,39l-0.1-0.2c0-0.1-0.1-0.1-0.1-0.2s-0.1-0.1-0.1-0.2l-0.1-0.2
	c0-0.1-0.1-0.1-0.1-0.2l-0.1-0.2l0.2-0.1c0.1,0,0.2,0,0.2,0c0.1,0,0.1-0.1,0.2-0.1c0.1,0,0.1-0.1,0.2-0.1c0.1,0,0.1-0.1,0.2-0.1
	c0.1,0,0.1-0.1,0.2-0.2c0-0.1,0.1-0.1,0.1-0.2l0.1-0.2c0-0.1,0.1-0.1,0.2-0.2l0.1-0.2c0-0.1,0-0.2,0.1-0.2l0.1-0.2
	c0-0.1,0.1-0.1,0.1-0.2l0.1-0.2c0-0.1,0.1-0.1,0.1-0.2l0.1-0.2c0-0.1,0-0.2,0.1-0.2s0.1-0.1,0.1-0.2s0.1-0.1,0.1-0.2s0-0.2,0.1-0.2
	s0.1-0.1,0.1-0.2s0-0.2,0.1-0.2s0.1-0.1,0.1-0.2l0.1-0.2c0-0.1,0-0.2,0.1-0.2s0.1-0.2,0.1-0.2c0-0.1,0.1-0.1,0.1-0.2l0.2-0.2
	c0.1,0,0.2-0.1,0.2-0.1l0.2-0.1l0.2-0.1c0.1,0,0.1-0.1,0.2-0.2s0.2,0,0.2-0.1l0.2-0.1c0.1,0,0.1-0.1,0.2-0.2s0.2-0.1,0.2-0.1
	l0.2-0.1l0.2-0.1l0.2-0.1c0.1,0,0.1-0.1,0.2-0.1l0.2-0.1l0.2-0.1c0.1,0,0.2,0,0.2-0.1s0.1-0.1,0.2-0.1l0.2-0.1l0.2-0.1l0.2-0.1
	c0.1,0,0.2,0,0.2-0.1l0.2-0.1l0.2-0.1l0.2-0.1c0.1,0,0.1-0.1,0.2-0.1s0.2-0.1,0.2-0.1l0.2-0.1c0.1,0,0.1-0.1,0.2-0.2
	s0.1-0.1,0.2-0.1l0.2-0.2c0.1,0,0.1-0.1,0.1-0.2s0.1-0.1,0.2-0.1s0.1-0.1,0.1-0.2s0.1-0.1,0.1-0.2s0.1-0.1,0.2-0.2l0.1-0.2
	c0-0.1,0.1-0.1,0.2-0.2s0.1-0.1,0.1-0.2s0.1-0.1,0.2-0.2l0.1-0.2c0-0.1,0-0.2,0.1-0.2s0.1-0.1,0.2-0.2s0.1-0.1,0.1-0.2
	s0-0.1,0.1-0.2l0.1-0.2c0-0.1,0.1-0.1,0.1-0.2l0.1-0.2c0-0.1,0.1-0.1,0.1-0.2s0.1-0.1,0.1-0.2s0-0.2,0.1-0.2s0.1-0.1,0.1-0.2
	s0.1-0.1,0.1-0.2s0-0.1,0.1-0.2s0-0.2,0.1-0.2s0.1-0.1,0.2-0.2s0.1-0.1,0.1-0.2s0.1-0.1,0.1-0.2s0.1-0.1,0.1-0.2s0-0.2,0.1-0.2
	s0.1-0.1,0.1-0.2s0.1-0.1,0.1-0.2s0.1-0.1,0.1-0.2s0.1-0.1,0.1-0.2s0.1-0.1,0.1-0.2s0.1-0.1,0.1-0.2s0.1-0.1,0.1-0.2
	s0.1-0.1,0.1-0.2s0.1-0.1,0.1-0.2s0.1-0.1,0.1-0.2l0.1-0.2c0-0.1,0-0.1,0.1-0.2s0-0.1,0.1-0.2s0.1-0.1,0.1-0.2s0-0.1,0.1-0.2
	l0.1-0.2l0.1-0.2c0-0.1,0-0.2,0-0.2s0.1-0.1,0.1-0.2s0-0.2,0.1-0.2s0.1-0.1,0.1-0.2s0-0.2,0-0.2s0-0.2,0-0.2s0-0.1,0.1-0.2
	s0.1-0.1,0.1-0.2s0-0.2,0-0.2s0-0.2,0-0.2s0-0.2,0-0.2s0-0.2,0-0.2s0-0.2,0-0.2s0-0.2,0-0.2s0-0.2,0-0.2s-0.1-0.2-0.1-0.2
	s0-0.2,0-0.2s0-0.2,0-0.2s0-0.2,0-0.2s0-0.2,0-0.2s-0.1-0.1-0.1-0.2v-0.2c0-0.1,0-0.2,0-0.2s0-0.2,0-0.2s-0.1-0.1-0.1-0.2
	s0-0.2,0-0.2s0-0.2-0.1-0.2S37,12.6,37,12.5s-0.1-0.1-0.1-0.2c0-0.1-0.1-0.1-0.1-0.2c-0.1-0.1-0.2-0.1-0.1-0.2s0.1,0,0.2-0.1
	l0.2-0.1c0.1,0,0.2-0.1,0.2-0.1l0.2-0.2c0.1,0,0.1-0.1,0.2-0.1s0.1-0.1,0.2-0.2l0.2-0.2l0.2-0.2c0-0.1,0.1-0.1,0.1-0.2
	s0.1-0.1,0.1-0.2s0.1-0.1,0.1-0.2s0-0.2,0-0.2s0-0.2,0-0.2s0.1-0.2,0.1-0.2s0-0.2,0-0.2s0-0.2,0-0.2s0-0.2,0-0.2s0-0.2,0-0.2
	s-0.1-0.2-0.1-0.2s0.1,0,0.3,0c0.1,0,0.2,0,0.2,0h0.2c0.1,0,0.1,0.1,0.2,0.1s0.2,0,0.2,0l0.2,0.1c0.1,0,0.1,0.1,0.2,0.1
	s0.2,0,0.2,0.1l0.2,0.1c0.1,0,0.1-0.1,0.1-0.2c0-0.1,0-0.2,0-0.2c-0.1-0.2-0.1-0.3-0.2-0.5c0-0.1-0.1-0.1-0.1-0.2s-0.1-0.1-0.2-0.2
	s0-0.2-0.1-0.2s-0.1-0.1-0.2-0.2S40,6.6,40.1,6.5z"/>
<path class="st2" d="M8.2,23.6v0.6l0.9,0.3c0-0.2,0-0.4,0-0.6C8.8,23.8,8.5,23.7,8.2,23.6z"/>
<path class="st2" d="M10,29c0.1,0.3,0.2,0.6,0.3,0.9c0.2,0,0.4,0,0.6,0L10.6,29L10,29L10,29z"/>
<path class="st2" d="M1.2,16.5l0.1,0.1l0.2,0.2l0.2,0.2C1.7,17,1.8,17,1.9,17l0.2,0.1c0.1,0,0.1,0.1,0.2,0.2c-0.1-0.3-0.3-0.7-0.4-1
	C1.6,16.4,1.4,16.4,1.2,16.5z"/>
<path class="st2" d="M25,44.5l-0.2-0.2c-0.1-0.1-0.1-0.1-0.2-0.1c-0.1-0.1-0.1-0.1-0.2-0.1c-0.1,0-0.1-0.1-0.1-0.1
	c0,0-0.1-0.1-0.1-0.2c0-0.1,0.1-0.2,0-0.2c-0.1,0-0.2,0-0.3,0c-0.1,0-0.1,0-0.2,0c-0.1,0-0.1,0.1-0.2,0.1c-0.1,0-0.2,0-0.2,0.1
	l-0.2,0.1L23,43.9l2.1,1l0.2-0.4h-0.1C25.1,44.6,25,44.5,25,44.5z"/>
<path class="st2" d="M14.6,28.4V29c0.3-0.1,0.6-0.2,0.9-0.3c0-0.2,0-0.4,0-0.6L14.6,28.4z"/>
<path class="st2" d="M21.9,21.4c0.3,0.1,0.6,0.3,0.9,0.3v-0.6l-0.9-0.3C21.8,21.1,21.8,21.3,21.9,21.4z"/>
<path class="st2" d="M22.8,18.1c0,0.2,0,0.4,0,0.6c0.3,0.1,0.6,0.3,0.9,0.3c0-0.2,0-0.4,0-0.6C23.4,18.3,23.1,18.2,22.8,18.1z"/>
<path class="st2" d="M31,21.5c0.5,0,0.9-0.1,1.4-0.2c0.2-0.3,0.4-0.6,0.5-1l-1.1-0.5L31,21.5z"/>
<path class="st2" d="M27.3,44.5l0.3,0.9h0.7c-0.1-0.3-0.2-0.6-0.3-0.9C27.7,44.5,27.5,44.5,27.3,44.5z"/>
<path class="st2" d="M20,43.5l1,0.1v-0.8c-0.3,0-0.7,0.1-1,0.1C20,43.1,20,43.3,20,43.5z"/>
<path class="st2" d="M12.8,21.8c0.2,0,0.4,0,0.6,0c0.1-0.3,0.3-0.6,0.3-0.9H13L12.8,21.8z"/>
<path class="st2" d="M21.4,43.2l0.7,0.4c0.1,0,0.1,0,0.2-0.1c0.1,0,0.1-0.1,0.2-0.2l0.2-0.1c0.1,0,0.2-0.1,0.2-0.1l0.2-0.1l0,0
	l-1.7-0.2C21.4,42.9,21.4,43,21.4,43.2z"/>
<path class="st2" d="M19.8,33.9c0.3,0.5,0.7,1,1.1,1.5c0.3,0,0.6-0.1,0.9-0.2c-0.3-0.5-0.6-1-0.9-1.5C20.5,33.7,20.2,33.8,19.8,33.9
	z"/>
<path class="st2" d="M26.1,42.6c0-0.1-0.1-0.1-0.1-0.2l-0.1-0.2c0-0.1-0.1-0.1-0.2-0.2s-0.1-0.2-0.1-0.2s-0.1-0.1-0.2-0.2l-0.2-0.2
	l-0.2-0.2c0,0-0.1-0.1-0.1-0.2l-0.2-0.2c0-0.1-0.1-0.1-0.1-0.2s-0.1-0.1-0.2-0.2s-0.1-0.1-0.2-0.2l-0.1-0.2c0-0.1,0-0.2-0.1-0.2
	s-0.1-0.1-0.1-0.2s-0.1-0.1-0.2-0.2l-0.1-0.2l-0.1-0.2c0-0.1-0.1-0.1-0.1-0.2s-0.1-0.1-0.2-0.2l-0.1-0.2c0-0.1-0.1-0.1-0.1-0.2
	s-0.1-0.1-0.1-0.2l-0.1-0.2c0-0.1-0.1-0.1-0.1-0.2l-0.1-0.2h0.2l0,0c-1.7,0-0.8,1.2-0.8,2l0.1,0l0.1,0.2l0.1,0.2
	c0,0.1,0,0.2,0.1,0.2s0.1,0.1,0.2,0.2s0.1,0.1,0.1,0.2s0.1,0.1,0.2,0.2s0.1,0.1,0.1,0.2s0.1,0.1,0.2,0.2l0.1,0.2
	c0,0.1,0.1,0.2,0.1,0.2c0,0.1,0.1,0.1,0.2,0.2c0,0.1,0.1,0.2,0.1,0.2c0,0.1,0.1,0.2,0.1,0.2c0,0.1,0,0.2,0,0.2c0,0.1,0.1,0.1,0,0.2
	c0,0.1-0.1,0.1-0.2,0.2l-0.2,0.1l2.8,0.3l0.2-0.4C26.1,42.7,26.1,42.7,26.1,42.6z"/>
<path class="st2" d="M22.4,24c-0.1,0.7,0,1.3,0.2,2c0.4,0.2,0.8,0.3,1.2,0.3l-0.4-2.8C23,23.6,22.7,23.8,22.4,24z"/>
<g class="st3">
	<path class="st1" d="M7.9,57.5L7.9,57.5c-0.1,0.3-0.3,0.5-0.6,0.8c-0.3,0.3-0.7,0.6-1,0.7c-0.2,0.1-0.4,0.1-0.5,0.2v0
		c-0.3,0.2-0.4,0.2-0.6,0.4c-0.1,0-0.1,0.1-0.2,0.1c-0.2,0.1-0.5,0.2-0.7,0.4c0,0,0,0,0,0h0h0C4,60.2,3.6,60.6,3.4,61l0,0v0
		c0,0.2,0,0.4,0,0.6c0,0.3,0,0.4,0,0.4c0,0.2,0,0.9,0,1.3c0,0.2,0,0.3,0,0.3c0,0.1,0,0.1,0,0.2c0,0.2,0,0.6,0,0.7v0c0,0,0,0.1,0,0.2
		c0,0.2,0.1,0.2,0.1,0.3c0,0,0,0,0,0c0,0-0.1,0-0.4,0c-0.3,0-0.5,0-0.6,0c0,0,0-0.2,0-0.2c0-0.1,0.1-0.2,0.1-0.4v0
		c0-0.2,0-0.4,0-0.6c0-0.1,0-0.2,0-0.3c0.1-0.7,0.1-1.4,0.1-2.3c0-0.5,0-1.1,0-2.1c0-0.5,0-1.3,0-2.1c0,0,0-0.1,0-0.2
		c0-0.3,0-0.5,0-0.9c0.1-1-0.6-1-1-1.3c-0.2-0.1-0.4-0.2-0.7-0.2l0,0h0c-0.3-0.1-0.5-0.2-0.6-0.4c-0.1-0.1,0.1-0.4,0.2-0.4
		c0-0.1,0.1-0.1,0.2-0.1c0,0,0,0,0,0l0,0c0.2,0,0.3,0.1,0.5,0.2c0.4,0.1,0.6,0.2,1.2,0.3C2.7,54,2.9,54,3.2,54c0.2,0,0.3,0,0.5,0
		c0.1,0,0.1,0,0.2,0c0.1,0,0.2,0,0.3,0c0.5,0,1.1,0,1.6,0.1c0.6,0,1.1,0.2,1.7,0.6c0,0,0,0,0.1,0c0.3,0.2,0.5,0.6,0.7,1
		c0,0.1,0,0.2,0.1,0.2v0v0c0,0,0,0,0,0C8.3,56.2,8.2,57,7.9,57.5z M7.3,55.8c-0.1-0.2-0.3-0.5-0.4-0.6c-0.1-0.1-0.2-0.1-0.2-0.2h0
		c0,0,0-0.1-0.1-0.1c-0.2-0.1-0.5-0.2-0.8-0.3c-0.1,0-0.2,0-0.3,0c-0.1,0-0.2,0-0.2,0c-0.1,0-0.2,0-0.3,0c-0.3,0-0.6,0-0.9,0.1
		c-0.2,0.1-0.4,0.4-0.4,0.6c0,0,0,0,0,0c0,0.1-0.1,0.2-0.1,0.4c0,0,0,0,0,0s0,0,0,0c0,0.2,0,0.9,0,1.4c0,0.1,0,0.2,0,0.4
		c-0.1,0.5,0,0.8,0.1,1c0.1,0.1,0.3,0.2,0.5,0.2c0,0,0.1,0,0.1,0c0.1,0,0.4,0,0.5-0.1h0l0.1-0.1c0.2-0.1,0.4-0.2,0.6-0.3
		c0.1,0,0.2-0.1,0.3-0.2l0,0c0.1-0.1,0.3-0.1,0.4-0.2c0.3-0.1,0.5-0.3,0.8-0.6l0,0l0,0c0,0,0,0,0,0c0,0,0.1-0.1,0.1-0.2
		c0-0.1,0.1-0.2,0.1-0.3c0.1-0.1,0.1-0.2,0.1-0.4C7.4,56.4,7.4,56.1,7.3,55.8z"/>
	<path class="st1" d="M9.5,58.3c0.1-0.4,0.2-0.6,0.3-1c0-0.1,0-0.2,0.1-0.3c0-0.1,0.1-0.2,0.1-0.4v0c0-0.1,0-0.1,0.1-0.2
		c0.1-0.1,0.2-0.3,0.3-0.5c0.1-0.2,0.3-0.5,0.3-0.5c0.1-0.1,0.2-0.1,0.3-0.2l0-0.1c0.1-0.1,0.1-0.1,0.2-0.2c0.2-0.1,0.3-0.2,0.5-0.4
		l0,0c0,0,0.1-0.1,0.1-0.1c0.1-0.1,0.2-0.1,0.2-0.2c0.1,0,0.2-0.1,0.3-0.1c0.1-0.1,0.3-0.1,0.4-0.2c0.3-0.1,0.6-0.1,0.8-0.1
		c0.2,0,0.4,0.1,0.6,0.1c0.1,0,0.2,0.1,0.3,0.2c0.1,0,0.1,0.1,0.2,0.1c0.2,0.1,0.3,0.2,0.5,0.4c0.1,0.1,0.1,0.1,0.2,0.2
		c0.1,0.1,0.1,0.1,0.1,0.1c0,0,0.1,0.1,0.1,0.1c0.1,0.1,0.1,0.1,0.1,0.2c0,0,0.1,0,0.1,0.1c0.1,0.1,0.1,0.1,0.2,0.2
		c0,0,0.1,0.1,0.1,0.1c0.1,0.1,0.1,0.1,0.2,0.3c0.1,0.2,0.1,0.3,0.2,0.4c0,0,0,0.1,0.1,0.2c0,0,0,0,0,0.1c0,0,0,0.1,0,0.1
		c0,0.1,0,0.1,0.1,0.2c0.1,0.2,0.1,0.4,0.2,0.6c0,0.1,0.1,0.2,0.1,0.3c0.1,0.2,0.1,0.4,0.2,0.7c0.1,1.9-0.2,2.7-0.3,2.9
		c0,0,0,0,0,0.1c-0.1,0.2-0.1,0.4-0.2,0.6c-0.1,0.1-0.1,0.2-0.2,0.3c-0.1,0.1-0.2,0.2-0.2,0.3c-0.1,0.1-0.2,0.3-0.3,0.4
		c0,0-0.1,0.1-0.2,0.2c-0.1,0.1-0.2,0.2-0.2,0.3c-0.2,0.3-0.4,0.5-0.7,0.7c-0.1,0.1-0.2,0.1-0.3,0.1c-0.1,0-0.2,0.1-0.3,0.1
		c-0.1,0-0.1,0-0.1,0c0,0-0.1,0-0.1,0c-0.1,0-0.1,0-0.2,0c-0.1,0-0.2,0-0.3,0.1c-0.2,0-0.4,0-0.6,0c0,0-0.1,0-0.1,0
		c-0.5-0.1-0.9-0.3-1.3-0.7c0,0-0.4-0.4-0.6-0.6c-0.2-0.2-0.4-0.4-0.5-0.6c0-0.1-0.2-0.6-0.2-0.6c-0.1-0.2-0.2-0.4-0.3-0.7
		c0-0.2-0.1-0.9-0.1-1.2c0-0.1,0-0.1,0-0.1c0-0.2-0.1-0.6-0.1-0.8c0,0,0-0.1,0-0.1C9.4,59,9.5,58.3,9.5,58.3z M10.2,59.3
		c0,0.2,0,0.3,0,0.5c0,0.2,0.1,1.5,0.3,1.8c0.1,0.1,0.1,0.1,0.1,0.2c0,0,0.1,0.1,0.1,0.2c0,0.1,0.1,0.1,0.1,0.1
		c0.2,0.4,0.9,1.2,1,1.3c0.1,0.1,0.3,0.2,0.4,0.3c0.1,0,0.1,0,0.1,0.1c0.1,0.1,0.1,0.1,0.2,0.1c0.1,0,0.1,0,0.2,0c0.1,0,0.1,0,0.2,0
		c0.1,0,0.1,0,0.2,0c0.1,0,0.1,0,0.2,0h0c0,0,0.1,0,0.1,0c0.1,0,0.1,0,0.2,0c0.1,0,0.7-0.2,0.8-0.4c0.1-0.1,0.1-0.1,0.2-0.2
		c0.1-0.1,0.1-0.2,0.2-0.2c0.1-0.1,0.1-0.2,0.2-0.2c0.1-0.1,0.2-0.1,0.2-0.2c0,0,0,0,0.1,0c0.2-0.2,0.6-0.8,0.6-1
		c0-0.2,0.1-0.2,0.1-0.3c0,0,0-0.1,0.1-0.1c0.1-0.1,0.2-0.8,0.2-1c0-0.3,0-1.8-0.2-2.2c0,0,0,0,0,0c-0.2-0.5-0.3-0.8-0.4-1
		c-0.1-0.3-0.9-1.3-1.2-1.4c-0.1-0.1-0.3-0.2-0.5-0.3c0,0,0,0-0.1,0c-0.1,0-0.2-0.1-0.4-0.2c-0.1,0-0.3,0-0.4,0.1c0,0,0,0,0,0
		c-0.1,0-0.1,0.1-0.2,0.1c0,0,0,0,0,0c0,0,0,0,0,0c0,0-0.1,0-0.3,0.2c-0.1,0.1-0.3,0.2-0.5,0.4c-0.2,0.2-0.9,0.8-1,1
		c0,0,0,0.1,0,0.1c-0.1,0.1-0.1,0.3-0.2,0.4c0,0,0,0,0,0.1c0,0,0,0,0,0l0,0c-0.2,0.2-0.5,1.6-0.5,1.7C10.2,58.8,10.2,59.1,10.2,59.3
		z"/>
	<path class="st1" d="M24.2,64.7c-0.1,0.1-0.3,0.1-0.4,0.1h-0.2l-1.2-0.1c-0.3,0-0.5,0-1.4,0l-1.6,0l0,0v0c-0.5,0.1-0.9,0.3-1.3,0.4
		l-0.4,0.1c0,0,0,0,0,0c-0.1,0-0.3-0.1-0.3-0.2c0-0.1-0.1-0.2,0-0.2c0.2-0.4,0.7-0.4,0.7-0.4c0.1,0,0.1,0,0.2-0.1
		c0.5-0.2,0.7-0.4,0.9-1.8c0-0.5,0-2.5,0-2.9c0-0.2,0-0.5,0-0.7c0-0.2,0-0.5,0-0.7c0-0.1,0,0.1,0-0.9c0,0,0-0.1,0-0.2
		c0-0.1,0-0.3,0-0.5c0-0.2,0-0.5,0-0.7c0-0.2,0-0.4,0-0.6c0-0.1,0-0.2,0-0.3c0-0.4-0.1-0.5-0.1-0.8c0-0.1,0.2-0.1,0.4-0.2h0.1
		c0.2,0,0.5-0.1,0.5,0.1c0,0.1,0,0.2,0,0.3c0,0.1-0.1,0.3-0.1,0.6v0.8c0,0.3,0,0.5,0,0.8c0,0.1,0,0.4,0,1c-0.1,2,0,2.6-0.1,3.5
		c0,0.1,0,0.5,0,1c0,0.4,0,0.8,0,0.9c0,0.2,0,0.5,0.1,0.7c0.2,0.2,0.6,0.2,1.4,0.3c0.1,0,0.5,0,0.6,0c0.1,0,0.1,0,0.2,0
		c1.4,0.1,1.5-0.2,1.9-0.3c0,0,0.1,0,0.1,0.1c0.1,0.2,0,0.5,0.1,0.7C24.4,64.7,24.4,64.6,24.2,64.7z"/>
	<path class="st1" d="M31.4,64.7c-0.1,0.1-0.3,0.1-0.4,0.1h-0.2l-1.2-0.1c-0.3,0-0.5,0-1.4,0l-1.6,0l0,0v0c-0.5,0.1-0.9,0.3-1.3,0.4
		L25,65.2c0,0,0,0,0,0c-0.1,0-0.3-0.1-0.3-0.2c0-0.1-0.1-0.2,0-0.2c0.2-0.4,0.7-0.4,0.7-0.4c0.1,0,0.1,0,0.2-0.1
		c0.5-0.2,0.7-0.4,0.9-1.8c0-0.5,0-2.5,0-2.9c0-0.2,0-0.5,0-0.7c0-0.2,0-0.5,0-0.7c0-0.1,0,0.1,0-0.9c0,0,0-0.1,0-0.2
		c0-0.1,0-0.3,0-0.5c0-0.2,0-0.5,0-0.7c0-0.2,0-0.4,0-0.6c0-0.1,0-0.2,0-0.3c0-0.4-0.1-0.5-0.1-0.8c0-0.1,0.2-0.1,0.4-0.2h0.1
		c0.2,0,0.5-0.1,0.5,0.1c0,0.1,0,0.2,0,0.3c0,0.1-0.1,0.3-0.1,0.6v0.8c0,0.3,0,0.5,0,0.8c0,0.1,0,0.4,0,1c-0.1,2,0,2.6-0.1,3.5
		c0,0.1,0,0.5,0,1c0,0.4,0,0.8,0,0.9c0,0.2,0,0.5,0.1,0.7c0.2,0.2,0.6,0.2,1.4,0.3c0.1,0,0.5,0,0.6,0c0.1,0,0.1,0,0.2,0
		c1.4,0.1,1.5-0.2,1.9-0.3c0,0,0.1,0,0.1,0.1c0.1,0.2,0,0.5,0.1,0.7C31.6,64.7,31.5,64.6,31.4,64.7z"/>
	<path class="st1" d="M32.4,58.3c0.1-0.4,0.2-0.6,0.3-1c0-0.1,0-0.2,0.1-0.3c0-0.1,0-0.2,0.1-0.4v0c0-0.1,0-0.1,0.1-0.2
		c0.1-0.1,0.2-0.3,0.3-0.5c0.1-0.2,0.3-0.5,0.3-0.5c0.1-0.1,0.2-0.1,0.3-0.2l0-0.1c0.1-0.1,0.1-0.1,0.2-0.2c0.2-0.1,0.3-0.2,0.5-0.4
		l0,0c0,0,0.1-0.1,0.1-0.1c0.1-0.1,0.2-0.1,0.2-0.2c0.1,0,0.2-0.1,0.3-0.1c0.1-0.1,0.3-0.1,0.4-0.2c0.3-0.1,0.6-0.1,0.8-0.1
		c0.2,0,0.4,0.1,0.6,0.1c0.1,0,0.2,0.1,0.3,0.2c0.1,0,0.1,0.1,0.2,0.1c0.2,0.1,0.3,0.2,0.5,0.4c0.1,0.1,0.1,0.1,0.2,0.2
		c0,0.1,0.1,0.1,0.1,0.1c0,0,0.1,0.1,0.1,0.1c0.1,0.1,0.1,0.1,0.1,0.2c0,0,0.1,0,0.1,0.1c0.1,0.1,0.1,0.1,0.2,0.2
		c0,0,0.1,0.1,0.1,0.1c0.1,0.1,0.1,0.1,0.2,0.3c0.1,0.2,0.1,0.3,0.2,0.4c0,0,0,0.1,0.1,0.2c0,0,0,0,0,0.1c0,0,0,0.1,0,0.1
		c0,0.1,0,0.1,0.1,0.2c0.1,0.2,0.1,0.4,0.2,0.6c0,0.1,0.1,0.2,0.1,0.3c0.1,0.2,0.1,0.4,0.2,0.7c0.1,1.9-0.2,2.7-0.3,2.9
		c0,0,0,0,0,0.1c-0.1,0.2-0.1,0.4-0.2,0.6c-0.1,0.1-0.1,0.2-0.2,0.3c-0.1,0.1-0.2,0.2-0.2,0.3c-0.1,0.1-0.2,0.3-0.3,0.4
		c0,0-0.1,0.1-0.2,0.2c-0.1,0.1-0.2,0.2-0.2,0.3c-0.2,0.3-0.4,0.5-0.7,0.7c-0.1,0.1-0.2,0.1-0.3,0.1c-0.1,0-0.2,0.1-0.3,0.1
		c-0.1,0-0.1,0-0.1,0c0,0-0.1,0-0.1,0c-0.1,0-0.1,0-0.2,0c-0.1,0-0.2,0-0.3,0.1c-0.2,0-0.4,0-0.6,0c0,0,0,0-0.1,0
		c-0.5-0.1-0.9-0.3-1.3-0.7c0,0-0.4-0.4-0.6-0.6c-0.2-0.2-0.4-0.4-0.5-0.6c0-0.1-0.2-0.6-0.2-0.6c-0.1-0.2-0.2-0.4-0.3-0.7
		c0-0.2-0.1-0.9-0.1-1.2c0-0.1,0-0.1,0-0.1c0-0.2-0.1-0.6-0.1-0.8c0,0,0-0.1,0-0.1C32.2,59,32.3,58.3,32.4,58.3z M33.1,59.3
		c0,0.2,0,0.3,0,0.5c0,0.2,0.1,1.5,0.3,1.8c0.1,0.1,0.1,0.1,0.1,0.2c0,0,0.1,0.1,0.1,0.2c0,0.1,0.1,0.1,0.1,0.1
		c0.2,0.4,0.9,1.2,1,1.3c0.1,0.1,0.3,0.2,0.4,0.3c0,0,0.1,0,0.1,0.1c0.1,0.1,0.1,0.1,0.2,0.1c0.1,0,0.1,0,0.2,0c0.1,0,0.1,0,0.2,0
		c0.1,0,0.1,0,0.2,0c0.1,0,0.1,0,0.2,0h0c0,0,0.1,0,0.1,0c0.1,0,0.1,0,0.2,0c0.1,0,0.7-0.2,0.8-0.4c0.1-0.1,0.1-0.1,0.2-0.2
		c0.1-0.1,0.1-0.2,0.2-0.2c0.1-0.1,0.1-0.2,0.2-0.2c0.1-0.1,0.2-0.1,0.2-0.2c0,0,0,0,0.1,0c0.2-0.2,0.6-0.8,0.6-1
		c0-0.2,0-0.2,0.1-0.3c0,0,0-0.1,0.1-0.1c0.1-0.1,0.2-0.8,0.2-1c0-0.3,0-1.8-0.2-2.2c0,0,0,0,0,0c-0.2-0.5-0.3-0.8-0.4-1
		c-0.1-0.3-0.9-1.3-1.2-1.4c-0.1-0.1-0.3-0.2-0.5-0.3c0,0,0,0-0.1,0c-0.1,0-0.2-0.1-0.4-0.2c-0.1,0-0.3,0-0.4,0.1c0,0,0,0,0,0
		c-0.1,0-0.1,0.1-0.2,0.1c0,0,0,0,0,0c0,0,0,0,0,0s-0.1,0-0.3,0.2c-0.1,0.1-0.3,0.2-0.5,0.4c-0.2,0.2-0.9,0.8-1,1c0,0,0,0.1,0,0.1
		c-0.1,0.1-0.1,0.3-0.2,0.4c0,0,0,0,0,0.1c0,0,0,0,0,0l0,0c-0.2,0.2-0.5,1.6-0.5,1.7C33,58.8,33.1,59.1,33.1,59.3z"/>
</g>
</svg>
