<svg id="Capa_2" data-name="Capa 2" xmlns="http://www.w3.org/2000/svg" viewBox="0 0 320.86 92.05"><defs><style>.cls-1{fill:#522a02;}</style></defs><title>promociones</title><g id="Promociones"><path class="cls-1" d="M730.8,676.37l8.09,1.26c-0.82,2.15,1.95,3.83,4.16,4.48a131,131,0,0,1-17.73-.27q-104.82-6.26-209.91-5.44a8.72,8.72,0,0,0-4.63.9c-1.35.85-2.13,2.81-1.17,4.08-1.91-.82-1.69-3.88-0.07-5.19s3.88-1.35,6-1.34c72.7,0.49,145.46,1,218,6.25,2.18,0.16,5.3-.65,4.89-2.79a57.1,57.1,0,0,1-12.17,0A3.3,3.3,0,0,1,730.8,676.37Z" transform="translate(-477.76 -593.71)"/><path class="cls-1" d="M726.15,685.59l-2.77-.52c1.33-1.07,3.26-.66,4.9-0.19C728.13,685.7,727,685.74,726.15,685.59Z" transform="translate(-477.76 -593.71)"/><path class="cls-1" d="M540.75,661.38l-3.79.28a3.6,3.6,0,0,1-2.58-.46c-0.92-.75-0.87-2.15-0.73-3.33l2-17.38c0.4-3.46,4-5.71,7.47-6.22a7.9,7.9,0,0,1,5.46.85c2.37,1.54,3.11,4.65,3.31,7.47a11.08,11.08,0,0,1-.64,5.37c-1.58,3.5-5.79,4.87-9.59,5.45a1.84,1.84,0,0,0-1.39.65,1.78,1.78,0,0,0-.19.74c-0.22,2-.24,4.5,1.47,5.63,0.46,0.31-.27.9-0.83,0.94m-0.63-20.16a66.63,66.63,0,0,0-.44,7.91,2.76,2.76,0,0,0,2.62,2.52,4.37,4.37,0,0,0,3.47-1.69,11.16,11.16,0,0,0,1.81-3.55c0.83-2.35,1.5-5,.65-7.3s-3.82-4-5.93-2.71c-1.54,1-2,3-2.18,4.81m-5.65,16.63a2.56,2.56,0,0,0,.09,1.37,0.89,0.89,0,0,0,1.14.5q1.09-10.41,2.59-20.76a0.72,0.72,0,0,0-1,.13,2.09,2.09,0,0,0-.38,1.08q-1.34,8.82-2.42,17.68m3.76-3.92a12.22,12.22,0,0,0-.84,5.44,1,1,0,0,0,.23.68,1.11,1.11,0,0,0,.67-1.28l-0.06-4.84m12.34-10.09c0.12-.78.15-1.75-0.51-2.17a6.91,6.91,0,0,0-.58,4.73,2.63,2.63,0,0,0,.87-2.5M548.8,648a0.92,0.92,0,0,0-.36,1.31,1.46,1.46,0,0,0,1.18-1.51,0.49,0.49,0,0,0-.8.18Z" transform="translate(-477.76 -593.71)"/><path class="cls-1" d="M737.67,685.27a14.31,14.31,0,0,1-6,.31c-0.34-.05-0.78-0.36-0.57-0.63l5.18-.48C736.94,684.41,737.84,684.67,737.67,685.27Z" transform="translate(-477.76 -593.71)"/><path class="cls-1" d="M609.05,661.35a3.84,3.84,0,0,1-1.92,1.48c-0.76.35-1.83,0.6-2.31-.09a1.88,1.88,0,0,1-.22-1.12l0.21-14.5c-0.79-.35-1.37.79-1.49,1.65l-0.38,2.75a7.16,7.16,0,0,1-.78,2.78,2.44,2.44,0,0,1-2.42,1.26c-1.26-.26-1.83-1.69-2.29-2.9a24.19,24.19,0,0,0-2.77-5.25,1.65,1.65,0,0,0-.57,1.68l0.82,13.17c0.05,0.87-1.1,1.26-2,1.17s-1.88-.32-2.51.28a1.79,1.79,0,0,1-.62-1.64l-0.21-20.58a3.58,3.58,0,0,1,.38-2,2.41,2.41,0,0,1,3.06-.55,6.29,6.29,0,0,1,2.29,2.47,39,39,0,0,1,2.66,5.17,4.92,4.92,0,0,0,1.75,2.55l1.52-7.24a2.62,2.62,0,0,1,3.12-2.55,6.23,6.23,0,0,1,2.57.22,2.13,2.13,0,0,1,1.46,1.94,89.2,89.2,0,0,0,.76,17.33,4.15,4.15,0,0,1-.16,2.54M591.74,659l0.44-15.25c0-.7-0.39-1.71-1-1.4a64,64,0,0,0,.59,16.65M607,660.88a2.63,2.63,0,0,0-.64-2.88,3.45,3.45,0,0,0-.75,2.13,1.19,1.19,0,0,0,1.63,1m-14-18.61a1.63,1.63,0,0,0,.91,1.46,2.16,2.16,0,0,0-.75-2.28l-0.18.81m7.63,7.15a0.79,0.79,0,1,0-.21,1.54,2.49,2.49,0,0,0,.31-1.48m-1.61,3.76c0.37,0.08,1-.12.76-0.44s-1.09.08-.78,0.48m-7.77,6.6a1,1,0,0,0-.1,1.23,1.08,1.08,0,0,0,.27-1.16Z" transform="translate(-477.76 -593.71)"/><path class="cls-1" d="M498.28,621.29l5.74,0.5a2.14,2.14,0,0,1,1.14.32,0.74,0.74,0,0,1,.17,1,36.25,36.25,0,0,1-10,.42,1.43,1.43,0,0,1,.59-2A4.13,4.13,0,0,1,498.28,621.29Z" transform="translate(-477.76 -593.71)"/><path class="cls-1" d="M571.61,659.88a3.25,3.25,0,0,1-.15,1.36c-0.5,1.27-2.15,1.56-3.51,1.53a3.15,3.15,0,0,1-1.7-.39,1.2,1.2,0,0,1-.47-1.53,6.05,6.05,0,0,0-4.08-9.16,9.26,9.26,0,0,1-2.11-.41,1.58,1.58,0,0,1-1-1.68,5.74,5.74,0,0,0,5.47-2,4.38,4.38,0,0,0-.21-5.59,3.55,3.55,0,0,0-5.29.47,6.22,6.22,0,0,0-.64,3.05l-0.62,16.25c-0.66-1.58-3.94.32-4.53-1.28a1.86,1.86,0,0,1,0-.81l1.54-16.51a4.4,4.4,0,0,1,.43-1.79,3.87,3.87,0,0,1,1.34-1.25,11.57,11.57,0,0,1,6.81-2,7.6,7.6,0,0,1,6,3.4,5.7,5.7,0,0,1-.51,6.69c-1,1.11,0,2.85.82,4.13a15.05,15.05,0,0,1,2.44,7.47m-17.52.06,1.15,0.22q0.91-7.53,1.1-15.13a0.54,0.54,0,0,0-.83,0,1.55,1.55,0,0,0-.28.92l-1.13,14m14.47-3.17a6.86,6.86,0,0,0-2-4.95,1.32,1.32,0,0,0-1.63-.44,29.44,29.44,0,0,0,3.6,5.39m-4.49-16.21a11.78,11.78,0,0,0,2.19,2,2.71,2.71,0,0,0-3.27-2.79l1,0.85m3.56,5,0.53,0.36a2.28,2.28,0,0,0-.28-3.3,10.84,10.84,0,0,0-.13,2.82m-2.49,4a1.12,1.12,0,0,0,.73-1.26,0.89,0.89,0,0,0-.73,1.34v-0.08Z" transform="translate(-477.76 -593.71)"/><path class="cls-1" d="M509,623.52a2.59,2.59,0,0,1,1.8-2.11,7.63,7.63,0,0,1,2.9-.28l4.89,0.17c0.82,0,1.81.17,2.14,0.92-1.09,1.21-2.92,1.29-4.55,1.29H509Z" transform="translate(-477.76 -593.71)"/><path class="cls-1" d="M663.53,616.63a360.44,360.44,0,0,1,37.88-9.55,1,1,0,0,1,.48,0,0.68,0.68,0,0,1,.15,1.07,2,2,0,0,1-1.16.48,261.14,261.14,0,0,0-38.38,9.87,0.8,0.8,0,0,1-.19-1.19A2.3,2.3,0,0,1,663.53,616.63Z" transform="translate(-477.76 -593.71)"/><path class="cls-1" d="M477.82,622.54a1.78,1.78,0,0,1,1.71-.77l9.51-.42a2.41,2.41,0,0,1,1.75.38c0.46,0.41.36,1.37-.25,1.43l-10.24.94a3.48,3.48,0,0,1-1.74-.14A1.2,1.2,0,0,1,477.82,622.54Z" transform="translate(-477.76 -593.71)"/><path class="cls-1" d="M709.57,642.52a7.43,7.43,0,0,0,3.45,2.86c2,0.8,4.42.79,6,2.28,1.73,1.67,1.57,4.44,1.22,6.82a8.8,8.8,0,0,1-1.67,4.69,8.54,8.54,0,0,1-4.24,2.19,11.56,11.56,0,0,1-5.48.56c-2.36-.5-4.23-2.31-5.64-4.27a1.18,1.18,0,0,1-.3-0.75,1.22,1.22,0,0,1,.64-0.8l1.94-1.34a2.42,2.42,0,0,1,1.09-.51c0.88-.09,1.53.74,2.1,1.41a9.29,9.29,0,0,0,3.83,2.65,4.52,4.52,0,0,0,3.35.11c1.68-.75,2.28-3,1.66-4.75a7.86,7.86,0,0,0-3.75-3.91c-1.6-.91-3.35-1.56-4.89-2.58a6.61,6.61,0,0,1-3.15-4.34,5.36,5.36,0,0,1,2.58-5.06,8.09,8.09,0,0,1,5.8-.87c2,0.38,4,1.61,4.34,3.58,0.15,1-.76,2.25-1.59,1.72a15.76,15.76,0,0,0-4.76-2c-1.12-.27-2.72-0.12-2.89,1a2,2,0,0,0,.4,1.32m-3.1,13.94a0.65,0.65,0,0,0-.86.63,1.62,1.62,0,0,0,.6,1.09,7.75,7.75,0,0,0,6.8,2l-6.54-3.74m11.59-7.5a2.46,2.46,0,0,0-2.88-1.18l3.84,4.34a2.68,2.68,0,0,0-.9-3.17h-0.06Z" transform="translate(-477.76 -593.71)"/><path class="cls-1" d="M525.86,623.5a2.11,2.11,0,0,1,1.21-2.5,6.14,6.14,0,0,1,3-.36L537,621a0.88,0.88,0,0,1,.83.37,0.78,0.78,0,0,1-.26.77c-1.36,1.47-3.62,1.54-5.62,1.5Z" transform="translate(-477.76 -593.71)"/><path class="cls-1" d="M611,645.32c0.73-2.65,2-5.38,4.4-6.73a6.47,6.47,0,0,1,6.29.06c2.51,1.46,3.7,4.41,4.49,7.2a18.89,18.89,0,0,1,.87,7.95,8.31,8.31,0,0,1-4.36,6.39,13.13,13.13,0,0,1-5.35,1.58c-1.87,0-3.89-1-4.4-2.84a8.65,8.65,0,0,0-1.1-2c-2.07-3.4-1.89-7.74-.83-11.58m9.2-3.31c-1.28-.34-2.52.71-3.2,1.84-2.07,3.42-1.39,7.76-.65,11.68a4.54,4.54,0,0,0,1.09,2.59,2.88,2.88,0,0,0,3.14.31,5.66,5.66,0,0,0,2.31-2.36,11.55,11.55,0,0,0-1.13-12.91,3.27,3.27,0,0,0-1.56-1.16m-6.1,14.24-1.25-4.89-0.82-.17a8.06,8.06,0,0,0,1.46,5.9,0.37,0.37,0,0,0,.62-0.09,1.08,1.08,0,0,0,0-.75M614,644.85a0.91,0.91,0,0,0,.22.91,5.12,5.12,0,0,0,1.72-3.54,2.68,2.68,0,0,0-1.87,2.61Z" transform="translate(-477.76 -593.71)"/><path class="cls-1" d="M542.58,624.28c-0.46-1.27.69-2.62,2-3a18.16,18.16,0,0,1,4-.34c2.07-.18,4.59-0.95,5.93.65-0.63,1.37-2.39,1.71-3.89,1.87Z" transform="translate(-477.76 -593.71)"/><path class="cls-1" d="M664.81,659.8a6.64,6.64,0,0,1-2.74.65,5.85,5.85,0,0,1-3-1.11,12.14,12.14,0,0,1-5.08-9.07,16.53,16.53,0,0,1,2.79-10.18,8.13,8.13,0,0,1,2.93-2.95c2.84-1.46,6.5.16,8.32,2.79s2.23,6,2.45,9.14c0.17,2.42.23,5-1,7.1a9.53,9.53,0,0,1-4.64,3.63M662.48,657a2.73,2.73,0,0,0,2.36-.6,8,8,0,0,0,3.06-6.34,12.22,12.22,0,0,0-2.24-6.83,4.14,4.14,0,0,0-1.42-1.45,3.11,3.11,0,0,0-3.6.9,7.16,7.16,0,0,0-1.48,3.66c-0.58,3.46-.19,7.35,2.23,9.89a2.76,2.76,0,0,0,1.09.77m-5.71-7.46a12,12,0,0,0-.34-2.61,0.74,0.74,0,0,0-.77-0.67,12.27,12.27,0,0,0,2.43,10.79,35.93,35.93,0,0,1-1.32-7.51m5.94-10.83a8.9,8.9,0,0,0,2.7,1.62,2.49,2.49,0,0,0-2.65-2.09m-4.87,3.85a1,1,0,0,0,.52-1.42,1.73,1.73,0,0,0-1.21.94c-0.15.51,0.6,1.09,0.9,0.65Z" transform="translate(-477.76 -593.71)"/><path class="cls-1" d="M717.42,624.59a1.36,1.36,0,0,1-.56.34,19.36,19.36,0,0,1-11.13.83,2.26,2.26,0,0,1-1.6-.92,1.64,1.64,0,0,1,.85-2.07,4.75,4.75,0,0,1,2.44-.31l8.2,0.41a2.82,2.82,0,0,1,1.5.36A1,1,0,0,1,717.42,624.59Z" transform="translate(-477.76 -593.71)"/><path class="cls-1" d="M576.87,613.38a3.29,3.29,0,0,1-2.36-.53,113.2,113.2,0,0,0-25.33-9.28c-1.15-.27-2.47-0.65-2.94-1.74a3,3,0,0,1,2.29,0,176.87,176.87,0,0,1,26.92,9.77C576.21,611.94,577.11,612.58,576.87,613.38Z" transform="translate(-477.76 -593.71)"/><path class="cls-1" d="M749.86,621.59a9.65,9.65,0,0,1,3.68.47,3.28,3.28,0,0,1,2.18,2.77l-12.59.75c-0.71-1.11-1.36-2.74-.34-3.57a2.74,2.74,0,0,1,1.76-.41h5.31Z" transform="translate(-477.76 -593.71)"/><path class="cls-1" d="M671.53,659.17l-0.09-10.56-0.07-8.12a4.68,4.68,0,0,1,.82-3.31c1.07-1.15,3.08-.87,4.26.16a9.28,9.28,0,0,1,2.28,4.07l1.06,3c1,2.83,2,5.74,1.94,8.75a3.83,3.83,0,0,0,.12,1.47,1.09,1.09,0,0,0,1.13.76,0.65,0.65,0,0,0,.29-1.11,1.25,1.25,0,0,1-.29-1.53,3.56,3.56,0,0,0,.45-1.62l-1.62-12.65a2.38,2.38,0,0,1,.12-1.46c0.48-.87,1.74-0.79,2.72-0.59s2,0.64,1.91,1.53c-0.43,6.12-.86,12.28,0,18.36,0.12,0.86.19,1.91-.51,2.44a1.8,1.8,0,0,1-.77.3c-2.63.47-4.89-2.08-5.67-4.64s-0.73-5.37-1.88-7.78a0.89,0.89,0,0,0-1-.67,72.11,72.11,0,0,0,.86,11.63c0.16,1-.86,1.86-1.86,2.11s-2.07.15-3,.5a1.17,1.17,0,0,1-.52.11,1,1,0,0,1-.6-1.16m0.93-18.44q-0.18,8.15.33,16.29c0,0.61.65,1.44,1,1a0.77,0.77,0,0,0,.11-0.46q0.24-7.53-.12-15.07C673.77,641.59,673.25,640.4,672.46,640.73Z" transform="translate(-477.76 -593.71)"/><path class="cls-1" d="M721.72,623a4.74,4.74,0,0,1,3.29-1.17,34.24,34.24,0,0,1,7.72.34c1.43,0.23,3.21,1,3.08,2.44a2.3,2.3,0,0,1-2.28,1.76c-1,.07-2.08-0.26-3.13-0.29s-1.86.19-2.8,0.2A6.85,6.85,0,0,1,721.72,623Z" transform="translate(-477.76 -593.71)"/><path class="cls-1" d="M694.4,644.25c-0.6.92,0.18,2.21,1.19,2.64a10.77,10.77,0,0,0,3.26.41,3,3,0,0,1,2.69,1.59,3.57,3.57,0,0,1-5,2.06,1.65,1.65,0,0,0-2.06.72A4.79,4.79,0,0,0,694,654a3.87,3.87,0,0,0,.55,2.79,3.38,3.38,0,0,0,2.79.84,6.42,6.42,0,0,1,2.9.19c0.9,0.39,1.51,1.61.9,2.37-0.85.9-2.32,0.63-3.54,0.4s-2.82-.14-3.27,1a0.89,0.89,0,0,1-1.28.2c-0.42-.26-0.71-0.7-1.15-0.94a10.85,10.85,0,0,0-2.11-.42c-0.69-.21-1.23-1.2-0.64-1.61,1.12-.78,1.28-2.35,1.34-3.71,0.23-5.23.46-10.52-.54-15.66a2.48,2.48,0,0,1,0-1.25c0.34-1,1.76-1.1,2.84-1L702,638.4a1.09,1.09,0,0,1,.81.35,1.08,1.08,0,0,1,.13.55l0.23,4.64L697,643.5c-0.95-.07-2.09-0.05-2.61.75M692.3,654c-0.28-.42-0.84.22-0.89,0.72a10.18,10.18,0,0,0,.38,3.85c0.36,0.41.9-.32,0.92-0.86a11.89,11.89,0,0,0-.42-3.7M698.8,641a2.26,2.26,0,0,0,2.45-.65,1.42,1.42,0,0,0-2.69.73m-5.41,2.81a2.73,2.73,0,0,0-.72,2.94c0.37,0.48,1.1-.25,1-0.85a2.85,2.85,0,0,1-.07-1.76m-1.34-2a1.2,1.2,0,0,0,1.63-.31,2,2,0,0,0-1.12-.81,1,1,0,0,0-.62,1.15m4.85-2.14a1,1,0,0,0-.9.19l0.52,0.77,0.95-.54-0.48-.51Z" transform="translate(-477.76 -593.71)"/><path class="cls-1" d="M776.18,624.69l-11.47.62c-1.62.09-2.8-1.46-3.67-2.84,1.14-1.41,3.23-1.48,5-1.42l7.07,0.22a4.84,4.84,0,0,1,3,.76C776.95,622.7,777.11,624.2,776.18,624.69Z" transform="translate(-477.76 -593.71)"/><path class="cls-1" d="M579.18,663.21a10.66,10.66,0,0,1-5.07-7.24,31.58,31.58,0,0,1-.29-9.09c0.13-1.94.31-4,1.6-5.48s3.41-1.91,5.35-2.26c1.27-.23,2.91-0.28,3.48.88A27.64,27.64,0,0,1,587,653.92a14,14,0,0,1-1,4.71,9.46,9.46,0,0,1-4.23,4.53,2.86,2.86,0,0,1-1.39.41,2.78,2.78,0,0,1-1.16-.36m1.79-19a28.65,28.65,0,0,0-2.09,7.34,9.66,9.66,0,0,0,1.91,7.21,1.72,1.72,0,0,0,1.34.75,1.9,1.9,0,0,0,1.32-1.65,27.72,27.72,0,0,0,.92-6.72c0-2.76-.77-6.09-3.4-6.94m-4-1.59a21.08,21.08,0,0,0-.89,14.74c0.29,0.94,1.12,2.08,2,1.64a23,23,0,0,1,.07-16.24l-1.19-.14m5.28-.86c-0.68-.4-1.89-0.34-1.9.45l4,2.52A4.45,4.45,0,0,0,582.23,641.81Z" transform="translate(-477.76 -593.71)"/><path class="cls-1" d="M631.12,658.9a5,5,0,0,1-1.15-1.81,18,18,0,0,1,0-13.86c0.86-2,2.26-4,4.35-4.74a7.87,7.87,0,0,1,4.25,0,5.93,5.93,0,0,1,2.78,1.27,2.61,2.61,0,0,1,.78,2.79c-1.67.9-4,.16-5.49,1.28a5.06,5.06,0,0,0-1.6,3.47c-0.33,2.16-.44,4.52.69,6.4s3.91,2.88,5.59,1.48a1.15,1.15,0,0,1,1.7.73,2.27,2.27,0,0,1-.69,2c-1.72,1.87-4.58,2-7.12,2-1.43,0-3-.05-4.05-1m2.41-2.1c0.66,0.52,1.83.83,2.17,0.06a10.1,10.1,0,0,1-4.47-9.53c-0.5-.44-1.13.41-1.2,1.07a9.51,9.51,0,0,0,3.51,8.4M632.7,644.2a1.7,1.7,0,0,0,.43,1.8,2.93,2.93,0,0,0,.82-2.52,1.07,1.07,0,0,0-1.23.72M633.21,658a1.79,1.79,0,0,0-1.86-1.13,1.53,1.53,0,0,0,2.13,1.38Z" transform="translate(-477.76 -593.71)"/><path class="cls-1" d="M793.49,621.22a11.55,11.55,0,0,0,3.11.67c1,0.23,2.15,1,2,2.1l-11.9,1.1a3,3,0,0,1-2.1-.32c-0.54-.4-0.84-1.19-1.51-1.27-0.86-.11-0.77-1.55,0-2a3.91,3.91,0,0,1,2.54,0,10.18,10.18,0,0,0,4.57-.15C791.3,621.14,792.5,620.68,793.49,621.22Z" transform="translate(-477.76 -593.71)"/><path class="cls-1" d="M644.93,613.82c-0.42-.36.1-1,0.57-1.29l19-11.36a1,1,0,0,1,1.18-.13c0.43,0.42-.14,1.09-0.66,1.4L646.9,613.29A2.59,2.59,0,0,1,644.93,613.82Z" transform="translate(-477.76 -593.71)"/><path class="cls-1" d="M621.83,613.15a1.16,1.16,0,0,1-.1-0.28c-1.7-6.3-1.58-13.06-3.92-19.15a2.36,2.36,0,0,1,2.23,1.4,7.41,7.41,0,0,1,.58,2.72,71.94,71.94,0,0,0,2.51,13.38,2.45,2.45,0,0,1,.08,1.68A0.83,0.83,0,0,1,621.83,613.15Z" transform="translate(-477.76 -593.71)"/><path class="cls-1" d="M601.9,614.62a6.17,6.17,0,0,1-2.45-2.37,67.67,67.67,0,0,0-13.19-13.77c-0.4-.31,0-1,0.5-1.07a1.92,1.92,0,0,1,1.33.64,97.11,97.11,0,0,1,13.42,14.44C602,613.12,602.44,614,601.9,614.62Z" transform="translate(-477.76 -593.71)"/><path class="cls-1" d="M682.74,621.63a124.49,124.49,0,0,1,18.82-3.44,2.67,2.67,0,0,1,1.44.12,0.93,0.93,0,0,1,.51,1.2,102.34,102.34,0,0,0-22,4,0.89,0.89,0,0,1,0-1.27A2.54,2.54,0,0,1,682.74,621.63Z" transform="translate(-477.76 -593.71)"/><path class="cls-1" d="M529.9,608.4a1.17,1.17,0,0,1,1.45-.11L548,615.18a1,1,0,0,1,.54.39,0.68,0.68,0,0,1-.53.88,2,2,0,0,1-1.15-.23l-16-6.75A1.24,1.24,0,0,1,529.9,608.4Z" transform="translate(-477.76 -593.71)"/><path class="cls-1" d="M644.65,638.09a8.17,8.17,0,0,1,6.37.31,1.88,1.88,0,0,1,1.3,1.73,73.72,73.72,0,0,0-.9,15.27c0.06,1.36.06,3-1,3.78s-2.92.32-4.29,0.87a5.54,5.54,0,0,1-.72-3.71q0.23-6.33-.11-12.67c-0.08-1.53-.26-3.21-1.39-4.24-0.46-.42.18-1.12,0.76-1.34m3.15,17.83-0.42-12.41c0-.64-0.21-1.48-0.85-1.54a95.71,95.71,0,0,0,.46,15.51c0.66,0,.84-0.9.82-1.56m0.64-7.46a0.89,0.89,0,0,0,.85,1.13,7.83,7.83,0,0,0-.57-4.35,6,6,0,0,0-.27,3.2v0Z" transform="translate(-477.76 -593.71)"/></g></svg>