<svg id="Capa_2" data-name="Capa 2" xmlns="http://www.w3.org/2000/svg" viewBox="0 0 174.47 107.32"><defs><style>.cls-1{fill:#fff;}.cls-2{fill:#b9a16e;}.cls-3{fill:#723a06;}</style></defs><title>res</title><path class="cls-1" d="M1290.39,629.43a32.84,32.84,0,0,0-2.5-3.57c2.72-.19,7.19-1.17,9.24-5.31,0,0-6.9,2.33-11.91,2.26-1.06-1.11-1.81-1.79-1.81-1.79,5.47-4.65,3.47-8.4,3.47-8.4-0.32,3.79-7.76,6.94-9,8.27a1.78,1.78,0,0,0,0,2.56,16.79,16.79,0,0,1-13.38,4.56c-8.34-.86-8.91.77-12.54,0.77s-7.41-1.65-13.11-1.85-15.94,2.1-21.32,2.16a45.85,45.85,0,0,0-7.67-.06c-5,.29-4.3-0.48-11.69-0.38s-8.5,2.77-18.81-.1-6.22-1-14.62-2.45a21.54,21.54,0,0,0-11.84,1.06h0s-10.81-.19-12.58,10.22,0.72,15.08-1,25.2a5.07,5.07,0,0,0-2,4.5c0.1,3.21,1.94,4.11,1.5,6.67l0.86-.64s4.58-7.21.25-10.25a26.13,26.13,0,0,0,1.31-10.17c-0.31-6.11-.86-15.79,4.22-20.38l0,0c-4.36,4.84-.46,19.09-0.21,29.2s-4.49,14.06-7.29,16.29-1.56,4-1.3,7.89-3.28,21-4.14,21.73-1.59,1.11-1.4,2.1,1.79,0.1,1.79.1a4.33,4.33,0,0,1,.41,2.74c-0.41,1-1.24,3.44,2,4.9s9.55,0,9.55,0-3.37-2.42-4.45-5.41-0.92-11.17.67-17c1.53-5.56,7.36-10.85,12.49-17.79,0.3,0.31.62,0.63,1,.95a58.9,58.9,0,0,1-2.68,7.23c-1.27,2.48.57,3.47,2,7.64s5.85,14.83,6,17.12a4.68,4.68,0,0,1-.73,3.21,1.81,1.81,0,0,0,2.86.45c1.65-1.5,1.94,3.18,1.94,3.18s6.87,1.5,10.21-.8a44.71,44.71,0,0,1-6.94-5.92c-2.45-2.83-5.38-10.23-5.43-13.9a70.39,70.39,0,0,1,1.41-10.17,0.49,0.49,0,0,0,.39.18,1.44,1.44,0,0,0,.93-0.25,1.34,1.34,0,0,0,2.06.38c0.3-.43.25-2.14,0.15-3.49l0.72,0c-0.07,1.57.06,3.36,1,3.39s1.43-2,1.6-3.75c0.56-.12,1.13-0.26,1.72-0.44-0.11,1.91,0,4.21,1,4.19,1.17,0,1.5-3.15,1.59-5.13a33.66,33.66,0,0,0,7.17-4.34,45.32,45.32,0,0,0,15.71,5.09c13.93,1.41,20.52-6.33,32.16-1.91-0.22,5.61-1,10.86-.53,13,0.53,2.39,1.48,4.06,1.24,6.83s-0.89,13.44-.32,14.24a0.88,0.88,0,0,0,1.46,0,1.06,1.06,0,0,1,1,.91c0,0.59.35,3.36,1.08,4s5.89,1.85,10.5,0c0,0-6.27-5.09-7-6.87s-2-9.74-1-13.55,2.29-6.59,2.72-10.21a47.53,47.53,0,0,1,.89-4.72,24.27,24.27,0,0,0,2.45.39c-0.26,3.4-.53,6.25-0.21,7.69,0.5,2.28,1.41,3.87,1.18,6.51s-0.85,12.82-.3,13.58a0.84,0.84,0,0,0,1.4,0,1,1,0,0,1,1,.87c0,0.56.33,3.2,1,3.81s5.61,1.76,10,0c0,0-6-4.86-6.68-6.56s-1.93-9.29-.93-12.93,2.19-6.28,2.6-9.74a48.35,48.35,0,0,1,1-5.09,25.48,25.48,0,0,0,4.16-2.84c5.78-4.72,14.53-21.08,14.53-21.08a4.77,4.77,0,0,0,3.44-2.74,16.88,16.88,0,0,0,9.1-1.43c2.43,1.1,10.64-.24,10.64-0.24,1.29,3.44,8.19,1.29,8.51,1.35s1.78,0.25,2.9-3.18-1.43-4.36-5-8.85A126.77,126.77,0,0,1,1290.39,629.43Z" transform="translate(-1131.1 -612.63)"/><path class="cls-2" d="M1165,678.72a3.48,3.48,0,0,0-.2,1.24l1.56-.64a4.35,4.35,0,0,0-.47-1A1.32,1.32,0,0,0,1165,678.72Z" transform="translate(-1131.1 -612.63)"/><path class="cls-2" d="M1162.89,628.31a3.48,3.48,0,0,0,1.24-.2,2,2,0,0,0,.42-0.93l-1-.41Z" transform="translate(-1131.1 -612.63)"/><path class="cls-2" d="M1177.28,645.16a3.65,3.65,0,0,0-.3.82h0.59l0.24-.83A1.07,1.07,0,0,0,1177.28,645.16Z" transform="translate(-1131.1 -612.63)"/><path class="cls-2" d="M1246.62,697.07a3.67,3.67,0,0,0,.82.3v-0.59l-0.83-.24A1.07,1.07,0,0,0,1246.62,697.07Z" transform="translate(-1131.1 -612.63)"/><path class="cls-2" d="M1176.15,637.69l0.45,1.41,1.21,0.25a5.94,5.94,0,0,0-.65-1.42A2,2,0,0,0,1176.15,637.69Z" transform="translate(-1131.1 -612.63)"/><path class="cls-2" d="M1235,697.36l0.83-.24v-0.59a3.66,3.66,0,0,0-.82.3A1.07,1.07,0,0,0,1235,697.36Z" transform="translate(-1131.1 -612.63)"/><path class="cls-2" d="M1232.84,701.51a1.91,1.91,0,0,0,.9-0.45,8.3,8.3,0,0,0,.22-1.74l-1.45-.29Z" transform="translate(-1131.1 -612.63)"/><path class="cls-2" d="M1245.36,648a3.25,3.25,0,0,0,.88.38,1.93,1.93,0,0,0,.36-0.64l-0.87-.11Z" transform="translate(-1131.1 -612.63)"/><path class="cls-2" d="M1245.78,686.59a1.07,1.07,0,0,0,.53,0,3.66,3.66,0,0,0,.3-0.82H1246Z" transform="translate(-1131.1 -612.63)"/><path class="cls-2" d="M1223.66,638.52l-0.41,1,1.54,0.64a3.47,3.47,0,0,0-.2-1.24A2,2,0,0,0,1223.66,638.52Z" transform="translate(-1131.1 -612.63)"/><path class="cls-2" d="M1234.17,677.71v0.59a3.67,3.67,0,0,0,.82-0.3,1.07,1.07,0,0,0,0-.53Z" transform="translate(-1131.1 -612.63)"/><path class="cls-2" d="M1250.33,690.7c0.2-.76.37-1.54,0.51-2.34a8.55,8.55,0,0,0-2.17,1.13C1249.23,689.95,1249.64,690.72,1250.33,690.7Z" transform="translate(-1131.1 -612.63)"/><path class="cls-2" d="M1231,676.64a1.68,1.68,0,0,0,.52,0l0.09-.87h-0.74A5.36,5.36,0,0,0,1231,676.64Z" transform="translate(-1131.1 -612.63)"/><path class="cls-2" d="M1231,674.16l-0.11.87,0.37,0.37a3.27,3.27,0,0,0,.38-0.88A1.93,1.93,0,0,0,1231,674.16Z" transform="translate(-1131.1 -612.63)"/><path class="cls-2" d="M1231.11,680.63c-0.2.09-.06,0.9-0.1,2a6.86,6.86,0,0,0,2.06-.86,1.7,1.7,0,0,0-.14-1.34A3.27,3.27,0,0,0,1231.11,680.63Z" transform="translate(-1131.1 -612.63)"/><path class="cls-2" d="M1235.41,692.81a3.27,3.27,0,0,0,.88.38,1.93,1.93,0,0,0,.36-0.64l-0.87-.11Z" transform="translate(-1131.1 -612.63)"/><path class="cls-2" d="M1228.75,691.59a8.17,8.17,0,0,0,.13,1.41c0.11,0.52.25,1,.39,1.46h1.16l1.66-1.66a4.89,4.89,0,0,1-2.06-.49A2.45,2.45,0,0,0,1228.75,691.59Z" transform="translate(-1131.1 -612.63)"/><path class="cls-2" d="M1229.61,695.29l1,0.41-0.13-1.24Z" transform="translate(-1131.1 -612.63)"/><path class="cls-2" d="M1206.82,660.89l0.83-.24v-0.59a3.66,3.66,0,0,0-.82.3A1.07,1.07,0,0,0,1206.82,660.89Z" transform="translate(-1131.1 -612.63)"/><path class="cls-2" d="M1235.83,689.22l0.33,1.14,1.35,0.35a1.56,1.56,0,0,0,0-.74A15.3,15.3,0,0,0,1235.83,689.22Z" transform="translate(-1131.1 -612.63)"/><path class="cls-2" d="M1229.51,695.3h0.1l-0.14-.14Z" transform="translate(-1131.1 -612.63)"/><path class="cls-2" d="M1202.68,657.58v0.59l0.83,0.24a1.07,1.07,0,0,0,0-.53A3.66,3.66,0,0,0,1202.68,657.58Z" transform="translate(-1131.1 -612.63)"/><path class="cls-2" d="M1244.12,648.33l0.87,0.09v-0.74a5.36,5.36,0,0,0-.87.13A1.69,1.69,0,0,0,1244.12,648.33Z" transform="translate(-1131.1 -612.63)"/><path class="cls-2" d="M1242.05,679.62c-0.24.06-.28,0.86-0.57,1.88a6.86,6.86,0,0,0,2.2-.37,2.68,2.68,0,0,0,.22-1.4A5.61,5.61,0,0,0,1242.05,679.62Z" transform="translate(-1131.1 -612.63)"/><path class="cls-2" d="M1243.7,656.34a3.26,3.26,0,0,0,.88.38,1.93,1.93,0,0,0,.36-0.64l-0.87-.11Z" transform="translate(-1131.1 -612.63)"/><path class="cls-2" d="M1237.49,682.44l0.24,0.83h0.59a3.66,3.66,0,0,0-.3-0.82A1.07,1.07,0,0,0,1237.49,682.44Z" transform="translate(-1131.1 -612.63)"/><path class="cls-2" d="M1240.8,659.24a5.92,5.92,0,0,0,.65,1.42,2,2,0,0,0,1,.24l-0.45-1.41Z" transform="translate(-1131.1 -612.63)"/><path class="cls-2" d="M1238.17,690.86c0.07-.29.1-0.6,0.16-0.89a5.15,5.15,0,0,1-.43.35Z" transform="translate(-1131.1 -612.63)"/><path class="cls-2" d="M1243.29,673.57v0.59a3.66,3.66,0,0,0,.82-0.3,1.07,1.07,0,0,0,0-.53Z" transform="translate(-1131.1 -612.63)"/><path class="cls-2" d="M1242.46,656.62l0.87,0.09V656a5.38,5.38,0,0,0-.87.13A1.69,1.69,0,0,0,1242.46,656.62Z" transform="translate(-1131.1 -612.63)"/><path class="cls-2" d="M1215.94,639.34l0.25,1.21,1.41,0.45a2,2,0,0,0-.24-1A5.93,5.93,0,0,0,1215.94,639.34Z" transform="translate(-1131.1 -612.63)"/><path class="cls-2" d="M1168.48,657a8.93,8.93,0,0,0,1,1.32,1.71,1.71,0,0,0,.83-0.21,8.49,8.49,0,0,0-.83-1.34A2.64,2.64,0,0,0,1168.48,657Z" transform="translate(-1131.1 -612.63)"/><path class="cls-2" d="M1182,665.1a8.9,8.9,0,0,0-1,1.32,2.65,2.65,0,0,0,1,.22,8.5,8.5,0,0,0,.83-1.34A1.71,1.71,0,0,0,1182,665.1Z" transform="translate(-1131.1 -612.63)"/><path class="cls-2" d="M1215.11,660.31v0.59a3.67,3.67,0,0,0,.82-0.3,1.07,1.07,0,0,0,0-.53Z" transform="translate(-1131.1 -612.63)"/><path class="cls-2" d="M1172.84,656.16v0.59a3.66,3.66,0,0,0,.82-0.3,1.07,1.07,0,0,0,0-.53Z" transform="translate(-1131.1 -612.63)"/><path class="cls-2" d="M1173.67,636.86a1.07,1.07,0,0,0,0,.53,3.66,3.66,0,0,0,.82.3,1.07,1.07,0,0,0,0-.53A3.66,3.66,0,0,0,1173.67,636.86Z" transform="translate(-1131.1 -612.63)"/><path class="cls-2" d="M1196.68,662.59a2.7,2.7,0,0,0,1.2-.28,5.94,5.94,0,0,0,.65-1.42,2.15,2.15,0,0,0-1,.24A7.07,7.07,0,0,0,1196.68,662.59Z" transform="translate(-1131.1 -612.63)"/><path class="cls-2" d="M1171.87,684.72l0.14-.05c-0.05-.09-0.11-0.17-0.16-0.27C1171.85,684.51,1171.85,684.62,1171.87,684.72Z" transform="translate(-1131.1 -612.63)"/><path class="cls-2" d="M1172.64,681.67a8.12,8.12,0,0,0,1.61-.69,2,2,0,0,0,.24-1l-2.49.3Z" transform="translate(-1131.1 -612.63)"/><path class="cls-2" d="M1293,653.44v0.51l0.83-.12a0.2,0.2,0,0,0,0-.09A3.67,3.67,0,0,0,1293,653.44Z" transform="translate(-1131.1 -612.63)"/><path class="cls-2" d="M1241.42,618.51a4.19,4.19,0,0,0,.75.26h0l-0.74-.3v0Z" transform="translate(-1131.1 -612.63)"/><path class="cls-2" d="M1285.56,633l0.64,1.54,1-.41a2,2,0,0,0-.42-0.93A3.48,3.48,0,0,0,1285.56,633Z" transform="translate(-1131.1 -612.63)"/><path class="cls-2" d="M1301.52,651.25a4.33,4.33,0,0,0-1.81.52,3.48,3.48,0,0,0,.15.84h2.28A3.3,3.3,0,0,0,1301.52,651.25Z" transform="translate(-1131.1 -612.63)"/><path class="cls-2" d="M1297.43,644.32l-0.41,1,1.54,0.63a3.47,3.47,0,0,0-.2-1.24A2,2,0,0,0,1297.43,644.32Z" transform="translate(-1131.1 -612.63)"/><path class="cls-2" d="M1285.86,629.41a3.67,3.67,0,0,0-.3.82h0.59l0.24-.83A1.07,1.07,0,0,0,1285.86,629.41Z" transform="translate(-1131.1 -612.63)"/><path class="cls-2" d="M1294.68,644.32l0.83-.24v-0.59a3.67,3.67,0,0,0-.82.3A1.07,1.07,0,0,0,1294.68,644.32Z" transform="translate(-1131.1 -612.63)"/><path class="cls-2" d="M1145.48,640.73a4.17,4.17,0,0,0,1.6-.58,4.6,4.6,0,0,0,.67-1.64h-2.34Z" transform="translate(-1131.1 -612.63)"/><path class="cls-2" d="M1145.48,635.2l0.45,1.41,1.21,0.25a5.92,5.92,0,0,0-.65-1.42A2,2,0,0,0,1145.48,635.2Z" transform="translate(-1131.1 -612.63)"/><path class="cls-2" d="M1255.71,676.89l1.41,0.58,0.2-2.49a2,2,0,0,0-1,.28A8.09,8.09,0,0,0,1255.71,676.89Z" transform="translate(-1131.1 -612.63)"/><path class="cls-2" d="M1136.66,684.12a1.53,1.53,0,0,0-.11.31c0,0.16,0,.34,0,0.5H1137l0.24-.83A1.07,1.07,0,0,0,1136.66,684.12Z" transform="translate(-1131.1 -612.63)"/><path class="cls-2" d="M1144.12,643.5a3.66,3.66,0,0,0-.3.82h0.59l0.24-.83A1.07,1.07,0,0,0,1144.12,643.5Z" transform="translate(-1131.1 -612.63)"/><path class="cls-2" d="M1157.88,630.44l1.4,0.61,0.27-2.49a2,2,0,0,0-1,.25A8.09,8.09,0,0,0,1157.88,630.44Z" transform="translate(-1131.1 -612.63)"/><path class="cls-2" d="M1254.89,638.52l0.24,0.83h0.59a3.66,3.66,0,0,0-.3-0.82A1.07,1.07,0,0,0,1254.89,638.52Z" transform="translate(-1131.1 -612.63)"/><path class="cls-2" d="M1157.87,649.09a8.11,8.11,0,0,0,.69,1.61,2,2,0,0,0,1,.24l-0.3-2.49Z" transform="translate(-1131.1 -612.63)"/><path class="cls-2" d="M1142.78,677.75a8.91,8.91,0,0,0,1,1.32,1.71,1.71,0,0,0,.83-0.21,8.47,8.47,0,0,0-.83-1.34A2.64,2.64,0,0,0,1142.78,677.75Z" transform="translate(-1131.1 -612.63)"/><path class="cls-2" d="M1143.88,681.62a2.65,2.65,0,0,0,.22,1,8.86,8.86,0,0,0,1.32-1,1.71,1.71,0,0,0-.21-0.83A8.49,8.49,0,0,0,1143.88,681.62Z" transform="translate(-1131.1 -612.63)"/><path class="cls-2" d="M1143.81,636.35a17.94,17.94,0,0,0-.28,2.07c0.3,0.06.63,0.13,1,.24a6.86,6.86,0,0,0-.37-2.2A0.6,0.6,0,0,0,1143.81,636.35Z" transform="translate(-1131.1 -612.63)"/><path class="cls-2" d="M1157.92,652.85v0.59a3.66,3.66,0,0,0,.82-0.3,1.07,1.07,0,0,0,0-.53Z" transform="translate(-1131.1 -612.63)"/><path class="cls-2" d="M1156.26,662.55a5.94,5.94,0,0,0,.65,1.42,2,2,0,0,0,1,.24l-0.45-1.41Z" transform="translate(-1131.1 -612.63)"/><path class="cls-2" d="M1153.36,629a25.06,25.06,0,0,0-.38,2.74,1.31,1.31,0,0,0,.69.84,3.38,3.38,0,0,0,1.27,0c-0.42-1.14-.78-2.15-1.18-3.16A1.56,1.56,0,0,0,1153.36,629Z" transform="translate(-1131.1 -612.63)"/><path class="cls-2" d="M1152.89,627.18l-0.52,0c-0.07.26-.11,0.49-0.15,0.65l1.14,1.14,0.33-2.06c-0.26.09-.54,0.15-0.8,0.26h0Z" transform="translate(-1131.1 -612.63)"/><path class="cls-2" d="M1250.89,679.13l0.19,1.49,1.3,0.2a1.93,1.93,0,0,0-.16-1A5.74,5.74,0,0,0,1250.89,679.13Z" transform="translate(-1131.1 -612.63)"/><path class="cls-2" d="M1231.83,653.63l-0.12,2.29a3.39,3.39,0,0,0,1.35-.63,4.56,4.56,0,0,0-.57-1.82A3.06,3.06,0,0,0,1231.83,653.63Z" transform="translate(-1131.1 -612.63)"/><path class="cls-2" d="M1251.75,682.44a0.33,0.33,0,0,0,.21,0l0.07-.32,0.29-.18,0-.39h-0.74A5.38,5.38,0,0,0,1251.75,682.44Z" transform="translate(-1131.1 -612.63)"/><path class="cls-2" d="M1153.24,649.3a3.67,3.67,0,0,0-.3.82h0.59l0.24-.83A1.07,1.07,0,0,0,1153.24,649.3Z" transform="translate(-1131.1 -612.63)"/><path class="cls-2" d="M1146.31,654.26a2,2,0,0,0,.24,1,5.92,5.92,0,0,0,1.42.65l-0.25-1.21Z" transform="translate(-1131.1 -612.63)"/><path class="cls-2" d="M1145.75,646.8a1.71,1.71,0,0,0-.21.83,8.92,8.92,0,0,0,1.32,1,2.64,2.64,0,0,0,.22-1A8.47,8.47,0,0,0,1145.75,646.8Z" transform="translate(-1131.1 -612.63)"/><path class="cls-2" d="M1153.77,635.44V636a3.65,3.65,0,0,0,.82-0.3,1.07,1.07,0,0,0,0-.53Z" transform="translate(-1131.1 -612.63)"/><path class="cls-2" d="M1140.79,646.19L1141,646c0-.38,0-0.76,0-1.15a3.54,3.54,0,0,0-.49.3A2.64,2.64,0,0,0,1140.79,646.19Z" transform="translate(-1131.1 -612.63)"/><path class="cls-2" d="M1154.6,644.56v0.59a3.66,3.66,0,0,0,.82-0.3,1.07,1.07,0,0,0,0-.53Z" transform="translate(-1131.1 -612.63)"/><path class="cls-2" d="M1160.94,626.08l0-.3c-0.23,0-.45,0-0.68,0Z" transform="translate(-1131.1 -612.63)"/><path class="cls-2" d="M1258.82,651.23a8.86,8.86,0,0,0,1,1.32,1.71,1.71,0,0,0,.83-0.21,8.5,8.5,0,0,0-.83-1.34A2.64,2.64,0,0,0,1258.82,651.23Z" transform="translate(-1131.1 -612.63)"/><path class="cls-2" d="M1259,670.84a3.66,3.66,0,0,0,.3.82,1.07,1.07,0,0,0,.53,0l-0.24-.83H1259Z" transform="translate(-1131.1 -612.63)"/><path class="cls-2" d="M1259.87,638.52l0.24,0.83h0.59a3.65,3.65,0,0,0-.3-0.82A1.07,1.07,0,0,0,1259.87,638.52Z" transform="translate(-1131.1 -612.63)"/><path class="cls-2" d="M1259.87,641.83l0.24,0.83h0.59a3.66,3.66,0,0,0-.3-0.82A1.07,1.07,0,0,0,1259.87,641.83Z" transform="translate(-1131.1 -612.63)"/><path class="cls-2" d="M1283.07,633.54l0.24,0.83h0.59a3.66,3.66,0,0,0-.3-0.82A1.07,1.07,0,0,0,1283.07,633.54Z" transform="translate(-1131.1 -612.63)"/><path class="cls-2" d="M1282.25,642.66v0.59l0.83,0.24a1.07,1.07,0,0,0,0-.53A3.66,3.66,0,0,0,1282.25,642.66Z" transform="translate(-1131.1 -612.63)"/><path class="cls-3" d="M1191.65,669.58a3.5,3.5,0,0,1-1.69-.16,0.86,0.86,0,0,1-.24-1,3.65,3.65,0,0,0-.44-2c0-.08-1.45-3.21-2-4.34,0-.2-1.12-2.65-1.61-3.69l-0.12-.28h0c-0.2-.44-0.72-1.12-1-1.69a8.48,8.48,0,0,0-.44-1v0h0a2.28,2.28,0,0,0-2-1.08,3.22,3.22,0,0,0-2.53,1,2.76,2.76,0,0,0-.88,2.13c0,0.56-.08,1.25-0.08,1.81a11,11,0,0,0,0,1.29c0,0.48,0,2.57-.08,3.7,0,0.56,0,.84,0,1v0.76a17.35,17.35,0,0,1,0,2,3.34,3.34,0,0,0,.08.52c0,0.16.36,0.8,0,1a2.28,2.28,0,0,1-1.25.16c-0.12,0-1.77.08-1.93-.32a1.06,1.06,0,0,1,.12-0.8,23.38,23.38,0,0,0,.48-2.41c0.12-.44.24-0.88,0.32-6.75a40.2,40.2,0,0,0,.12-5.22,5.38,5.38,0,0,1,0-.8,3.81,3.81,0,0,0,0-.68c0-.52,0-1,0-1.57s0-1,0-1.53c0-1,0-2,0-3V645c-0.08-1.08-.08-6.1-3.45-7.19-0.52-.16-1.29-0.48-2.21-0.76h-0.08a3.22,3.22,0,0,1-2-1.33,1.52,1.52,0,0,1,.4-1.17,0.76,0.76,0,0,1,.76-0.36h0.24a13.36,13.36,0,0,1,1.49.56,22.41,22.41,0,0,0,3.74.8c0.08,0,.2,0,0.32,0,0.44,0,.88,0,1.45.08,0.2,0,2.85,0,3.74,0,0.68,0,1.41-.08,2-0.08a6,6,0,0,1,.76,0s1.13,0.08,1.53.16h0.08c3.25,0.4,5.46,1.77,6.87,4.66a3.2,3.2,0,0,1,.4,1.29c0.48,1-.36,3.9-0.92,4.82l0,0a8,8,0,0,1-1.41,2.17l-0.24.24c-1,1-2.81,1.65-3.45,3.21a3.73,3.73,0,0,0-.16,1.89v0a11.17,11.17,0,0,0,.64,1.85l1.08,2.29a27.81,27.81,0,0,0,1.53,3.41v0c0.44,0.6.6,1.13,2,3.74,0.12,0.28.4,0.84,0.76,1.53,0.12,0.2.28,0.44,0.32,0.52v0c0.12,0.24.28,0.52,0.44,0.84a3.1,3.1,0,0,1,.36.52C1193.89,669.78,1192.21,669.58,1191.65,669.58Zm-1.41-25.38a5.56,5.56,0,0,0-1.41-4.54v0h0c-0.8-1-2-1.12-3.33-1.29a11.37,11.37,0,0,1-1.17-.08c-0.4,0-.84-0.08-1.29-0.08a1.8,1.8,0,0,0-.44,0,5.37,5.37,0,0,0-2.21.32,3.42,3.42,0,0,0-1.45,1.85v0a8.54,8.54,0,0,0-.16,2,49.32,49.32,0,0,1,0,5.82c-0.08,1.49,0,1.57.08,1.73l0,0a1.57,1.57,0,0,0,1.57,1.21,4.26,4.26,0,0,0,1.89-.32,11.16,11.16,0,0,0,2.33-1c0.12-.08.28-0.16,0.32-0.2h0.08C1187.47,648.25,1189.84,646.4,1190.24,644.19Z" transform="translate(-1131.1 -612.63)"/><path class="cls-3" d="M1219.27,669.58c0.24,0.88.36,0.64,0,1a2.12,2.12,0,0,1-1.29.32h-0.48c-0.12,0-.28,0-0.4,0-1.25,0-3.13-.16-4.66-0.28h0c-0.84-.08-1.73-0.12-3.37-0.12a32.88,32.88,0,0,0-4.06.28,24.23,24.23,0,0,0-4,.72c-1.53.52-2.37,0.56-3.7,1h-0.12a1.54,1.54,0,0,1-1-.64,0.8,0.8,0,0,1,.12-1,3.29,3.29,0,0,1,.8-0.48,15.94,15.94,0,0,1,1.65-.92,6.24,6.24,0,0,0,.92-0.52c1.25-1.24,1.65-3.45,1.65-5.34,0-1.17.2-2.37,0.2-3.49a6.64,6.64,0,0,1,.08-1.29c0-.28,0-3.05,0-3.17v-0.28a8.9,8.9,0,0,0,.08-1.69c0-.16,0-0.84,0-1.49s0-1.57-.08-1.85a3.12,3.12,0,0,1-.08-0.6c0-.16,0-0.32,0-0.48,0-.48,0-0.92,0-1.41s0.24-3.61.16-4.14v-0.72c0-1.29.24-3.86-1.53-4.38a5.7,5.7,0,0,0-.6,0,3.43,3.43,0,0,1-1.53-.2,1.23,1.23,0,0,1-.48-1.53,1.38,1.38,0,0,1,1.21-.8h0.36c0.8-.08,1.37-0.16,1.53-0.2s1-.08,2.21-0.12h0.72c0.52,0,.8,0,1.93.08H1207c0.8,0,.84,0,1.81,0a15.76,15.76,0,0,0,2.17,0c0.12,0,.24,0,0.36,0a0.44,0.44,0,0,0,.24,0c0.16,0,2-.16,2.93-0.16h0.36c1.41,0.32,1.53.76,1.53,1.29s-0.08.44-.12,0.52a3,3,0,0,0-.16.48,1.64,1.64,0,0,1-.24.68,0.9,0.9,0,0,0-.2.2,0.54,0.54,0,0,1-.08.16,0.62,0.62,0,0,1-.48.24,1.08,1.08,0,0,1-.64-0.32,2.45,2.45,0,0,0-.6-0.48,4.34,4.34,0,0,0-1.69-.2h-0.88c-1.53,0-.52,0-2.25,0-0.76,0-.6,0-2-0.08a2.48,2.48,0,0,0-.56,0,4,4,0,0,0-2.25.76,3,3,0,0,0-.32.88v0.24a22.21,22.21,0,0,0,0,2.29v1.77c0,1.37,0,3.41.08,4.18,0,1.33.76,2.25,1.77,2.25a0.25,0.25,0,0,1,.2,0,16,16,0,0,0,3.05-.56,3.25,3.25,0,0,1,.76-0.12,0.54,0.54,0,0,1,.48.2,4.05,4.05,0,0,1,0,2.09v0a0.91,0.91,0,0,0,0,.16,1,1,0,0,1-.52.76,0.51,0.51,0,0,1-.24,0,2.45,2.45,0,0,1-.72-0.2,11.09,11.09,0,0,0-2,.08h-0.16c-1.25.2-2.61,2.17-2.77,3.45a2,2,0,0,0,0,.68c0,0.28,0,.52-0.16,3.74v0c0,0.08,0,3.13-.08,5V666c0.36,1.85,2.09,2,3.58,2.09h0.6c1.29,0,2.61.12,4.14,0.12,0.36,0,.88,0,1.41,0s0.88,0,1.16,0h0.2a4,4,0,0,0,2.49-.72,2.22,2.22,0,0,1,1.16-.4h0.12a0.27,0.27,0,0,1,.28.08C1219.15,667.45,1219.11,669.09,1219.27,669.58Z" transform="translate(-1131.1 -612.63)"/><path class="cls-3" d="M1245.94,659.62a2,2,0,0,0,0,.68v0.32c0,0.2-.12.52-0.16,0.88s-0.12.68-.2,1.08a0.15,0.15,0,0,1,0,.12v0a6,6,0,0,0-.48,1,5.41,5.41,0,0,0-.4.84c0,0.12-.08.2-0.12,0.32a13.69,13.69,0,0,1-3,3.21l-0.84.72a3.69,3.69,0,0,1-1.08.64,2,2,0,0,0-.28.12l-0.16.08v0s-0.12,0-.16.08,0,0-.08,0l-1.12.52c-0.36.2-.72,0.36-1,0.52h0a7,7,0,0,1-1,.12,0.15,0.15,0,0,1-.12,0h0a2.19,2.19,0,0,0-.64.12h-0.44l-1.85-.12a14.41,14.41,0,0,0-1.65-.12,0.51,0.51,0,0,0-.24,0l-0.44,0a14.18,14.18,0,0,1-3.45-1.21l0,0h-0.08a6.79,6.79,0,0,1-2-1.12l-0.12-.08a10.51,10.51,0,0,1-3.57-4.58,12.46,12.46,0,0,1-.56-6.83,2.39,2.39,0,0,0,.2-0.92,1,1,0,0,0,0-.16c0-.08,0-0.16.08-0.24,0.2-1.29,1.69-3.45,4.26-5.9a3.91,3.91,0,0,1,1.33-.6,1.27,1.27,0,0,0,.48-0.16,7,7,0,0,1,2.93-.48,9.29,9.29,0,0,1,3.53.84,6.38,6.38,0,0,1,2.57,1.89v0a5.4,5.4,0,0,1,1.33,3,5.79,5.79,0,0,1-.16,2.17v0a7.83,7.83,0,0,1-.84,2.13h0a5.27,5.27,0,0,1-3.53,2.13,4.37,4.37,0,0,1-.72,0,5.27,5.27,0,0,1-3.13-1.08,3.46,3.46,0,0,1-.88-1,2.82,2.82,0,0,1-.4-0.56,1.36,1.36,0,0,1-.08-0.6v-0.16a1.52,1.52,0,0,1,.44-0.76,1.39,1.39,0,0,1,1.93.44V657l0,0.08a3.19,3.19,0,0,0,.76.68l1,0.4a3.07,3.07,0,0,0,.68,0c0.08,0,.16,0,0.24,0h0a3.06,3.06,0,0,0,.72-0.36,2.2,2.2,0,0,0,.6-0.36c0.08-.08.12-0.16,0.2-0.24a0.09,0.09,0,0,1,.08-0.08l0,0v0a1.41,1.41,0,0,0,.2-0.52s0-.12.08-0.16a3.3,3.3,0,0,0,.12-0.84v-0.08a1.24,1.24,0,0,1,0-.36,1.94,1.94,0,0,0,0-.48v-0.08c-0.08-.2-0.16-0.48-0.24-0.76a2.72,2.72,0,0,0-.36-0.88,1.75,1.75,0,0,1-.2-0.28c-0.24-.16-0.56-0.44-1-0.68a8.81,8.81,0,0,0-1.61-.64A4.91,4.91,0,0,0,1230,651a2,2,0,0,0-.48,0,6,6,0,0,0-2.41.6l-0.4.2h0l-0.08.08a5.55,5.55,0,0,0-2,1.77c-0.12.16-.24,0.28-0.8,1l0,0c0,0.16-1.61,3.9-1.12,5.86a9.78,9.78,0,0,0,9.32,8h0.28a12.21,12.21,0,0,0,3.82-.44,15.14,15.14,0,0,0,5.5-3.17,3.29,3.29,0,0,0,.8-1.08,0.65,0.65,0,0,1,.16-0.28c1-1.53,1.08-5.58.88-6.43a17.17,17.17,0,0,0-1.08-2.69,0.5,0.5,0,0,0-.08-0.12,5.88,5.88,0,0,0-.92-1.49,1,1,0,0,0-.32-0.36,1.71,1.71,0,0,0-.16-0.28,0.31,0.31,0,0,1-.08-0.16h0v0c-0.24-.32-0.52-0.6-0.72-0.92a17.91,17.91,0,0,0-2-2.25,3.55,3.55,0,0,0-.32-0.2v0a0.87,0.87,0,0,1-.2-0.12,0.85,0.85,0,0,0-.24-0.16,1.4,1.4,0,0,0-.4-0.32,11.82,11.82,0,0,1-1.61-1.25c-0.12-.08-0.2-0.16-0.32-0.24a5.5,5.5,0,0,0-.68-0.68,5.61,5.61,0,0,1-1-.92,13.16,13.16,0,0,0-1.2-1.41,6.89,6.89,0,0,1-1.08-3v-0.6a4.81,4.81,0,0,1,5.86-4.82c0.48,0.08.88,0.28,1.37,0.36,1.33,0.2,1.37-1,2-1.65a2,2,0,0,1,1,.2,0.59,0.59,0,0,1,.36.48v0.16a5.87,5.87,0,0,1-.2,1.08,10.45,10.45,0,0,0,0,2.57,3.25,3.25,0,0,1,0,.6v0.16a0.3,0.3,0,0,0,0,.16,2.17,2.17,0,0,1-.16.6,1,1,0,0,1-.68.64,0.79,0.79,0,0,0-.28,0,2.31,2.31,0,0,1-.4-0.08,0.3,0.3,0,0,1-.16-0.08,4.55,4.55,0,0,1-.52-1.12,1.65,1.65,0,0,1,0-.44,2.33,2.33,0,0,0-.88-0.88,1,1,0,0,1-.28-0.16l-0.2-.16h0a3.52,3.52,0,0,0-1.85-.48c-2.09-.12-2.93,2-2.85,3.29a2,2,0,0,0,0,.48,8.23,8.23,0,0,0,2.09,3c0.2,0.2.44,0.4,1.25,1.08a11.59,11.59,0,0,0,1,.76l0,0a0.88,0.88,0,0,0,.2.12,0.91,0.91,0,0,0,.2.16,17.61,17.61,0,0,0,1.57,1l0.12,0.12a10.2,10.2,0,0,1,1.61,1.57,8.53,8.53,0,0,0,.8.84,22.45,22.45,0,0,1,1.81,2.21v0h0a10,10,0,0,1,.76,1.65l0,0,0.16,0.4a0.38,0.38,0,0,0,.16.28c0.08,0.2.2,0.4,0.28,0.6s0,0.2,0,.32,0.08,0.28.12,0.4l0.2,0.76a11,11,0,0,1,.4,2.77A2.89,2.89,0,0,1,1245.94,659.62Z" transform="translate(-1131.1 -612.63)"/></svg>